<svg viewBox="0 0 1800 600" xmlns="http://www.w3.org/2000/svg" role="img" aria-label="Isometric dot field receding into distance">
  <rect width="100%" height="100%" fill="#FFFFFF"/>
  <g fill="#3774B7" fill-opacity="0.18">
    <!-- staggered grid of circles -->
    <!-- generate a few rows manually; copy to taste -->
    <g transform="translate(0,0)">
      <circle cx="100" cy="100" r="4"/><circle cx="200" cy="100" r="4"/><circle cx="300" cy="100" r="4"/><circle cx="400" cy="100" r="4"/><circle cx="500" cy="100" r="4"/><circle cx="600" cy="100" r="4"/><circle cx="700" cy="100" r="4"/><circle cx="800" cy="100" r="4"/><circle cx="900" cy="100" r="4"/><circle cx="1000" cy="100" r="4"/><circle cx="1100" cy="100" r="4"/><circle cx="1200" cy="100" r="4"/><circle cx="1300" cy="100" r="4"/><circle cx="1400" cy="100" r="4"/><circle cx="1500" cy="100" r="4"/><circle cx="1600" cy="100" r="4"/>
    </g>
    <g transform="translate(50,160)">
      <circle cx="100" cy="100" r="4"/><circle cx="200" cy="100" r="4"/><circle cx="300" cy="100" r="4"/><circle cx="400" cy="100" r="4"/><circle cx="500" cy="100" r="4"/><circle cx="600" cy="100" r="4"/><circle cx="700" cy="100" r="4"/><circle cx="800" cy="100" r="4"/><circle cx="900" cy="100" r="4"/><circle cx="1000" cy="100" r="4"/><circle cx="1100" cy="100" r="4"/><circle cx="1200" cy="100" r="4"/><circle cx="1300" cy="100" r="4"/><circle cx="1400" cy="100" r="4"/><circle cx="1500" cy="100" r="4"/><circle cx="1600" cy="100" r="4"/>
    </g>
    <g transform="translate(0,320)">
      <circle cx="100" cy="100" r="4"/><circle cx="200" cy="100" r="4"/><circle cx="300" cy="100" r="4"/><circle cx="400" cy="100" r="4"/><circle cx="500" cy="100" r="4"/><circle cx="600" cy="100" r="4"/><circle cx="700" cy="100" r="4"/><circle cx="800" cy="100" r="4"/><circle cx="900" cy="100" r="4"/><circle cx="1000" cy="100" r="4"/><circle cx="1100" cy="100" r="4"/><circle cx="1200" cy="100" r="4"/><circle cx="1300" cy="100" r="4"/><circle cx="1400" cy="100" r="4"/><circle cx="1500" cy="100" r="4"/><circle cx="1600" cy="100" r="4"/>
    </g>
  </g>
</svg>
