<?xml version="1.0" encoding="UTF-8"?>
<svg id="Layer_1" data-name="Layer 1" xmlns="http://www.w3.org/2000/svg" viewBox="0 0 194.44 388.87">
  <polygon points="194.19 .6 145.72 49.07 145.72 339.81 194.19 388.27 194.19 .6" fill="#7b5da8" stroke="#231f20" stroke-miterlimit="10" stroke-width=".5"/>
  <polygon points=".35 194.44 48.83 242.91 48.83 145.96 .35 194.44" fill="#d5c9e3" stroke="#231f20" stroke-miterlimit="10" stroke-width=".5"/>
  <polygon points="97.3 97.49 48.83 145.96 48.83 242.91 97.3 291.39 97.3 97.49" fill="#b8a7d1" stroke="#231f20" stroke-miterlimit="10" stroke-width=".5"/>
  <polygon points="145.72 49.07 97.3 97.49 97.3 291.39 145.72 339.81 145.72 49.07" fill="#957eba" stroke="#231f20" stroke-miterlimit="10" stroke-width=".5"/>
  <g>
    <path d="M162.61,242.91v-2l7.5-3.15v-.06l-7.5-3.12v-2h9.91v1.34h-8.15v.03l8.15,3.35v.9l-8.15,3.35v.03h8.15v1.34h-9.91Z" fill="#fff"/>
    <path d="M166.7,230.43c-.33-.35-.57-.76-.73-1.23-.16-.47-.25-.93-.25-1.4s.06-.9.18-1.25c.12-.35.28-.64.49-.86.21-.22.44-.39.71-.5.27-.11.54-.16.83-.16h3.39c.23,0,.45,0,.64-.01.2,0,.38-.02.56-.04v1.12c-.34.03-.67.04-1.01.04v.03c.43.28.73.61.91.99s.27.83.27,1.33c0,.31-.04.6-.13.88-.08.28-.21.52-.38.73s-.38.38-.62.5c-.25.12-.53.18-.86.18-.43,0-.79-.1-1.08-.29-.29-.19-.52-.45-.71-.79-.18-.33-.31-.72-.39-1.16-.08-.44-.12-.92-.12-1.42v-.92h-.28c-.17,0-.34.03-.5.1s-.32.16-.46.29-.24.29-.32.49c-.08.2-.12.43-.12.7,0,.24.02.46.07.64.05.18.1.35.18.5.07.15.15.29.24.41.09.12.18.24.27.35l-.78.76ZM169.33,226.87c0,.3.02.6.05.92.03.31.1.6.19.85.09.26.22.47.39.63.17.16.38.25.64.25.38,0,.66-.13.83-.38s.25-.6.25-1.04c0-.34-.06-.64-.18-.88-.12-.24-.27-.44-.46-.59-.19-.15-.39-.26-.62-.32-.23-.07-.46-.1-.68-.1h-.42v.67Z" fill="#fff"/>
    <path d="M165.89,223.19v-1.26h.95v-.03c-.35-.24-.63-.58-.83-1-.2-.42-.29-.86-.29-1.31,0-.51.09-.98.27-1.39.18-.42.42-.77.74-1.06.32-.29.69-.52,1.11-.68.42-.16.88-.24,1.37-.24s.95.08,1.38.24.79.38,1.11.68c.31.29.56.65.73,1.06s.27.88.27,1.39c0,.47-.1.92-.3,1.34-.2.42-.47.74-.82.96v.03h4.9v1.26h-10.58ZM166.89,219.74c0,.34.06.64.17.91s.28.5.48.69c.2.19.44.33.73.43.28.1.6.15.93.15s.65-.05.93-.15c.29-.1.53-.25.73-.43.2-.19.36-.42.48-.69s.18-.57.18-.91-.06-.64-.18-.91-.27-.5-.48-.69c-.2-.19-.44-.33-.73-.43-.28-.1-.59-.15-.93-.15s-.65.05-.93.15c-.28.1-.53.25-.73.43-.2.19-.36.42-.48.69s-.17.57-.17.91Z" fill="#fff"/>
    <path d="M163.87,208.35v3.19h-1.26v-7.73h1.26v3.19h8.65v1.34h-8.65Z" fill="#fff"/>
    <path d="M161.94,202.71v-1.26h4.97v-.03c-.35-.16-.64-.43-.86-.83-.22-.39-.33-.84-.33-1.36,0-.32.05-.62.15-.92.1-.29.25-.55.46-.77.21-.22.47-.39.79-.53.32-.13.7-.2,1.14-.2h4.27v1.26h-3.92c-.31,0-.57.04-.79.13s-.4.2-.53.34c-.14.14-.23.3-.29.48-.06.18-.09.37-.09.57,0,.26.04.5.13.73s.22.42.4.59.41.3.69.39c.28.09.61.14.99.14h3.42v1.26h-10.58Z" fill="#fff"/>
    <path d="M169.67,193.97c.29,0,.55-.06.79-.19.24-.13.44-.29.61-.5.17-.21.3-.44.39-.71.09-.27.14-.55.14-.84,0-.39-.09-.73-.27-1.02-.18-.29-.42-.56-.72-.8l.73-.95c.91.7,1.36,1.68,1.36,2.94,0,.52-.09,1-.27,1.42-.18.42-.42.78-.73,1.08-.31.29-.68.52-1.11.68s-.88.24-1.38.24-.95-.09-1.38-.26-.79-.41-1.11-.71c-.31-.3-.56-.67-.73-1.08-.18-.42-.27-.88-.27-1.37,0-.59.1-1.08.31-1.49.21-.41.47-.74.81-1,.33-.26.7-.45,1.12-.57.42-.12.84-.18,1.27-.18h.45v5.32ZM168.66,189.99c-.28,0-.54.05-.77.13-.23.08-.44.2-.61.36-.17.16-.31.36-.41.6-.1.24-.15.52-.15.83s.06.59.17.85c.12.26.27.47.46.65.19.18.39.31.62.41.23.1.46.15.68.15v-3.98Z" fill="#fff"/>
    <path d="M163.51,187.33c-.25,0-.47-.09-.65-.27-.18-.18-.27-.4-.27-.65s.09-.47.27-.65.4-.27.65-.27.47.09.65.27c.18.18.27.4.27.65s-.09.47-.27.65-.4.27-.65.27ZM165.89,187.04v-1.26h6.64v1.26h-6.64Z" fill="#fff"/>
    <path d="M165.89,183.78v-1.26h1.02v-.03c-.18-.08-.34-.2-.48-.34-.14-.14-.27-.3-.37-.47-.1-.17-.18-.36-.25-.57-.06-.21-.09-.41-.09-.62s.03-.39.08-.56l1.36.06c-.03.1-.05.21-.07.31-.02.1-.03.21-.03.31,0,.62.17,1.09.52,1.41.35.33.88.49,1.61.49h3.33v1.26h-6.64Z" fill="#fff"/>
    <path d="M172.77,169.83c0,.76-.13,1.45-.4,2.09s-.63,1.18-1.1,1.63c-.47.45-1.02.81-1.65,1.06s-1.32.38-2.06.38-1.42-.13-2.06-.38c-.63-.26-1.19-.61-1.65-1.06s-.83-1-1.1-1.63c-.27-.63-.4-1.33-.4-2.09s.13-1.45.4-2.09c.27-.63.63-1.18,1.1-1.63s1.02-.81,1.65-1.06c.63-.26,1.32-.39,2.06-.39s1.42.13,2.06.39,1.19.61,1.65,1.06c.47.45.83,1,1.1,1.63.27.63.4,1.33.4,2.09ZM171.51,169.83c0-.57-.1-1.08-.32-1.54-.21-.46-.49-.85-.85-1.18s-.77-.58-1.25-.76c-.48-.18-.99-.27-1.53-.27s-1.05.09-1.53.27c-.48.18-.9.43-1.25.76-.35.33-.64.72-.85,1.18-.21.46-.31.97-.31,1.54s.1,1.08.31,1.54c.21.46.49.85.85,1.18.35.33.77.58,1.25.76.48.18.99.27,1.53.27s1.05-.09,1.53-.27c.48-.18.9-.43,1.25-.76s.64-.72.85-1.18c.21-.46.32-.97.32-1.54Z" fill="#fff"/>
    <path d="M165.89,163.06v-1.26h1.02v-.03c-.18-.08-.34-.2-.48-.34-.14-.14-.27-.3-.37-.47-.1-.17-.18-.36-.25-.57-.06-.21-.09-.41-.09-.62s.03-.39.08-.56l1.36.06c-.03.1-.05.21-.07.31-.02.1-.03.21-.03.31,0,.62.17,1.09.52,1.41.35.33.88.49,1.61.49h3.33v1.26h-6.64Z" fill="#fff"/>
    <path d="M161.94,157.88v-1.26h4.9v-.03c-.35-.22-.62-.55-.82-.97s-.3-.87-.3-1.34c0-.51.09-.98.27-1.39.18-.42.42-.77.73-1.06.31-.29.68-.52,1.11-.68s.88-.24,1.38-.24.95.08,1.37.24c.42.16.79.39,1.11.68s.56.65.74,1.06c.18.42.27.88.27,1.39,0,.45-.1.88-.29,1.31-.2.42-.47.76-.83,1v.03h.95v1.26h-10.58ZM171.51,154.43c0-.34-.06-.64-.18-.91-.12-.27-.27-.5-.48-.69-.2-.19-.44-.33-.73-.43-.28-.1-.59-.15-.93-.15s-.65.05-.93.15c-.28.1-.53.25-.73.43-.2.19-.36.42-.48.69-.12.27-.17.57-.17.91s.06.64.17.91c.12.27.28.5.48.69.2.19.44.33.73.43.28.1.6.15.93.15s.65-.05.93-.15c.29-.1.53-.25.73-.43.2-.19.36-.42.48-.69.12-.27.18-.57.18-.91Z" fill="#fff"/>
    <path d="M163.51,149.52c-.25,0-.47-.09-.65-.27-.18-.18-.27-.4-.27-.65s.09-.47.27-.65.4-.27.65-.27.47.09.65.27c.18.18.27.4.27.65s-.09.47-.27.65-.4.27-.65.27ZM165.89,149.23v-1.26h6.64v1.26h-6.64Z" fill="#fff"/>
    <path d="M166.98,142.41v1.81h3.01c.19,0,.37,0,.55-.01s.35-.04.49-.1c.15-.06.26-.15.35-.28.09-.13.13-.31.13-.55,0-.15-.01-.3-.04-.46-.03-.16-.08-.3-.15-.43h1.15c.08.15.14.34.18.58.03.24.05.42.05.55,0,.49-.07.86-.2,1.13s-.31.46-.52.59c-.21.13-.46.2-.72.22-.27.02-.53.04-.81.04h-3.46v1.46h-1.09v-1.46h-1.86v-1.26h1.86v-1.81h1.09Z" fill="#fff"/>
  </g>
  <g>
    <path d="M116.61,248.27v-3.49c0-.63.09-1.16.26-1.57.17-.41.39-.73.66-.97s.56-.4.9-.5c.33-.09.65-.14.96-.14s.63.05.96.14c.33.09.63.26.9.5.27.24.49.56.66.97.17.41.26.93.26,1.57v2.14h4.37v1.34h-9.91ZM120.98,246.92v-1.76c0-.26-.02-.52-.06-.78s-.12-.49-.23-.69c-.11-.2-.27-.36-.48-.48s-.48-.18-.82-.18-.61.06-.82.18-.37.28-.48.48c-.11.2-.19.43-.23.69s-.06.52-.06.78v1.76h3.19Z" fill="#fff"/>
    <path d="M119.89,240.28v-1.26h1.02v-.03c-.18-.08-.34-.2-.48-.34-.14-.14-.27-.3-.37-.47-.1-.17-.18-.36-.25-.57s-.09-.41-.09-.62.03-.39.08-.56l1.36.06c-.03.1-.05.21-.07.31-.02.1-.03.21-.03.31,0,.62.17,1.09.52,1.41.35.33.88.49,1.61.49h3.33v1.26h-6.64Z" fill="#fff"/>
    <path d="M123.2,235.68c-.49,0-.94-.09-1.36-.27-.42-.18-.79-.43-1.11-.75-.32-.32-.57-.69-.75-1.12-.18-.43-.27-.89-.27-1.39s.09-.96.27-1.38c.18-.43.43-.8.75-1.12.32-.32.69-.57,1.11-.75.42-.18.87-.27,1.36-.27s.94.09,1.36.27c.42.18.79.43,1.11.75.31.32.56.69.74,1.12.18.43.27.89.27,1.38s-.09.96-.27,1.39-.43.8-.74,1.12c-.31.32-.68.57-1.11.75-.42.18-.88.27-1.36.27ZM123.2,234.33c.34,0,.65-.05.93-.15.29-.1.53-.25.73-.43.2-.19.36-.42.48-.69.12-.27.18-.57.18-.91s-.06-.64-.18-.91-.27-.5-.48-.69c-.2-.19-.44-.33-.73-.43-.28-.1-.59-.15-.93-.15s-.65.05-.93.15c-.28.1-.53.25-.73.43-.2.19-.36.42-.48.69s-.17.57-.17.91.06.64.17.91c.12.27.28.5.48.69s.44.33.73.43c.28.1.6.15.93.15Z" fill="#fff"/>
    <path d="M120.98,226.55v1.43h-1.09v-1.43h-1.48c-.89,0-1.55-.17-1.98-.51s-.65-.93-.65-1.76c0-.14,0-.29.01-.44s.04-.32.08-.5l1.12.14c-.05.12-.08.24-.1.35s-.03.23-.03.36c0,.23.04.42.1.56.07.14.17.25.3.33.13.08.29.13.47.15.18.02.39.04.62.04h1.53v-1.5h1.09v1.51h5.54v1.26h-5.54Z" fill="#fff"/>
    <path d="M117.51,222.58c-.25,0-.47-.09-.65-.27s-.27-.4-.27-.65.09-.47.27-.65c.18-.18.4-.27.65-.27s.47.09.65.27c.18.18.27.4.27.65s-.09.47-.27.65c-.18.18-.4.27-.65.27ZM119.89,222.28v-1.26h6.64v1.26h-6.64Z" fill="#fff"/>
    <path d="M115.94,218.92v-1.26h10.58v1.26h-10.58Z" fill="#fff"/>
    <path d="M123.67,214.71c.29,0,.55-.06.79-.19.24-.13.44-.29.61-.5s.3-.44.39-.71.14-.55.14-.84c0-.39-.09-.73-.27-1.02-.18-.29-.42-.55-.72-.8l.73-.95c.91.7,1.36,1.68,1.36,2.94,0,.52-.09,1-.27,1.42-.18.42-.42.78-.73,1.08-.31.29-.68.52-1.11.68-.42.16-.88.24-1.38.24s-.95-.09-1.38-.26-.79-.41-1.11-.71c-.31-.3-.56-.66-.73-1.08-.18-.42-.27-.88-.27-1.37,0-.59.1-1.08.31-1.49.21-.41.47-.74.81-1,.33-.26.7-.45,1.12-.57.42-.12.84-.17,1.27-.17h.45v5.32ZM122.66,210.73c-.28,0-.54.05-.77.13-.23.08-.44.2-.61.36-.17.16-.31.36-.41.59s-.15.52-.15.83.06.59.17.85c.12.26.27.47.46.65.19.18.39.31.62.41.23.1.46.15.68.15v-3.98Z" fill="#fff"/>
    <path d="M120.98,200.43v1.81h3.01c.19,0,.37,0,.55-.01s.35-.04.49-.1c.15-.06.26-.15.35-.28.09-.13.13-.31.13-.55,0-.15-.01-.3-.04-.46-.03-.16-.08-.3-.15-.43h1.15c.08.15.14.34.18.58.03.24.05.42.05.55,0,.49-.07.86-.2,1.13s-.31.46-.52.59c-.21.13-.46.2-.72.22-.27.02-.53.04-.81.04h-3.46v1.46h-1.09v-1.46h-1.86v-1.26h1.86v-1.81h1.09Z" fill="#fff"/>
    <path d="M115.94,198.8v-1.26h4.97v-.03c-.35-.16-.64-.43-.86-.83-.22-.39-.33-.84-.33-1.36,0-.32.05-.62.15-.92.1-.29.25-.55.46-.77.21-.22.47-.39.79-.53.32-.13.7-.2,1.14-.2h4.27v1.26h-3.92c-.31,0-.57.04-.79.13s-.4.2-.53.34c-.14.14-.23.3-.29.48-.06.18-.09.37-.09.57,0,.26.04.5.13.73s.22.42.4.59.41.3.69.39c.28.09.61.14.99.14h3.42v1.26h-10.58Z" fill="#fff"/>
    <path d="M123.67,190.07c.29,0,.55-.06.79-.19.24-.13.44-.29.61-.5.17-.21.3-.44.39-.71.09-.27.14-.55.14-.84,0-.39-.09-.73-.27-1.02-.18-.29-.42-.56-.72-.8l.73-.95c.91.7,1.36,1.68,1.36,2.94,0,.52-.09,1-.27,1.42-.18.42-.42.78-.73,1.08-.31.29-.68.52-1.11.68s-.88.24-1.38.24-.95-.09-1.38-.26-.79-.41-1.11-.71c-.31-.3-.56-.67-.73-1.08-.18-.42-.27-.88-.27-1.37,0-.59.1-1.08.31-1.49.21-.41.47-.74.81-1,.33-.26.7-.45,1.12-.57.42-.12.84-.18,1.27-.18h.45v5.32ZM122.66,186.09c-.28,0-.54.05-.77.13-.23.08-.44.2-.61.36-.17.16-.31.36-.41.6-.1.24-.15.52-.15.83s.06.59.17.85c.12.26.27.47.46.65.19.18.39.31.62.41.23.1.46.15.68.15v-3.98Z" fill="#fff"/>
    <path d="M116.61,179.02v-3.49c0-.63.09-1.16.26-1.57.17-.41.39-.73.66-.97.27-.24.56-.4.9-.5.33-.09.65-.14.96-.14s.63.05.96.14c.33.09.63.26.9.5.27.24.49.56.66.97.17.41.26.93.26,1.57v2.14h4.37v1.34h-9.91ZM120.98,177.68v-1.76c0-.26-.02-.52-.06-.78-.04-.26-.12-.48-.23-.69-.11-.2-.27-.36-.48-.48-.21-.12-.48-.18-.82-.18s-.61.06-.82.18c-.21.12-.37.28-.48.48-.11.2-.19.43-.23.69-.04.26-.06.52-.06.78v1.76h3.19Z" fill="#fff"/>
    <path d="M123.67,170.09c.29,0,.55-.06.79-.19.24-.13.44-.29.61-.5.17-.21.3-.44.39-.71.09-.27.14-.55.14-.84,0-.39-.09-.73-.27-1.02-.18-.29-.42-.56-.72-.8l.73-.95c.91.7,1.36,1.68,1.36,2.94,0,.52-.09,1-.27,1.42-.18.42-.42.78-.73,1.08-.31.29-.68.52-1.11.68s-.88.24-1.38.24-.95-.09-1.38-.26-.79-.41-1.11-.71c-.31-.3-.56-.67-.73-1.08-.18-.42-.27-.88-.27-1.37,0-.59.1-1.08.31-1.49.21-.41.47-.74.81-1,.33-.26.7-.45,1.12-.57.42-.12.84-.18,1.27-.18h.45v5.32ZM122.66,166.11c-.28,0-.54.05-.77.13-.23.08-.44.2-.61.36-.17.16-.31.36-.41.6-.1.24-.15.52-.15.83s.06.59.17.85c.12.26.27.47.46.65.19.18.39.31.62.41.23.1.46.15.68.15v-3.98Z" fill="#fff"/>
    <path d="M123.2,163.58c-.49,0-.94-.09-1.36-.27-.42-.18-.79-.43-1.11-.75-.32-.32-.57-.69-.75-1.12-.18-.43-.27-.89-.27-1.39s.09-.96.27-1.39c.18-.43.43-.8.75-1.12.32-.32.69-.57,1.11-.75.42-.18.87-.27,1.36-.27s.94.09,1.36.27c.42.18.79.43,1.11.75.31.32.56.69.74,1.12s.27.89.27,1.39-.09.96-.27,1.39-.43.8-.74,1.12c-.31.32-.68.57-1.11.75-.42.18-.88.27-1.36.27ZM123.2,162.24c.34,0,.65-.05.93-.15.29-.1.53-.25.73-.43.2-.19.36-.42.48-.69.12-.27.18-.57.18-.91s-.06-.64-.18-.91-.27-.5-.48-.69c-.2-.19-.44-.33-.73-.43-.28-.1-.59-.15-.93-.15s-.65.05-.93.15c-.28.1-.53.25-.73.43s-.36.42-.48.69-.17.57-.17.91.06.64.17.91c.12.27.28.5.48.69.2.19.44.33.73.43s.6.15.93.15Z" fill="#fff"/>
    <path d="M119.89,154.94v-1.26h.95v-.03c-.35-.24-.63-.58-.83-1-.2-.42-.29-.86-.29-1.31,0-.51.09-.98.27-1.39.18-.42.42-.77.74-1.06s.69-.52,1.11-.68c.42-.16.88-.24,1.37-.24s.95.08,1.38.24.79.39,1.11.68c.31.29.56.65.73,1.06.18.42.27.88.27,1.39,0,.48-.1.92-.3,1.34-.2.42-.47.74-.82.97v.03h4.9v1.26h-10.58ZM120.89,151.5c0,.34.06.64.17.91.12.27.28.5.48.69.2.19.44.33.73.43.28.1.6.15.93.15s.65-.05.93-.15c.29-.1.53-.25.73-.43.2-.19.36-.42.48-.69.12-.27.18-.57.18-.91s-.06-.64-.18-.91c-.12-.27-.27-.5-.48-.69-.2-.19-.44-.33-.73-.43-.28-.1-.59-.15-.93-.15s-.65.05-.93.15c-.28.1-.53.25-.73.43-.2.19-.36.42-.48.69-.12.27-.17.57-.17.91Z" fill="#fff"/>
    <path d="M115.94,146.29v-1.26h10.58v1.26h-10.58Z" fill="#fff"/>
    <path d="M123.67,142.08c.29,0,.55-.06.79-.19.24-.13.44-.29.61-.5.17-.21.3-.44.39-.71.09-.27.14-.55.14-.84,0-.39-.09-.73-.27-1.02-.18-.29-.42-.56-.72-.8l.73-.95c.91.7,1.36,1.68,1.36,2.94,0,.52-.09,1-.27,1.42-.18.42-.42.78-.73,1.08-.31.29-.68.52-1.11.68s-.88.24-1.38.24-.95-.09-1.38-.26-.79-.41-1.11-.71c-.31-.3-.56-.67-.73-1.08-.18-.42-.27-.88-.27-1.37,0-.59.1-1.08.31-1.49.21-.41.47-.74.81-1,.33-.26.7-.45,1.12-.57.42-.12.84-.18,1.27-.18h.45v5.32ZM122.66,138.1c-.28,0-.54.05-.77.13-.23.08-.44.2-.61.36-.17.16-.31.36-.41.6-.1.24-.15.52-.15.83s.06.59.17.85c.12.26.27.47.46.65.19.18.39.31.62.41.23.1.46.15.68.15v-3.98Z" fill="#fff"/>
  </g>
  <g>
    <path d="M63.54,214.71h4.89c.15.24.28.52.39.83.11.31.21.63.29.96.08.33.14.67.17,1.01.04.34.06.66.06.96,0,.84-.14,1.59-.42,2.25-.28.66-.66,1.21-1.13,1.67-.48.45-1.03.8-1.66,1.04-.63.24-1.29.36-2,.36-.74,0-1.42-.13-2.06-.38-.63-.26-1.19-.61-1.65-1.06-.47-.45-.83-1-1.1-1.63-.27-.63-.4-1.33-.4-2.09,0-.91.11-1.66.34-2.24.23-.58.54-1.06.94-1.46l1.02.95c-.39.41-.67.85-.82,1.3-.15.46-.23.94-.23,1.44,0,.57.1,1.08.31,1.54.21.46.49.85.85,1.18.35.33.77.58,1.25.76.48.18.99.27,1.53.27s1.08-.1,1.56-.29c.48-.2.9-.47,1.25-.81.35-.35.63-.75.83-1.22s.3-.97.3-1.53c0-.48-.04-.93-.13-1.35-.09-.42-.22-.79-.38-1.08h-2.76v2.2h-1.26v-3.54Z" fill="#231f20"/>
    <path d="M66.23,211.63c.29,0,.55-.06.79-.19.24-.13.44-.29.61-.5s.3-.44.39-.71.14-.55.14-.84c0-.39-.09-.73-.27-1.02-.18-.29-.42-.55-.72-.8l.73-.95c.91.7,1.36,1.68,1.36,2.94,0,.52-.09,1-.27,1.42-.18.42-.42.78-.73,1.08-.31.29-.68.52-1.11.68-.42.16-.88.24-1.38.24s-.95-.09-1.38-.26-.79-.41-1.11-.71c-.31-.3-.56-.66-.73-1.08-.18-.42-.27-.88-.27-1.37,0-.59.1-1.08.31-1.49.21-.41.47-.74.81-1,.33-.26.7-.45,1.12-.57.42-.12.84-.17,1.27-.17h.45v5.32ZM65.22,207.65c-.28,0-.54.05-.77.13-.23.08-.44.2-.61.36-.17.16-.31.36-.41.59s-.15.52-.15.83.06.59.17.85c.12.26.27.47.46.65.19.18.39.31.62.41.23.1.46.15.68.15v-3.98Z" fill="#231f20"/>
    <path d="M62.45,204.79v-1.26h1.02v-.03c-.35-.16-.64-.43-.86-.83-.22-.39-.33-.84-.33-1.36,0-.32.05-.62.15-.92.1-.29.25-.55.46-.77.21-.22.47-.39.79-.53.32-.13.7-.2,1.14-.2h4.27v1.26h-3.92c-.31,0-.57.04-.79.13s-.4.2-.53.34c-.14.14-.23.3-.29.48-.06.18-.09.37-.09.57,0,.26.04.5.13.73s.22.42.4.59.41.3.69.39c.28.09.61.14.99.14h3.42v1.26h-6.64Z" fill="#231f20"/>
    <path d="M66.23,196.06c.29,0,.55-.06.79-.19.24-.13.44-.29.61-.5.17-.21.3-.44.39-.71.09-.27.14-.55.14-.84,0-.39-.09-.73-.27-1.02-.18-.29-.42-.56-.72-.8l.73-.95c.91.7,1.36,1.68,1.36,2.94,0,.52-.09,1-.27,1.42-.18.42-.42.78-.73,1.08-.31.29-.68.52-1.11.68s-.88.24-1.38.24-.95-.09-1.38-.26-.79-.41-1.11-.71c-.31-.3-.56-.67-.73-1.08-.18-.42-.27-.88-.27-1.37,0-.59.1-1.08.31-1.49.21-.41.47-.74.81-1,.33-.26.7-.45,1.12-.57.42-.12.84-.18,1.27-.18h.45v5.32ZM65.22,192.08c-.28,0-.54.05-.77.13-.23.08-.44.2-.61.36-.17.16-.31.36-.41.6-.1.24-.15.52-.15.83s.06.59.17.85c.12.26.27.47.46.65.19.18.39.31.62.41.23.1.46.15.68.15v-3.98Z" fill="#231f20"/>
    <path d="M62.45,189.22v-1.26h1.02v-.03c-.18-.08-.34-.2-.48-.34-.14-.14-.27-.3-.37-.47-.1-.17-.18-.36-.25-.57-.06-.21-.09-.41-.09-.62s.03-.39.08-.56l1.36.06c-.03.1-.05.21-.07.31-.02.1-.03.21-.03.31,0,.62.17,1.09.52,1.41.35.33.88.49,1.61.49h3.33v1.26h-6.64Z" fill="#231f20"/>
    <path d="M63.26,184.02c-.33-.35-.57-.77-.73-1.23-.16-.47-.25-.93-.25-1.4s.06-.9.18-1.25c.12-.35.28-.64.49-.86.21-.22.44-.39.71-.5.27-.11.54-.16.83-.16h3.39c.23,0,.45,0,.64-.01.2,0,.38-.02.56-.04v1.12c-.34.03-.67.04-1.01.04v.03c.43.28.73.61.91.99s.27.83.27,1.33c0,.31-.04.6-.13.88-.08.28-.21.52-.38.73s-.38.38-.62.5c-.25.12-.53.18-.86.18-.43,0-.79-.1-1.08-.29-.29-.19-.52-.45-.71-.78-.18-.33-.31-.72-.39-1.16-.08-.44-.12-.92-.12-1.42v-.92h-.28c-.17,0-.34.03-.5.1s-.32.16-.46.29-.24.29-.32.49c-.08.2-.12.43-.12.7,0,.24.02.46.07.64.05.18.1.35.18.5.07.15.15.29.24.41.09.12.18.24.27.35l-.78.76ZM65.89,180.46c0,.3.02.6.05.92.03.31.1.6.19.85.09.26.22.47.39.63.17.16.38.24.64.24.38,0,.66-.13.83-.38s.25-.6.25-1.04c0-.35-.06-.64-.18-.88-.12-.24-.27-.44-.46-.59-.19-.15-.39-.26-.62-.32-.23-.07-.46-.1-.68-.1h-.42v.67Z" fill="#231f20"/>
    <path d="M63.54,173.22v1.81h3.01c.19,0,.37,0,.55-.01s.35-.04.49-.1c.15-.06.26-.15.35-.28.09-.13.13-.31.13-.55,0-.15-.01-.3-.04-.46-.03-.16-.08-.3-.15-.43h1.15c.08.15.14.34.18.58.03.24.05.42.05.55,0,.49-.07.86-.2,1.13s-.31.46-.52.59c-.21.13-.46.2-.72.22-.27.02-.53.04-.81.04h-3.46v1.46h-1.09v-1.46h-1.86v-1.26h1.86v-1.81h1.09Z" fill="#231f20"/>
    <path d="M66.23,170.65c.29,0,.55-.06.79-.19.24-.13.44-.29.61-.5.17-.21.3-.44.39-.71.09-.27.14-.55.14-.84,0-.39-.09-.73-.27-1.02-.18-.29-.42-.56-.72-.8l.73-.95c.91.7,1.36,1.68,1.36,2.94,0,.52-.09,1-.27,1.42-.18.42-.42.78-.73,1.08-.31.29-.68.52-1.11.68s-.88.24-1.38.24-.95-.09-1.38-.26-.79-.41-1.11-.71c-.31-.3-.56-.67-.73-1.08-.18-.42-.27-.88-.27-1.37,0-.59.1-1.08.31-1.49.21-.41.47-.74.81-1,.33-.26.7-.45,1.12-.57.42-.12.84-.18,1.27-.18h.45v5.32ZM65.22,166.67c-.28,0-.54.05-.77.13-.23.08-.44.2-.61.36-.17.16-.31.36-.41.6-.1.24-.15.52-.15.83s.06.59.17.85c.12.26.27.47.46.65.19.18.39.31.62.41.23.1.46.15.68.15v-3.98Z" fill="#231f20"/>
    <path d="M78.12,226.22c-.36.28-.64.63-.84,1.06-.2.43-.29.87-.29,1.33,0,.56.1,1.07.31,1.52.21.45.5.84.86,1.16.36.32.79.57,1.28.75.49.18,1.01.27,1.57.27.52,0,1.02-.08,1.48-.25.47-.17.88-.41,1.23-.73.35-.32.63-.7.84-1.16.21-.46.31-.97.31-1.55s-.12-1.07-.35-1.5c-.23-.43-.56-.79-.98-1.09l.85-1.13c.1.07.25.21.44.39.19.19.38.43.57.74.19.31.36.68.5,1.11.14.43.22.94.22,1.5,0,.78-.15,1.49-.45,2.12-.3.63-.69,1.17-1.18,1.61s-1.03.78-1.65,1.02-1.23.35-1.85.35c-.77,0-1.47-.13-2.12-.38-.65-.25-1.21-.6-1.68-1.06s-.84-1-1.1-1.63c-.26-.63-.39-1.33-.39-2.1,0-.65.13-1.29.38-1.92s.64-1.15,1.16-1.55l.85,1.12Z" fill="#231f20"/>
    <path d="M82.57,223.91c-.49,0-.94-.09-1.36-.27-.42-.18-.79-.43-1.11-.75-.32-.32-.57-.69-.75-1.12-.18-.43-.27-.89-.27-1.39s.09-.96.27-1.39c.18-.43.43-.8.75-1.12.32-.32.69-.57,1.11-.75.42-.18.87-.27,1.36-.27s.94.09,1.36.27c.42.18.79.43,1.11.75.31.32.56.69.74,1.12.18.43.27.89.27,1.39s-.09.96-.27,1.39-.43.8-.74,1.12c-.31.32-.68.57-1.11.75-.42.18-.88.27-1.36.27ZM82.57,222.57c.34,0,.65-.05.93-.15.29-.1.53-.25.73-.43.2-.19.36-.42.48-.69.12-.27.18-.57.18-.91s-.06-.64-.18-.91-.27-.5-.48-.69c-.2-.19-.44-.33-.73-.43-.28-.1-.59-.15-.93-.15s-.65.05-.93.15-.53.25-.73.43c-.2.19-.36.42-.48.69s-.17.57-.17.91.06.64.17.91c.12.27.28.5.48.69.2.19.44.33.73.43.28.1.6.15.93.15Z" fill="#231f20"/>
    <path d="M79.25,215.27v-1.18h1.04v-.03c-.09-.03-.21-.1-.35-.22-.14-.12-.27-.27-.4-.45-.13-.18-.23-.4-.32-.64-.09-.25-.13-.52-.13-.82,0-.5.1-.91.31-1.25.21-.34.51-.61.92-.83-.41-.21-.72-.52-.92-.91-.21-.39-.31-.79-.31-1.19,0-.51.08-.93.25-1.26.17-.33.39-.58.66-.77.28-.19.59-.31.94-.38.35-.07.71-.11,1.09-.11h3.86v1.26h-3.7c-.25,0-.49.02-.73.05s-.44.1-.62.2-.32.25-.43.43c-.11.19-.16.43-.16.74,0,.61.19,1.04.56,1.3.37.26.85.39,1.44.39h3.63v1.26h-3.47c-.32,0-.61.02-.87.05-.26.03-.49.1-.68.2-.19.1-.34.24-.45.42s-.16.43-.16.74c0,.22.04.44.13.65.09.21.22.39.4.55.18.16.4.29.68.38.28.09.6.14.97.14h3.44v1.26h-6.64Z" fill="#231f20"/>
    <path d="M79.25,203.34v-1.18h1.04v-.03c-.09-.03-.21-.1-.35-.22-.14-.12-.27-.27-.4-.45-.13-.18-.23-.4-.32-.64-.09-.25-.13-.52-.13-.82,0-.49.1-.91.31-1.25.21-.34.51-.61.92-.83-.41-.21-.72-.52-.92-.91-.21-.39-.31-.79-.31-1.19,0-.51.08-.93.25-1.26.17-.33.39-.58.66-.77.28-.19.59-.31.94-.39.35-.07.71-.1,1.09-.1h3.86v1.26h-3.7c-.25,0-.49.02-.73.05s-.44.1-.62.2-.32.25-.43.43c-.11.19-.16.43-.16.74,0,.61.19,1.04.56,1.3.37.26.85.39,1.44.39h3.63v1.26h-3.47c-.32,0-.61.02-.87.05-.26.03-.49.1-.68.2-.19.1-.34.24-.45.42s-.16.43-.16.73c0,.22.04.44.13.65.09.21.22.39.4.55.18.16.4.28.68.38s.6.14.97.14h3.44v1.26h-6.64Z" fill="#231f20"/>
    <path d="M85.89,185.54v1.26h-1.02v.03c.35.16.64.43.86.83.22.39.33.84.33,1.36,0,.33-.05.63-.15.92-.1.29-.25.54-.46.76-.21.22-.47.39-.79.52-.32.13-.7.2-1.14.2h-4.27v-1.26h3.92c.31,0,.57-.04.79-.13s.4-.2.53-.34c.14-.14.23-.3.29-.48.06-.18.09-.37.09-.57,0-.26-.04-.5-.13-.73-.08-.22-.22-.42-.4-.59-.18-.17-.41-.3-.69-.39-.28-.09-.61-.14-.99-.14h-3.42v-1.26h6.64Z" fill="#231f20"/>
    <path d="M79.25,183.63v-1.26h1.02v-.03c-.35-.16-.64-.43-.86-.83-.22-.39-.33-.84-.33-1.36,0-.32.05-.62.15-.92.1-.29.25-.55.46-.77.21-.22.47-.39.79-.53.32-.13.7-.2,1.14-.2h4.27v1.26h-3.92c-.31,0-.57.04-.79.13s-.4.2-.53.34c-.14.14-.23.3-.29.48-.06.18-.09.37-.09.57,0,.26.04.5.13.73s.22.42.4.59.41.3.69.39c.28.09.61.14.99.14h3.42v1.26h-6.64Z" fill="#231f20"/>
    <path d="M76.87,176.04c-.25,0-.47-.09-.65-.27-.18-.18-.27-.4-.27-.65s.09-.47.27-.65.4-.27.65-.27.47.09.65.27c.18.18.27.4.27.65s-.09.47-.27.65-.4.27-.65.27ZM79.25,175.75v-1.26h6.64v1.26h-6.64Z" fill="#231f20"/>
    <path d="M80.34,168.93v1.81h3.01c.19,0,.37,0,.55-.01s.35-.04.49-.1c.15-.06.26-.15.35-.28.09-.13.13-.31.13-.55,0-.15-.01-.3-.04-.46-.03-.16-.08-.3-.15-.43h1.15c.08.15.14.34.18.58.03.24.05.42.05.55,0,.49-.07.86-.2,1.13s-.31.46-.52.59c-.21.13-.46.2-.72.22-.27.02-.53.04-.81.04h-3.46v1.46h-1.09v-1.46h-1.86v-1.26h1.86v-1.81h1.09Z" fill="#231f20"/>
    <path d="M76.87,167.5c-.25,0-.47-.09-.65-.27-.18-.18-.27-.4-.27-.65s.09-.47.27-.65.4-.27.65-.27.47.09.65.27c.18.18.27.4.27.65s-.09.47-.27.65-.4.27-.65.27ZM79.25,167.21v-1.26h6.64v1.26h-6.64Z" fill="#231f20"/>
    <path d="M83.03,163c.29,0,.55-.06.79-.19.24-.13.44-.29.61-.5.17-.21.3-.44.39-.71.09-.27.14-.55.14-.84,0-.39-.09-.73-.27-1.02-.18-.29-.42-.56-.72-.8l.73-.95c.91.7,1.36,1.68,1.36,2.94,0,.52-.09,1-.27,1.42-.18.42-.42.78-.73,1.08-.31.29-.68.52-1.11.68s-.88.24-1.38.24-.95-.09-1.38-.26-.79-.41-1.11-.71c-.31-.3-.56-.67-.73-1.08-.18-.42-.27-.88-.27-1.37,0-.59.1-1.08.31-1.49.21-.41.47-.74.81-1,.33-.26.7-.45,1.12-.57.42-.12.84-.18,1.27-.18h.45v5.32ZM82.02,159.02c-.28,0-.54.05-.77.13-.23.08-.44.2-.61.36-.17.16-.31.36-.41.6-.1.24-.15.52-.15.83s.06.59.17.85c.12.26.27.47.46.65.19.18.39.31.62.41.23.1.46.15.68.15v-3.98Z" fill="#231f20"/>
    <path d="M80.92,152.64c-.19.15-.34.33-.47.55s-.19.49-.19.8c0,.3.06.56.19.78.13.22.31.33.55.33.2,0,.35-.06.48-.19.12-.13.22-.27.29-.45.08-.17.13-.36.17-.55.04-.2.07-.36.1-.5.07-.27.15-.52.24-.76.09-.24.21-.44.36-.62.15-.17.33-.31.55-.41.21-.1.48-.15.78-.15.37,0,.69.08.96.24s.48.36.65.62.29.54.36.86c.07.32.11.65.11.97,0,.55-.08,1.03-.25,1.45s-.48.79-.92,1.11l-.78-.95c.21-.21.39-.43.55-.69.16-.25.24-.56.24-.92,0-.16-.02-.32-.05-.48-.03-.16-.08-.31-.15-.43s-.16-.23-.27-.31c-.11-.08-.23-.12-.37-.12-.19,0-.34.06-.46.17-.12.12-.22.26-.29.42-.07.16-.13.34-.17.52s-.08.34-.1.48c-.06.27-.14.53-.22.77-.08.24-.2.46-.34.64-.14.19-.32.34-.53.45-.21.11-.48.17-.8.17-.35,0-.65-.07-.9-.22-.26-.14-.47-.34-.64-.57-.17-.24-.29-.51-.38-.81s-.13-.61-.13-.92c0-.45.08-.88.25-1.29.17-.41.45-.74.84-.98l.74.98Z" fill="#231f20"/>
  </g>
  <g>
    <path d="M32.78,218.06v-3.46c0-.7.08-1.31.24-1.84s.37-.98.64-1.37.57-.71.92-.97c.35-.26.7-.46,1.06-.61.36-.15.73-.26,1.09-.32.36-.06.7-.1,1.01-.1.63,0,1.25.12,1.84.35.59.23,1.12.58,1.58,1.04.46.46.83,1.02,1.11,1.7.28.68.42,1.46.42,2.34v3.23h-9.91ZM41.44,216.71v-1.69c0-.57-.08-1.11-.23-1.62-.15-.51-.38-.96-.69-1.34s-.69-.69-1.15-.91c-.46-.22-1-.34-1.62-.34-.32,0-.69.05-1.11.15-.42.1-.83.3-1.21.58-.38.29-.71.68-.97,1.18s-.4,1.16-.4,1.96v2.02h7.39Z" fill="#231f20"/>
    <path d="M39.38,208.1c-.49,0-.94-.09-1.36-.27-.42-.18-.79-.43-1.11-.75-.32-.32-.57-.69-.75-1.12-.18-.43-.27-.89-.27-1.39s.09-.96.27-1.38c.18-.43.43-.8.75-1.12.32-.32.69-.57,1.11-.75.42-.18.87-.27,1.36-.27s.94.09,1.36.27c.42.18.79.43,1.11.75.31.32.56.69.74,1.12.18.43.27.89.27,1.38s-.09.96-.27,1.39-.43.8-.74,1.12c-.31.32-.68.57-1.11.75-.42.18-.88.27-1.36.27ZM39.38,206.76c.34,0,.65-.05.93-.15.29-.1.53-.25.73-.43.2-.19.36-.42.48-.69.12-.27.18-.57.18-.91s-.06-.64-.18-.91-.27-.5-.48-.69c-.2-.19-.44-.33-.73-.43-.28-.1-.59-.15-.93-.15s-.65.05-.93.15c-.28.1-.53.25-.73.43-.2.19-.36.42-.48.69s-.17.57-.17.91.06.64.17.91c.12.27.28.5.48.69s.44.33.73.43c.28.1.6.15.93.15Z" fill="#231f20"/>
    <path d="M36.06,199.47v-1.18h1.04v-.03c-.09-.03-.21-.1-.35-.22-.14-.12-.27-.27-.4-.45-.13-.18-.23-.4-.32-.64-.09-.25-.13-.52-.13-.82,0-.49.1-.91.31-1.25.21-.34.51-.61.92-.83-.41-.21-.72-.52-.92-.91-.21-.39-.31-.79-.31-1.19,0-.51.08-.93.25-1.26.17-.33.39-.58.66-.77.28-.19.59-.31.94-.39.35-.07.71-.1,1.09-.1h3.86v1.26h-3.7c-.25,0-.49.02-.73.05s-.44.1-.62.2-.32.25-.43.43c-.11.19-.16.43-.16.74,0,.61.19,1.04.56,1.3.37.26.85.39,1.44.39h3.63v1.26h-3.47c-.32,0-.61.02-.87.05-.26.03-.49.1-.68.2-.19.1-.34.24-.45.42s-.16.43-.16.73c0,.22.04.44.13.65.09.21.22.39.4.55.18.16.4.28.68.38s.6.14.97.14h3.44v1.26h-6.64Z" fill="#231f20"/>
    <path d="M36.87,187.51c-.33-.35-.57-.77-.73-1.23-.16-.47-.25-.93-.25-1.4s.06-.9.18-1.25c.12-.35.28-.64.49-.86.21-.22.44-.39.71-.5.27-.11.54-.16.83-.16h3.39c.23,0,.45,0,.64-.01.2,0,.38-.02.56-.04v1.12c-.34.03-.67.04-1.01.04v.03c.43.28.73.61.91.99s.27.83.27,1.33c0,.31-.04.6-.13.88-.08.28-.21.52-.38.73s-.38.38-.62.5c-.25.12-.53.18-.86.18-.43,0-.79-.1-1.08-.29-.29-.19-.52-.45-.71-.78-.18-.33-.31-.72-.39-1.16-.08-.44-.12-.92-.12-1.42v-.92h-.28c-.17,0-.34.03-.5.1s-.32.16-.46.29-.24.29-.32.49c-.08.2-.12.43-.12.7,0,.24.02.46.07.64.05.18.1.35.18.5.07.15.15.29.24.41.09.12.18.24.27.35l-.78.76ZM39.5,183.95c0,.3.02.6.05.92.03.31.1.6.19.85.09.26.22.47.39.63.17.16.38.24.64.24.38,0,.66-.13.83-.38s.25-.6.25-1.04c0-.35-.06-.64-.18-.88-.12-.24-.27-.44-.46-.59-.19-.15-.39-.26-.62-.32-.23-.07-.46-.1-.68-.1h-.42v.67Z" fill="#231f20"/>
    <path d="M33.68,180.47c-.25,0-.47-.09-.65-.27-.18-.18-.27-.4-.27-.65s.09-.47.27-.65.4-.27.65-.27.47.09.65.27c.18.18.27.4.27.65s-.09.47-.27.65-.4.27-.65.27ZM36.06,180.17v-1.26h6.64v1.26h-6.64Z" fill="#231f20"/>
    <path d="M36.06,176.91v-1.26h1.02v-.03c-.35-.16-.64-.43-.86-.83-.22-.39-.33-.84-.33-1.36,0-.32.05-.62.15-.92.1-.29.25-.55.46-.77.21-.22.47-.39.79-.53.32-.13.7-.2,1.14-.2h4.27v1.26h-3.92c-.31,0-.57.04-.79.13s-.4.2-.53.34c-.14.14-.23.3-.29.48-.06.18-.09.37-.09.57,0,.26.04.5.13.73s.22.42.4.59.41.3.69.39c.28.09.61.14.99.14h3.42v1.26h-6.64Z" fill="#231f20"/>
  </g>
</svg>