<?xml version="1.0" encoding="UTF-8"?>
<svg id="Layer_1" data-name="Layer 1" xmlns="http://www.w3.org/2000/svg" viewBox="0 0 194.44 388.87">
  <polygon points=".35 194.44 65.52 259.6 65.52 129.27 .35 194.44" fill="#f4774c" stroke="#231f20" stroke-miterlimit="10" stroke-width=".5"/>
  <polygon points="129.53 65.27 65.52 129.27 65.52 259.6 129.53 323.61 129.53 65.27" fill="#f79a6f" stroke="#231f20" stroke-miterlimit="10" stroke-width=".5"/>
  <polygon points="194.19 .6 129.53 65.27 129.53 323.61 194.19 388.27 194.19 .6" fill="#fcbf91" stroke="#231f20" stroke-miterlimit="10" stroke-width=".5"/>
  <g>
    <path d="M49.77,215.7c0,.76-.13,1.45-.4,2.09s-.63,1.18-1.1,1.63c-.47.45-1.02.81-1.65,1.06s-1.32.38-2.06.38-1.42-.13-2.06-.38c-.63-.26-1.19-.61-1.65-1.06-.47-.45-.83-1-1.1-1.63-.27-.63-.4-1.33-.4-2.09s.13-1.45.4-2.09c.27-.63.63-1.18,1.1-1.63s1.02-.81,1.65-1.06c.63-.26,1.32-.38,2.06-.38s1.42.13,2.06.38c.63.26,1.19.61,1.65,1.06.47.45.83,1,1.1,1.63s.4,1.33.4,2.09ZM48.51,215.7c0-.57-.1-1.08-.32-1.54-.21-.46-.49-.85-.85-1.18s-.77-.58-1.25-.76c-.48-.18-.99-.27-1.53-.27s-1.05.09-1.53.27c-.48.18-.9.43-1.25.76-.35.33-.64.72-.85,1.18-.21.46-.31.97-.31,1.54s.1,1.08.31,1.54c.21.46.49.85.85,1.18.35.33.77.58,1.25.76.48.18.99.27,1.53.27s1.05-.09,1.53-.27c.48-.18.9-.43,1.25-.76.35-.33.64-.72.85-1.18.21-.46.32-.97.32-1.54Z" fill="#fff"/>
    <path d="M38.94,208.92v-1.26h4.9v-.03c-.35-.22-.62-.54-.82-.96s-.3-.87-.3-1.34c0-.51.09-.98.27-1.39.18-.42.42-.77.73-1.06.31-.29.68-.52,1.11-.68s.88-.24,1.38-.24.95.08,1.37.24c.42.16.79.39,1.11.68.32.29.56.65.74,1.06s.27.88.27,1.39c0,.45-.1.88-.29,1.31-.2.42-.47.76-.83,1v.03h.95v1.26h-10.58ZM48.51,205.48c0-.34-.06-.64-.18-.91s-.27-.5-.48-.69c-.2-.19-.44-.33-.73-.43-.28-.1-.59-.15-.93-.15s-.65.05-.93.15c-.28.1-.53.25-.73.43-.2.19-.36.42-.48.69s-.17.57-.17.91.06.64.17.91.28.5.48.69c.2.19.44.33.73.43.28.1.6.15.93.15s.65-.05.93-.15c.29-.1.53-.25.73-.43.2-.19.36-.42.48-.69s.18-.57.18-.91Z" fill="#fff"/>
    <path d="M44.55,196.84c-.19.15-.34.33-.47.55s-.19.49-.19.8c0,.3.06.56.19.78.13.22.31.33.55.33.2,0,.35-.06.48-.19.12-.13.22-.27.29-.45.08-.17.13-.36.17-.55.04-.2.07-.36.1-.5.07-.27.15-.52.24-.76.09-.24.21-.44.36-.62.15-.17.33-.31.55-.41.21-.1.48-.15.78-.15.37,0,.69.08.96.24s.48.36.65.62.29.54.36.86c.07.32.11.65.11.97,0,.55-.08,1.03-.25,1.45s-.48.79-.92,1.11l-.78-.95c.21-.21.39-.43.55-.69.16-.25.24-.56.24-.92,0-.16-.02-.32-.05-.48-.03-.16-.08-.31-.15-.43s-.16-.23-.27-.31c-.11-.08-.23-.12-.37-.12-.19,0-.34.06-.46.17-.12.12-.22.26-.29.42-.07.16-.13.34-.17.52s-.08.34-.1.48c-.06.27-.14.53-.22.77-.08.24-.2.46-.34.64-.14.19-.32.34-.53.45-.21.11-.48.17-.8.17-.35,0-.65-.07-.9-.22-.26-.14-.47-.34-.64-.57-.17-.24-.29-.51-.38-.81s-.13-.61-.13-.92c0-.45.08-.88.25-1.29.17-.41.45-.74.84-.98l.74.98Z" fill="#fff"/>
    <path d="M46.67,193.2c.29,0,.55-.06.79-.19.24-.13.44-.29.61-.5.17-.21.3-.44.39-.71.09-.27.14-.55.14-.84,0-.39-.09-.73-.27-1.02-.18-.29-.42-.56-.72-.8l.73-.95c.91.7,1.36,1.68,1.36,2.94,0,.52-.09,1-.27,1.42-.18.42-.42.78-.73,1.08-.31.29-.68.52-1.11.68s-.88.24-1.38.24-.95-.09-1.38-.26-.79-.41-1.11-.71c-.31-.3-.56-.67-.73-1.08-.18-.42-.27-.88-.27-1.37,0-.59.1-1.08.31-1.49.21-.41.47-.74.81-1,.33-.26.7-.45,1.12-.57.42-.12.84-.18,1.27-.18h.45v5.32ZM45.66,189.22c-.28,0-.54.05-.77.13-.23.08-.44.2-.61.36-.17.16-.31.36-.41.6-.1.24-.15.52-.15.83s.06.59.17.85c.12.26.27.47.46.65.19.18.39.31.62.41.23.1.46.15.68.15v-3.98Z" fill="#fff"/>
    <path d="M42.89,186.37v-1.26h1.02v-.03c-.18-.08-.34-.2-.48-.34-.14-.14-.27-.3-.37-.47-.1-.17-.18-.36-.25-.57-.06-.21-.09-.41-.09-.62s.03-.39.08-.56l1.36.06c-.03.1-.05.21-.07.31-.02.1-.03.21-.03.31,0,.62.17,1.09.52,1.41.35.33.88.49,1.61.49h3.33v1.26h-6.64Z" fill="#fff"/>
    <path d="M42.89,181.99v-1.46l5.08-1.99-5.08-1.9v-1.34l6.64,2.6v1.39l-6.64,2.7Z" fill="#fff"/>
    <path d="M46.67,173.24c.29,0,.55-.06.79-.19.24-.13.44-.29.61-.5.17-.21.3-.44.39-.71.09-.27.14-.55.14-.84,0-.39-.09-.73-.27-1.02-.18-.29-.42-.56-.72-.8l.73-.95c.91.7,1.36,1.68,1.36,2.94,0,.52-.09,1-.27,1.42-.18.42-.42.78-.73,1.08-.31.29-.68.52-1.11.68s-.88.24-1.38.24-.95-.09-1.38-.26-.79-.41-1.11-.71c-.31-.3-.56-.67-.73-1.08-.18-.42-.27-.88-.27-1.37,0-.59.1-1.08.31-1.49.21-.41.47-.74.81-1,.33-.26.7-.45,1.12-.57.42-.12.84-.18,1.27-.18h.45v5.32ZM45.66,169.26c-.28,0-.54.05-.77.13-.23.08-.44.2-.61.36-.17.16-.31.36-.41.6-.1.24-.15.52-.15.83s.06.59.17.85c.12.26.27.47.46.65.19.18.39.31.62.41.23.1.46.15.68.15v-3.98Z" fill="#fff"/>
  </g>
  <g>
    <path d="M90.8,211.96v-1.34h8.65v-4.55h1.26v5.89h-9.91Z" fill="#231f20"/>
    <path d="M91.69,205.21c-.25,0-.47-.09-.65-.27-.18-.18-.27-.4-.27-.65s.09-.47.27-.65.4-.27.65-.27.47.09.65.27c.18.18.27.4.27.65s-.09.47-.27.65c-.18.18-.4.27-.65.27ZM94.07,204.92v-1.26h6.64v1.26h-6.64Z" fill="#231f20"/>
    <path d="M95.74,198.13c-.19.15-.34.33-.47.55s-.19.49-.19.8c0,.3.06.56.19.78.13.22.31.33.55.33.2,0,.35-.06.48-.19.12-.13.22-.27.29-.45.08-.17.13-.36.17-.55.04-.2.07-.36.1-.5.07-.27.15-.52.24-.76.09-.24.21-.44.36-.62.15-.17.33-.31.55-.41.21-.1.48-.15.78-.15.37,0,.69.08.96.24s.48.36.65.62.29.54.36.86c.07.32.11.65.11.97,0,.55-.08,1.03-.25,1.45s-.48.79-.92,1.11l-.78-.95c.21-.21.39-.43.55-.69.16-.25.24-.56.24-.92,0-.16-.02-.32-.05-.48-.03-.16-.08-.31-.15-.43s-.16-.23-.27-.31c-.11-.08-.23-.12-.37-.12-.19,0-.34.06-.46.17-.12.12-.22.26-.29.42-.07.16-.13.34-.17.52s-.08.34-.1.48c-.06.27-.14.53-.22.77-.08.24-.2.46-.34.64-.14.19-.32.34-.53.45-.21.11-.48.17-.8.17-.35,0-.65-.07-.9-.22-.26-.14-.47-.34-.64-.57-.17-.24-.29-.51-.38-.81s-.13-.61-.13-.92c0-.45.08-.88.25-1.29.17-.41.45-.74.84-.98l.74.98Z" fill="#231f20"/>
    <path d="M95.16,191.88v1.81h3.01c.19,0,.37,0,.55-.01s.35-.04.49-.1c.15-.06.26-.15.35-.28.09-.13.13-.31.13-.55,0-.15-.01-.3-.04-.46-.03-.16-.08-.3-.15-.43h1.15c.08.15.14.34.18.58.03.24.05.42.05.55,0,.49-.07.86-.2,1.13s-.31.46-.52.59c-.21.13-.46.2-.72.22-.27.02-.53.04-.81.04h-3.46v1.46h-1.09v-1.46h-1.86v-1.26h1.86v-1.81h1.09Z" fill="#231f20"/>
    <path d="M97.85,189.31c.29,0,.55-.06.79-.19.24-.13.44-.29.61-.5.17-.21.3-.44.39-.71.09-.27.14-.55.14-.84,0-.39-.09-.73-.27-1.02-.18-.29-.42-.56-.72-.8l.73-.95c.91.7,1.36,1.68,1.36,2.94,0,.52-.09,1-.27,1.42-.18.42-.42.78-.73,1.08-.31.29-.68.52-1.11.68s-.88.24-1.38.24-.95-.09-1.38-.26-.79-.41-1.11-.71c-.31-.3-.56-.67-.73-1.08-.18-.42-.27-.88-.27-1.37,0-.59.1-1.08.31-1.49.21-.41.47-.74.81-1,.33-.26.7-.45,1.12-.57.42-.12.84-.18,1.27-.18h.45v5.32ZM96.84,185.33c-.28,0-.54.05-.77.13-.23.08-.44.2-.61.36-.17.16-.31.36-.41.6-.1.24-.15.52-.15.83s.06.59.17.85c.12.26.27.47.46.65.19.18.39.31.62.41.23.1.46.15.68.15v-3.98Z" fill="#231f20"/>
    <path d="M94.07,182.48v-1.26h1.02v-.03c-.35-.16-.64-.43-.86-.83-.22-.39-.33-.84-.33-1.36,0-.32.05-.62.15-.92.1-.29.25-.55.46-.77.21-.22.47-.39.79-.53.32-.13.7-.2,1.14-.2h4.27v1.26h-3.92c-.31,0-.57.04-.79.13s-.4.2-.53.34c-.14.14-.23.3-.29.48-.06.18-.09.37-.09.57,0,.26.04.5.13.73s.22.42.4.59.41.3.69.39c.28.09.61.14.99.14h3.42v1.26h-6.64Z" fill="#231f20"/>
  </g>
  <g>
    <path d="M159.35,256.56c.36-.24.63-.55.8-.93.17-.38.26-.77.26-1.17,0-.22-.04-.45-.1-.69-.07-.23-.18-.45-.32-.64-.14-.19-.31-.35-.52-.47-.21-.12-.44-.18-.71-.18-.38,0-.67.12-.88.36-.2.24-.37.54-.5.9s-.27.75-.39,1.18c-.13.42-.3.82-.52,1.18s-.52.66-.9.9c-.38.24-.89.37-1.53.37-.29,0-.6-.06-.92-.19s-.63-.32-.9-.6c-.27-.27-.5-.62-.68-1.04-.18-.42-.27-.94-.27-1.53,0-.54.07-1.06.22-1.55.15-.5.45-.93.91-1.3l.99,1.09c-.26.17-.47.41-.63.71-.16.31-.24.66-.24,1.05s.05.68.15.93c.1.25.22.45.38.6.15.15.32.25.5.31s.34.09.49.09c.42,0,.74-.12.97-.36.22-.24.41-.54.55-.9.14-.36.27-.75.38-1.18.11-.43.27-.82.47-1.18.2-.36.47-.66.81-.9.34-.24.81-.36,1.41-.36.48,0,.91.09,1.29.27.38.18.7.43.97.73s.46.67.6,1.09.21.87.21,1.34c0,.63-.11,1.24-.34,1.81s-.57,1.02-1.04,1.36l-.95-1.11Z" fill="#231f20"/>
    <path d="M158.57,248.44c.29,0,.55-.06.79-.19.24-.13.44-.29.61-.5s.3-.44.39-.71.14-.55.14-.84c0-.39-.09-.73-.27-1.02-.18-.29-.42-.55-.72-.8l.73-.95c.91.7,1.36,1.68,1.36,2.94,0,.52-.09,1-.27,1.42-.18.42-.42.78-.73,1.08-.31.29-.68.52-1.11.68-.42.16-.88.24-1.38.24s-.95-.09-1.38-.26-.79-.41-1.11-.71c-.31-.3-.56-.66-.73-1.08-.18-.42-.27-.88-.27-1.37,0-.59.1-1.08.31-1.49.21-.41.47-.74.81-1,.33-.26.7-.45,1.12-.57.42-.12.84-.17,1.27-.17h.45v5.32ZM157.56,244.46c-.28,0-.54.05-.77.13-.23.08-.44.2-.61.36-.17.16-.31.36-.41.59s-.15.52-.15.83.06.59.17.85c.12.26.27.47.46.65.19.18.39.31.62.41.23.1.46.15.68.15v-3.98Z" fill="#231f20"/>
    <path d="M156.55,236.86c-.24.23-.43.48-.55.74s-.19.56-.19.92.06.65.19.9c.13.26.3.47.52.64.22.17.47.3.76.39.28.09.58.13.89.13s.6-.05.88-.15c.28-.1.52-.25.72-.43.21-.19.37-.41.48-.67.12-.26.18-.55.18-.88,0-.35-.06-.66-.19-.91-.13-.25-.31-.49-.55-.7l.9-.9c.36.33.63.71.78,1.14.16.43.24.89.24,1.38,0,.51-.08.98-.25,1.41-.17.43-.4.79-.71,1.1-.3.31-.67.55-1.09.71s-.89.25-1.41.25-.98-.08-1.41-.25c-.43-.17-.8-.4-1.11-.71s-.55-.67-.72-1.09c-.17-.42-.26-.9-.26-1.42,0-.49.09-.95.26-1.39.17-.44.44-.83.79-1.16l.87.95Z" fill="#231f20"/>
    <path d="M158.11,235.18c-.49,0-.94-.09-1.36-.27-.42-.18-.79-.43-1.11-.75-.32-.32-.57-.69-.75-1.12-.18-.43-.27-.89-.27-1.39s.09-.96.27-1.39c.18-.43.43-.8.75-1.12.32-.32.69-.57,1.11-.75.42-.18.87-.27,1.36-.27s.94.09,1.36.27c.42.18.79.43,1.11.75.31.32.56.69.74,1.12s.27.89.27,1.39-.09.96-.27,1.39c-.18.43-.43.8-.74,1.12-.31.32-.68.57-1.11.75-.42.18-.88.27-1.36.27ZM158.11,233.83c.34,0,.65-.05.93-.15.29-.1.53-.25.73-.43.2-.19.36-.41.48-.69.12-.27.18-.57.18-.91s-.06-.64-.18-.91c-.12-.27-.27-.5-.48-.69-.2-.19-.44-.33-.73-.43-.28-.1-.59-.15-.93-.15s-.65.05-.93.15c-.28.1-.53.25-.73.43s-.36.42-.48.69c-.12.27-.17.57-.17.91s.06.64.17.91c.12.27.28.5.48.69.2.19.44.33.73.43s.6.15.93.15Z" fill="#231f20"/>
    <path d="M154.79,226.54v-1.26h1.02v-.03c-.35-.16-.64-.43-.86-.83-.22-.39-.33-.84-.33-1.36,0-.32.05-.62.15-.92.1-.29.25-.55.46-.77.21-.22.47-.39.79-.53.32-.13.7-.2,1.14-.2h4.27v1.26h-3.92c-.31,0-.57.04-.79.13s-.4.2-.53.34c-.14.14-.23.3-.29.48-.06.18-.09.37-.09.57,0,.26.04.5.13.73.08.22.22.42.4.59s.41.3.69.39c.28.09.61.14.99.14h3.42v1.26h-6.64Z" fill="#231f20"/>
    <path d="M161.42,212.11v1.26h-.95v.03c.35.24.63.58.83,1s.29.86.29,1.31c0,.51-.09.98-.27,1.39-.18.42-.42.77-.74,1.06-.32.29-.69.52-1.11.68-.42.16-.88.24-1.37.24s-.95-.08-1.38-.24c-.42-.16-.79-.38-1.11-.68-.31-.29-.56-.65-.73-1.06-.18-.42-.27-.88-.27-1.39,0-.48.1-.92.3-1.34s.47-.74.82-.97v-.03h-4.9v-1.26h10.58ZM160.42,215.55c0-.34-.06-.64-.18-.91s-.27-.5-.48-.69c-.2-.19-.44-.33-.73-.43-.28-.1-.59-.15-.93-.15s-.65.05-.93.15-.53.25-.73.43c-.2.19-.36.42-.48.69s-.17.57-.17.91.06.64.17.91c.12.27.28.5.48.69.2.19.44.33.73.43.28.1.6.15.93.15s.65-.05.93-.15c.29-.1.53-.25.73-.43.2-.19.36-.42.48-.69.12-.27.18-.57.18-.91Z" fill="#231f20"/>
    <path d="M155.6,210.17c-.33-.35-.57-.76-.73-1.23-.16-.47-.25-.93-.25-1.4s.06-.9.18-1.25c.12-.35.28-.64.49-.86.21-.22.44-.39.71-.5.27-.11.54-.16.83-.16h3.39c.23,0,.45,0,.64-.01.2,0,.38-.02.56-.04v1.12c-.34.03-.67.04-1.01.04v.03c.43.28.73.61.91.99s.27.83.27,1.33c0,.31-.04.6-.13.88-.08.28-.21.52-.38.73s-.38.38-.62.5c-.25.12-.53.18-.86.18-.43,0-.79-.1-1.08-.29-.29-.19-.52-.45-.71-.79-.18-.33-.31-.72-.39-1.16-.08-.44-.12-.92-.12-1.42v-.92h-.28c-.17,0-.34.03-.5.1s-.32.16-.46.29-.24.29-.32.49c-.08.2-.12.43-.12.7,0,.24.02.46.07.64.05.18.1.35.18.5.07.15.15.29.24.41.09.12.18.24.27.35l-.78.76ZM158.23,206.62c0,.3.02.6.05.92.03.31.1.6.19.85.09.26.22.47.39.63.17.16.38.25.64.25.38,0,.66-.13.83-.38s.25-.6.25-1.04c0-.34-.06-.64-.18-.88-.12-.24-.27-.44-.46-.59-.19-.15-.39-.26-.62-.32-.23-.07-.46-.1-.68-.1h-.42v.67Z" fill="#231f20"/>
    <path d="M154.79,202.94v-1.26h1.02v-.03c-.18-.08-.34-.2-.48-.34-.14-.14-.27-.3-.37-.47-.1-.17-.18-.36-.25-.57-.06-.21-.09-.41-.09-.62s.03-.39.08-.56l1.36.06c-.03.1-.05.21-.07.31-.02.1-.03.21-.03.31,0,.62.17,1.09.52,1.41.35.33.88.49,1.61.49h3.33v1.26h-6.64Z" fill="#231f20"/>
    <path d="M154.79,198.54v-1.46l5.18-1.96v-.03l-5.18-1.88v-1.34l8.06,3.15c.29.11.55.23.79.35.24.12.44.26.61.43.17.17.3.37.39.61.09.24.14.53.14.87,0,.19-.01.37-.03.56-.02.19-.07.37-.15.55l-1.15-.15c.1-.25.15-.5.15-.75,0-.19-.03-.36-.08-.49-.05-.13-.13-.25-.22-.35-.1-.1-.21-.18-.34-.24-.13-.06-.28-.13-.45-.19l-1.05-.41-6.68,2.75Z" fill="#231f20"/>
    <path d="M151.51,186.54v-3.49c0-.63.09-1.16.26-1.57.17-.41.39-.73.66-.97.27-.24.56-.4.9-.5.33-.09.65-.14.96-.14s.62.06.92.17.56.27.8.48c.24.21.44.47.6.77.16.3.26.64.3,1.02l4.52-2.81v1.68l-4.37,2.52v1.5h4.37v1.34h-9.91ZM155.88,185.2v-1.76c0-.26-.02-.52-.06-.78-.04-.26-.12-.48-.23-.69-.11-.2-.27-.36-.48-.48-.21-.12-.48-.18-.82-.18s-.61.06-.82.18c-.21.12-.37.28-.48.48-.11.2-.19.43-.23.69-.04.26-.06.52-.06.78v1.76h3.19Z" fill="#231f20"/>
    <path d="M158.57,177.36c.29,0,.55-.06.79-.19.24-.13.44-.29.61-.5.17-.21.3-.44.39-.71.09-.27.14-.55.14-.84,0-.39-.09-.73-.27-1.02-.18-.29-.42-.56-.72-.8l.73-.95c.91.7,1.36,1.68,1.36,2.94,0,.52-.09,1-.27,1.42-.18.42-.42.78-.73,1.08-.31.29-.68.52-1.11.68s-.88.24-1.38.24-.95-.09-1.38-.26-.79-.41-1.11-.71c-.31-.3-.56-.67-.73-1.08-.18-.42-.27-.88-.27-1.37,0-.59.1-1.08.31-1.49.21-.41.47-.74.81-1,.33-.26.7-.45,1.12-.57.42-.12.84-.18,1.27-.18h.45v5.32ZM157.56,173.38c-.28,0-.54.05-.77.13-.23.08-.44.2-.61.36-.17.16-.31.36-.41.6-.1.24-.15.52-.15.83s.06.59.17.85c.12.26.27.47.46.65.19.18.39.31.62.41.23.1.46.15.68.15v-3.98Z" fill="#231f20"/>
    <path d="M156.45,167c-.19.15-.34.33-.47.55s-.19.49-.19.8c0,.3.06.56.19.78.13.22.31.33.55.33.2,0,.35-.06.48-.19.12-.13.22-.27.29-.45.08-.17.13-.36.17-.55.04-.2.07-.36.1-.5.07-.27.15-.52.24-.76.09-.24.21-.44.36-.62.15-.17.33-.31.55-.41.21-.1.48-.15.78-.15.37,0,.69.08.96.24s.48.36.65.62.29.54.36.86c.07.32.11.65.11.97,0,.55-.08,1.03-.25,1.45s-.48.79-.92,1.11l-.78-.95c.21-.21.39-.43.55-.69.16-.25.24-.56.24-.92,0-.16-.02-.32-.05-.48-.03-.16-.08-.31-.15-.43s-.16-.23-.27-.31c-.11-.08-.23-.12-.37-.12-.19,0-.34.06-.46.17-.12.12-.22.26-.29.42-.07.16-.13.34-.17.52s-.08.34-.1.48c-.06.27-.14.53-.22.77-.08.24-.2.46-.34.64-.14.19-.32.34-.53.45-.21.11-.48.17-.8.17-.35,0-.65-.07-.9-.22-.26-.14-.47-.34-.64-.57-.17-.24-.29-.51-.38-.81s-.13-.61-.13-.92c0-.45.08-.88.25-1.29.17-.41.45-.74.84-.98l.74.98Z" fill="#231f20"/>
    <path d="M158.57,163.36c.29,0,.55-.06.79-.19.24-.13.44-.29.61-.5.17-.21.3-.44.39-.71.09-.27.14-.55.14-.84,0-.39-.09-.73-.27-1.02-.18-.29-.42-.56-.72-.8l.73-.95c.91.7,1.36,1.68,1.36,2.94,0,.52-.09,1-.27,1.42-.18.42-.42.78-.73,1.08-.31.29-.68.52-1.11.68s-.88.24-1.38.24-.95-.09-1.38-.26-.79-.41-1.11-.71c-.31-.3-.56-.67-.73-1.08-.18-.42-.27-.88-.27-1.37,0-.59.1-1.08.31-1.49.21-.41.47-.74.81-1,.33-.26.7-.45,1.12-.57.42-.12.84-.18,1.27-.18h.45v5.32ZM157.56,159.38c-.28,0-.54.05-.77.13-.23.08-.44.2-.61.36-.17.16-.31.36-.41.6-.1.24-.15.52-.15.83s.06.59.17.85c.12.26.27.47.46.65.19.18.39.31.62.41.23.1.46.15.68.15v-3.98Z" fill="#231f20"/>
    <path d="M155.6,156.5c-.33-.35-.57-.77-.73-1.23-.16-.47-.25-.93-.25-1.4s.06-.9.18-1.25c.12-.35.28-.64.49-.86.21-.22.44-.39.71-.5.27-.11.54-.16.83-.16h3.39c.23,0,.45,0,.64-.01.2,0,.38-.02.56-.04v1.12c-.34.03-.67.04-1.01.04v.03c.43.28.73.61.91.99s.27.83.27,1.33c0,.31-.04.6-.13.88-.08.28-.21.52-.38.73s-.38.38-.62.5c-.25.12-.53.18-.86.18-.43,0-.79-.1-1.08-.29-.29-.19-.52-.45-.71-.78-.18-.33-.31-.72-.39-1.16-.08-.44-.12-.92-.12-1.42v-.92h-.28c-.17,0-.34.03-.5.1s-.32.16-.46.29-.24.29-.32.49c-.08.2-.12.43-.12.7,0,.24.02.46.07.64.05.18.1.35.18.5.07.15.15.29.24.41.09.12.18.24.27.35l-.78.76ZM158.23,152.94c0,.3.02.6.05.92.03.31.1.6.19.85.09.26.22.47.39.63.17.16.38.24.64.24.38,0,.66-.13.83-.38s.25-.6.25-1.04c0-.35-.06-.64-.18-.88-.12-.24-.27-.44-.46-.59-.19-.15-.39-.26-.62-.32-.23-.07-.46-.1-.68-.1h-.42v.67Z" fill="#231f20"/>
    <path d="M154.79,149.26v-1.26h1.02v-.03c-.18-.08-.34-.2-.48-.34-.14-.14-.27-.3-.37-.47-.1-.17-.18-.36-.25-.57-.06-.21-.09-.41-.09-.62s.03-.39.08-.56l1.36.06c-.03.1-.05.21-.07.31-.02.1-.03.21-.03.31,0,.62.17,1.09.52,1.41.35.33.88.49,1.61.49h3.33v1.26h-6.64Z" fill="#231f20"/>
    <path d="M156.55,139.59c-.24.23-.43.48-.55.74s-.19.56-.19.92.06.65.19.9c.13.26.3.47.52.64.22.17.47.3.76.39s.58.13.89.13.6-.05.88-.15c.28-.1.52-.25.72-.43.21-.19.37-.41.48-.67s.18-.56.18-.88c0-.35-.06-.66-.19-.91-.13-.25-.31-.49-.55-.7l.9-.9c.36.33.63.71.78,1.14.16.43.24.89.24,1.38,0,.51-.08.98-.25,1.41s-.4.79-.71,1.1c-.3.31-.67.55-1.09.71s-.89.25-1.41.25-.98-.08-1.41-.25c-.43-.17-.8-.4-1.11-.71s-.55-.67-.72-1.09c-.17-.42-.26-.9-.26-1.42,0-.49.09-.95.26-1.39.17-.44.44-.83.79-1.15l.87.95Z" fill="#231f20"/>
    <path d="M150.84,137.58v-1.26h4.97v-.03c-.35-.16-.64-.43-.86-.83-.22-.39-.33-.84-.33-1.36,0-.32.05-.62.15-.92.1-.29.25-.55.46-.77.21-.22.47-.39.79-.53.32-.13.7-.2,1.14-.2h4.27v1.26h-3.92c-.31,0-.57.04-.79.13s-.4.2-.53.34c-.14.14-.23.3-.29.48-.06.18-.09.37-.09.57,0,.26.04.5.13.73s.22.42.4.59.41.3.69.39c.28.09.61.14.99.14h3.42v1.26h-10.58Z" fill="#231f20"/>
    <path d="M165.86,236.8v-.9l4.88.69-2.05-2.33v-1.25l2.15,2.51,2.58-2.04v1.28l-2.46,1.86,2.46.34v.9l-7.56-1.06Z" fill="#231f20"/>
    <path d="M168.68,232.01v-.9l.73.1v-.02c-.25-.15-.46-.38-.62-.68s-.23-.63-.23-1c0-.23.03-.44.1-.64.07-.2.18-.37.32-.51.15-.14.33-.23.56-.29.23-.06.5-.07.82-.02l3.05.42v.9l-2.8-.39c-.22-.03-.41-.02-.57.02-.16.04-.28.1-.38.18-.1.08-.17.19-.21.31-.04.13-.06.26-.06.4,0,.19.03.37.09.54s.16.32.29.46.29.25.5.34c.2.09.44.16.71.2l2.44.34v.9l-4.74-.66Z" fill="#231f20"/>
    <path d="M171.05,227.01c-.35-.05-.67-.16-.97-.33-.3-.17-.56-.39-.79-.65-.23-.26-.41-.55-.54-.88-.13-.32-.19-.66-.19-1.02s.06-.67.19-.96.31-.53.54-.73c.23-.2.49-.34.79-.42.3-.09.62-.11.97-.06.35.05.67.17.98.33s.57.38.79.65c.22.26.4.55.53.88.13.32.2.66.2,1.01s-.06.68-.2.97c-.13.29-.31.53-.53.73-.22.19-.49.33-.79.42s-.63.11-.98.06ZM171.05,226.05c.24.03.46.03.67-.02.2-.04.38-.12.52-.23.14-.11.26-.26.34-.45.08-.18.12-.39.12-.63s-.04-.46-.12-.67c-.08-.2-.2-.38-.34-.54-.14-.15-.32-.28-.52-.38-.2-.1-.42-.17-.67-.21-.24-.03-.46-.03-.67.01-.2.04-.38.12-.52.24-.14.12-.26.27-.34.45s-.12.39-.12.63.04.46.12.67.2.38.34.54c.14.16.32.29.52.39.2.1.43.17.67.2Z" fill="#231f20"/>
    <path d="M168.68,221.08v-1.02l3.54-.56v-.02l-3.54-1.63v-.96l3.54-.7v-.02l-3.54-1.51v-.96l4.74,2.19v.9l-3.54.78v.02l3.54,1.63v.96l-4.74.9Z" fill="#231f20"/>
    <path d="M168.68,210.71v-1.02l3.54-.56v-.02l-3.54-1.63v-.96l3.54-.7v-.02l-3.54-1.51v-.96l4.74,2.19v.9l-3.54.78v.02l3.54,1.63v.96l-4.74.9Z" fill="#231f20"/>
    <path d="M165.86,202.15v-.9l3.55.5v-.02c-.25-.15-.46-.38-.62-.68-.16-.3-.23-.63-.23-1,0-.23.03-.44.1-.64.07-.2.18-.37.32-.5.15-.14.33-.24.56-.29.23-.06.5-.07.82-.02l3.05.42v.9l-2.8-.39c-.22-.03-.41-.02-.57.02-.16.04-.28.1-.38.18-.1.08-.17.19-.21.31-.04.13-.06.26-.06.4,0,.19.03.36.09.54.06.17.16.32.29.46s.29.25.5.34c.2.09.44.16.71.2l2.44.34v.9l-7.56-1.06Z" fill="#231f20"/>
    <path d="M169.26,197.05c-.23-.29-.41-.6-.52-.96s-.17-.69-.17-1.02.04-.64.13-.88c.09-.24.2-.43.35-.57s.31-.23.5-.28c.19-.05.39-.06.6-.03l2.42.34c.17.03.32.05.46.06.14.01.27.02.4.02v.8c-.12,0-.24-.02-.36-.03-.12,0-.24-.02-.36-.04v.02c.31.25.52.52.65.81.13.29.19.61.19.98,0,.22-.03.42-.09.61-.06.19-.15.35-.27.48-.12.13-.27.23-.44.3-.18.06-.38.08-.61.04-.31-.04-.56-.14-.77-.31s-.38-.38-.51-.64c-.13-.26-.22-.55-.28-.87s-.08-.67-.08-1.03v-.66l-.2-.03c-.12-.02-.24-.01-.36.02s-.23.08-.33.17c-.1.08-.17.19-.23.32-.06.13-.08.3-.08.49,0,.17.02.33.05.46s.07.26.12.37c.05.11.11.21.17.31.07.1.13.19.19.28l-.56.46ZM171.14,194.77c0,.21.01.44.03.66.02.23.07.44.14.63.07.19.16.36.28.49s.27.21.46.24c.27.04.47-.02.59-.19.12-.17.18-.41.18-.72,0-.25-.04-.46-.12-.65-.08-.18-.19-.34-.32-.47-.13-.13-.28-.23-.45-.3-.16-.07-.32-.12-.48-.14l-.3-.05v.48Z" fill="#231f20"/>
    <path d="M169.46,189.36v1.29l2.15.29c.13.02.27.04.4.04.13.01.25,0,.35-.02s.19-.08.25-.17.09-.21.09-.39c0-.11,0-.22-.03-.33-.02-.12-.06-.22-.11-.32l.82.12c.03.06.06.13.08.21.02.08.04.15.04.23.01.08.02.15.02.22,0,.07.01.13.01.18,0,.35-.05.61-.15.79-.1.18-.22.3-.38.37s-.33.1-.52.09c-.19-.01-.38-.03-.58-.06l-2.47-.35v1.04l-.78-.11v-1.04l-1.33-.19v-.9l1.33.19v-1.3l.78.11Z" fill="#231f20"/>
    <path d="M168.8,187.42v.82l-2.46-1.04v-.96l2.46,1.18Z" fill="#231f20"/>
    <path d="M169.87,183.71c-.13.09-.25.2-.33.34-.09.14-.14.33-.14.56,0,.21.04.41.14.58.09.17.22.26.39.28.14.02.25,0,.34-.08s.16-.17.21-.29c.05-.12.09-.24.12-.38.03-.13.05-.25.07-.35.05-.19.1-.36.17-.52.07-.16.15-.3.26-.41.11-.11.24-.19.39-.23.15-.05.34-.06.56-.03.27.04.5.13.69.27s.35.31.46.5c.12.2.21.42.26.66s.08.47.08.71c0,.39-.06.73-.18,1-.12.28-.34.51-.66.71l-.56-.75c.15-.13.28-.27.39-.44.11-.17.17-.38.17-.64,0-.23-.05-.46-.15-.67-.1-.21-.25-.34-.45-.37-.13-.02-.24,0-.33.08s-.16.16-.21.27c-.05.11-.09.23-.12.36-.03.13-.05.24-.07.34-.05.19-.1.36-.16.53s-.14.31-.24.43c-.1.12-.23.21-.38.27-.15.06-.34.07-.57.04-.25-.03-.46-.11-.65-.24-.18-.13-.33-.29-.46-.48s-.21-.39-.27-.62-.09-.45-.09-.67c0-.32.06-.62.18-.9.12-.28.32-.48.6-.62l.53.78Z" fill="#231f20"/>
    <path d="M165.86,178.44v-.9l4.88.69-2.05-2.33v-1.25l2.15,2.51,2.58-2.04v1.28l-2.46,1.86,2.46.34v.9l-7.56-1.06Z" fill="#231f20"/>
    <path d="M168.68,173.65v-.9l.73.1v-.02c-.25-.15-.46-.38-.62-.68-.16-.3-.23-.63-.23-1,0-.23.03-.44.1-.64.07-.2.18-.37.32-.5.15-.14.33-.24.56-.29.23-.06.5-.07.82-.02l3.05.42v.9l-2.8-.39c-.22-.03-.41-.02-.57.02-.16.04-.28.1-.38.18-.1.08-.17.19-.21.31-.04.13-.06.26-.06.4,0,.19.03.36.09.54.06.17.16.32.29.46s.29.25.5.34c.2.09.44.16.71.2l2.44.34v.9l-4.74-.66Z" fill="#231f20"/>
    <path d="M171.05,168.65c-.35-.05-.67-.16-.97-.33-.3-.17-.56-.39-.79-.65-.23-.26-.41-.55-.54-.88-.13-.32-.19-.66-.19-1.02s.06-.67.19-.96.31-.53.54-.73.49-.34.79-.42c.3-.09.62-.11.97-.06.35.05.67.17.98.33s.57.38.79.65c.22.26.4.55.53.88.13.32.2.66.2,1.01s-.06.68-.2.97c-.13.29-.31.53-.53.73-.22.19-.49.33-.79.42s-.63.11-.98.06ZM171.05,167.69c.24.03.46.03.67-.01.2-.04.38-.12.52-.24.14-.11.26-.26.34-.44.08-.18.12-.4.12-.63s-.04-.46-.12-.67c-.08-.2-.2-.38-.34-.54-.14-.15-.32-.28-.52-.38-.2-.1-.42-.17-.67-.21-.24-.03-.46-.03-.67.01-.2.04-.38.12-.52.24-.14.12-.26.27-.34.44-.08.18-.12.39-.12.63s.04.46.12.66c.08.2.2.38.34.54.14.16.32.29.52.39.2.1.43.17.67.2Z" fill="#231f20"/>
    <path d="M168.68,162.72v-1.02l3.54-.56v-.02l-3.54-1.63v-.96l3.54-.7v-.02l-3.54-1.51v-.96l4.74,2.19v.9l-3.54.78v.02l3.54,1.63v.96l-4.74.9Z" fill="#231f20"/>
    <path d="M168.68,154.56v-.9l.73.1v-.02c-.25-.15-.46-.38-.62-.68-.16-.3-.23-.63-.23-1,0-.23.03-.44.1-.64.07-.2.18-.37.32-.5.15-.14.33-.24.56-.29.23-.06.5-.07.82-.02l3.05.42v.9l-2.8-.39c-.22-.03-.41-.02-.57.02-.16.04-.28.1-.38.18-.1.08-.17.19-.21.31-.04.13-.06.26-.06.4,0,.19.03.36.09.54.06.17.16.32.29.46s.29.25.5.34c.2.09.44.16.71.2l2.44.34v.9l-4.74-.66Z" fill="#231f20"/>
  </g>
</svg>