<?xml version="1.0" encoding="UTF-8"?>
<svg id="Layer_1" data-name="Layer 1" xmlns="http://www.w3.org/2000/svg" viewBox="0 0 946.81 272.99">
  <rect x=".5" y=".5" width="945.81" height="271.99" fill="#e6e7e8" stroke="#e6e7e8" stroke-miterlimit="10"/>
  <g>
    <rect x="115.13" y="58.78" width="277.16" height="106.64" fill="#fff" stroke="#231f20" stroke-miterlimit="10" stroke-width=".36"/>
    <g>
      <path d="M178.83,96.52h-6.29v5.83h7.01v1.75h-9.1v-16.18h8.74v1.75h-6.65v5.11h6.29v1.73Z" fill="#231f20"/>
      <path d="M183.18,92.48l1.66,2.5c.43.65.79,1.25,1.18,1.9h.07c.38-.7.77-1.3,1.15-1.92l1.63-2.47h2.28l-3.96,5.62,4.08,6h-2.4l-1.7-2.62c-.46-.67-.84-1.32-1.25-2.02h-.05c-.38.7-.79,1.32-1.22,2.02l-1.68,2.62h-2.33l4.13-5.93-3.94-5.69h2.35Z" fill="#231f20"/>
      <path d="M194.12,98.68c.05,2.86,1.87,4.03,3.98,4.03,1.51,0,2.42-.26,3.22-.6l.36,1.51c-.74.34-2.02.72-3.86.72-3.58,0-5.71-2.35-5.71-5.86s2.06-6.26,5.45-6.26c3.79,0,4.8,3.34,4.8,5.47,0,.43-.05.77-.07.98h-8.16ZM200.31,97.16c.02-1.34-.55-3.43-2.93-3.43-2.14,0-3.07,1.97-3.24,3.43h6.17Z" fill="#231f20"/>
      <path d="M213.25,103.67c-.55.29-1.78.67-3.34.67-3.5,0-5.78-2.38-5.78-5.93s2.45-6.17,6.24-6.17c1.25,0,2.35.31,2.93.6l-.48,1.63c-.5-.29-1.3-.55-2.45-.55-2.66,0-4.1,1.97-4.1,4.39,0,2.69,1.73,4.34,4.03,4.34,1.2,0,1.99-.31,2.59-.58l.36,1.58Z" fill="#231f20"/>
      <path d="M225.44,100.93c0,1.2.02,2.26.1,3.17h-1.87l-.12-1.9h-.05c-.55.94-1.78,2.16-3.84,2.16-1.82,0-4.01-1.01-4.01-5.09v-6.79h2.11v6.43c0,2.21.67,3.7,2.59,3.7,1.42,0,2.4-.98,2.78-1.92.12-.31.19-.7.19-1.08v-7.13h2.11v8.45Z" fill="#231f20"/>
      <path d="M231.49,89.15v3.34h3.02v1.61h-3.02v6.26c0,1.44.41,2.26,1.58,2.26.55,0,.96-.07,1.22-.14l.1,1.58c-.41.17-1.06.29-1.87.29-.98,0-1.78-.31-2.28-.89-.6-.62-.82-1.66-.82-3.02v-6.34h-1.8v-1.61h1.8v-2.78l2.06-.55Z" fill="#231f20"/>
      <path d="M239.24,89.22c.02.72-.5,1.3-1.34,1.3-.74,0-1.27-.58-1.27-1.3s.55-1.32,1.32-1.32,1.3.58,1.3,1.32ZM236.89,104.1v-11.62h2.11v11.62h-2.11Z" fill="#231f20"/>
      <path d="M253.02,98.2c0,4.3-2.98,6.17-5.78,6.17-3.14,0-5.57-2.3-5.57-5.98,0-3.89,2.54-6.17,5.76-6.17s5.59,2.42,5.59,5.98ZM243.8,98.32c0,2.54,1.46,4.46,3.53,4.46s3.53-1.9,3.53-4.51c0-1.97-.98-4.46-3.48-4.46s-3.58,2.3-3.58,4.51Z" fill="#231f20"/>
      <path d="M255.68,95.63c0-1.2-.02-2.18-.1-3.14h1.87l.12,1.92h.05c.58-1.1,1.92-2.18,3.84-2.18,1.61,0,4.1.96,4.1,4.94v6.94h-2.11v-6.7c0-1.87-.7-3.43-2.69-3.43-1.39,0-2.47.98-2.83,2.16-.1.26-.14.62-.14.98v6.98h-2.11v-8.47Z" fill="#231f20"/>
      <path d="M273.9,96.83v1.56h-5.93v-1.56h5.93Z" fill="#231f20"/>
      <path d="M286.83,87.06v14.04c0,1.03.02,2.21.1,3h-1.9l-.1-2.02h-.05c-.65,1.3-2.06,2.28-3.96,2.28-2.81,0-4.97-2.38-4.97-5.9-.02-3.86,2.38-6.24,5.21-6.24,1.78,0,2.98.84,3.5,1.78h.05v-6.94h2.11ZM284.72,97.21c0-.26-.02-.62-.1-.89-.31-1.34-1.46-2.45-3.05-2.45-2.18,0-3.48,1.92-3.48,4.49,0,2.35,1.15,4.3,3.43,4.3,1.42,0,2.71-.94,3.1-2.52.07-.29.1-.58.1-.91v-2.02Z" fill="#231f20"/>
      <path d="M290.33,96.11c0-1.37-.02-2.54-.1-3.62h1.85l.07,2.28h.1c.53-1.56,1.8-2.54,3.22-2.54.24,0,.41.02.6.07v1.99c-.22-.05-.43-.07-.72-.07-1.49,0-2.54,1.13-2.83,2.71-.05.29-.1.62-.1.98v6.19h-2.09v-7.99Z" fill="#231f20"/>
      <path d="M300.63,89.22c.02.72-.5,1.3-1.34,1.3-.74,0-1.27-.58-1.27-1.3s.55-1.32,1.32-1.32,1.3.58,1.3,1.32ZM298.28,104.1v-11.62h2.11v11.62h-2.11Z" fill="#231f20"/>
      <path d="M304.71,92.48l2.28,6.53c.38,1.06.7,2.02.94,2.98h.07c.26-.96.6-1.92.98-2.98l2.26-6.53h2.21l-4.56,11.62h-2.02l-4.42-11.62h2.26Z" fill="#231f20"/>
      <path d="M316.37,98.68c.05,2.86,1.87,4.03,3.98,4.03,1.51,0,2.42-.26,3.22-.6l.36,1.51c-.74.34-2.02.72-3.86.72-3.58,0-5.71-2.35-5.71-5.86s2.06-6.26,5.45-6.26c3.79,0,4.8,3.34,4.8,5.47,0,.43-.05.77-.07.98h-8.16ZM322.57,97.16c.02-1.34-.55-3.43-2.93-3.43-2.14,0-3.07,1.97-3.24,3.43h6.17Z" fill="#231f20"/>
      <path d="M327.22,95.63c0-1.2-.02-2.18-.1-3.14h1.87l.12,1.92h.05c.58-1.1,1.92-2.18,3.84-2.18,1.61,0,4.1.96,4.1,4.94v6.94h-2.11v-6.7c0-1.87-.7-3.43-2.69-3.43-1.39,0-2.47.98-2.83,2.16-.1.26-.14.62-.14.98v6.98h-2.11v-8.47Z" fill="#231f20"/>
      <path d="M183.25,130.74c.62.41,1.73.84,2.78.84,1.54,0,2.26-.77,2.26-1.73,0-1.01-.6-1.56-2.16-2.14-2.09-.74-3.07-1.9-3.07-3.29,0-1.87,1.51-3.41,4.01-3.41,1.18,0,2.21.34,2.86.72l-.53,1.54c-.46-.29-1.3-.67-2.38-.67-1.25,0-1.94.72-1.94,1.58,0,.96.7,1.39,2.21,1.97,2.02.77,3.05,1.78,3.05,3.5,0,2.04-1.58,3.48-4.34,3.48-1.27,0-2.45-.31-3.26-.79l.53-1.61Z" fill="#231f20"/>
      <path d="M193.04,124.43c0-1.2-.02-2.18-.1-3.14h1.85l.1,1.87h.07c.65-1.1,1.73-2.14,3.65-2.14,1.58,0,2.78.96,3.29,2.33h.05c.36-.65.82-1.15,1.3-1.51.7-.53,1.46-.82,2.57-.82,1.54,0,3.82,1.01,3.82,5.04v6.84h-2.06v-6.58c0-2.23-.82-3.58-2.52-3.58-1.2,0-2.14.89-2.5,1.92-.1.29-.17.67-.17,1.06v7.18h-2.06v-6.96c0-1.85-.82-3.19-2.42-3.19-1.32,0-2.28,1.06-2.62,2.11-.12.31-.17.67-.17,1.03v7.01h-2.06v-8.47Z" fill="#231f20"/>
      <path d="M219.49,132.9l-.17-1.46h-.07c-.65.91-1.9,1.73-3.55,1.73-2.35,0-3.55-1.66-3.55-3.34,0-2.81,2.5-4.34,6.98-4.32v-.24c0-.96-.26-2.69-2.64-2.69-1.08,0-2.21.34-3.02.86l-.48-1.39c.96-.62,2.35-1.03,3.82-1.03,3.55,0,4.42,2.42,4.42,4.75v4.34c0,1.01.05,1.99.19,2.78h-1.92ZM219.18,126.97c-2.3-.05-4.92.36-4.92,2.62,0,1.37.91,2.02,1.99,2.02,1.51,0,2.47-.96,2.81-1.94.07-.22.12-.46.12-.67v-2.02Z" fill="#231f20"/>
      <path d="M224.62,115.86h2.11v17.04h-2.11v-17.04Z" fill="#231f20"/>
      <path d="M230.29,115.86h2.11v17.04h-2.11v-17.04Z" fill="#231f20"/>
      <path d="M240.94,132.9c.05-.79.1-1.97.1-3v-14.04h2.09v7.3h.05c.74-1.3,2.09-2.14,3.96-2.14,2.88,0,4.92,2.4,4.9,5.93,0,4.15-2.62,6.22-5.21,6.22-1.68,0-3.02-.65-3.89-2.18h-.07l-.1,1.92h-1.82ZM243.13,128.24c0,.26.05.53.1.77.41,1.46,1.63,2.47,3.17,2.47,2.21,0,3.53-1.8,3.53-4.46,0-2.33-1.2-4.32-3.46-4.32-1.44,0-2.78.98-3.22,2.59-.05.24-.12.53-.12.86v2.09Z" fill="#231f20"/>
      <path d="M264.42,129.73c0,1.2.02,2.26.1,3.17h-1.87l-.12-1.9h-.05c-.55.94-1.78,2.16-3.84,2.16-1.82,0-4.01-1.01-4.01-5.09v-6.79h2.11v6.43c0,2.21.67,3.7,2.59,3.7,1.42,0,2.4-.98,2.78-1.92.12-.31.19-.7.19-1.08v-7.13h2.11v8.45Z" fill="#231f20"/>
      <path d="M267.63,130.74c.62.41,1.73.84,2.78.84,1.54,0,2.26-.77,2.26-1.73,0-1.01-.6-1.56-2.16-2.14-2.09-.74-3.07-1.9-3.07-3.29,0-1.87,1.51-3.41,4.01-3.41,1.18,0,2.21.34,2.86.72l-.53,1.54c-.46-.29-1.3-.67-2.38-.67-1.25,0-1.94.72-1.94,1.58,0,.96.7,1.39,2.21,1.97,2.02.77,3.05,1.78,3.05,3.5,0,2.04-1.58,3.48-4.34,3.48-1.27,0-2.45-.31-3.26-.79l.53-1.61Z" fill="#231f20"/>
      <path d="M279.78,118.02c.02.72-.5,1.3-1.34,1.3-.74,0-1.27-.58-1.27-1.3s.55-1.32,1.32-1.32,1.3.58,1.3,1.32ZM277.42,132.9v-11.62h2.11v11.62h-2.11Z" fill="#231f20"/>
      <path d="M283.04,124.43c0-1.2-.02-2.18-.1-3.14h1.87l.12,1.92h.05c.58-1.1,1.92-2.18,3.84-2.18,1.61,0,4.1.96,4.1,4.94v6.94h-2.11v-6.7c0-1.87-.7-3.43-2.69-3.43-1.39,0-2.47.98-2.83,2.16-.1.26-.14.62-.14.98v6.98h-2.11v-8.47Z" fill="#231f20"/>
      <path d="M297.53,127.48c.05,2.86,1.87,4.03,3.98,4.03,1.51,0,2.42-.26,3.22-.6l.36,1.51c-.74.34-2.02.72-3.86.72-3.58,0-5.71-2.35-5.71-5.86s2.06-6.26,5.45-6.26c3.79,0,4.8,3.34,4.8,5.47,0,.43-.05.77-.07.98h-8.16ZM303.73,125.96c.02-1.34-.55-3.43-2.93-3.43-2.14,0-3.07,1.97-3.24,3.43h6.17Z" fill="#231f20"/>
      <path d="M308.09,130.74c.62.41,1.73.84,2.78.84,1.54,0,2.26-.77,2.26-1.73,0-1.01-.6-1.56-2.16-2.14-2.09-.74-3.07-1.9-3.07-3.29,0-1.87,1.51-3.41,4.01-3.41,1.18,0,2.21.34,2.86.72l-.53,1.54c-.46-.29-1.3-.67-2.38-.67-1.25,0-1.94.72-1.94,1.58,0,.96.7,1.39,2.21,1.97,2.02.77,3.05,1.78,3.05,3.5,0,2.04-1.58,3.48-4.34,3.48-1.27,0-2.45-.31-3.26-.79l.53-1.61Z" fill="#231f20"/>
      <path d="M317.6,130.74c.62.41,1.73.84,2.78.84,1.54,0,2.26-.77,2.26-1.73,0-1.01-.6-1.56-2.16-2.14-2.09-.74-3.07-1.9-3.07-3.29,0-1.87,1.51-3.41,4.01-3.41,1.18,0,2.21.34,2.86.72l-.53,1.54c-.46-.29-1.3-.67-2.38-.67-1.25,0-1.94.72-1.94,1.58,0,.96.7,1.39,2.21,1.97,2.02.77,3.05,1.78,3.05,3.5,0,2.04-1.58,3.48-4.34,3.48-1.27,0-2.45-.31-3.26-.79l.53-1.61Z" fill="#231f20"/>
    </g>
  </g>
  <g>
    <rect x="392.29" y="58.78" width="277.16" height="106.64" fill="#fff" stroke="#231f20" stroke-miterlimit="10" stroke-width=".36"/>
    <g>
      <path d="M485.03,87.39v6.77h7.83v-6.77h2.11v16.18h-2.11v-7.58h-7.83v7.58h-2.09v-16.18h2.09Z" fill="#231f20"/>
      <path d="M501.11,88.69c.02.72-.5,1.3-1.34,1.3-.74,0-1.27-.58-1.27-1.3s.55-1.32,1.32-1.32,1.3.58,1.3,1.32ZM498.76,103.57v-11.62h2.11v11.62h-2.11Z" fill="#231f20"/>
      <path d="M514.39,91.95c-.05.84-.1,1.78-.1,3.19v6.74c0,2.66-.53,4.3-1.66,5.3-1.13,1.06-2.76,1.39-4.22,1.39s-2.93-.34-3.86-.96l.53-1.61c.77.48,1.97.91,3.41.91,2.16,0,3.74-1.13,3.74-4.06v-1.3h-.05c-.65,1.08-1.9,1.94-3.7,1.94-2.88,0-4.94-2.45-4.94-5.66,0-3.94,2.57-6.17,5.23-6.17,2.02,0,3.12,1.06,3.62,2.02h.05l.1-1.75h1.85ZM512.2,96.54c0-.36-.02-.67-.12-.96-.38-1.22-1.42-2.23-2.95-2.23-2.02,0-3.46,1.7-3.46,4.39,0,2.28,1.15,4.18,3.43,4.18,1.3,0,2.47-.82,2.93-2.16.12-.36.17-.77.17-1.13v-2.09Z" fill="#231f20"/>
      <path d="M517.79,86.53h2.11v7.25h.05c.34-.6.86-1.13,1.51-1.49.62-.36,1.37-.6,2.16-.6,1.56,0,4.06.96,4.06,4.97v6.91h-2.11v-6.67c0-1.87-.7-3.46-2.69-3.46-1.37,0-2.45.96-2.83,2.11-.12.29-.14.6-.14,1.01v7.01h-2.11v-17.04Z" fill="#231f20"/>
      <path d="M536.01,96.3v1.56h-5.93v-1.56h5.93Z" fill="#231f20"/>
      <path d="M541.03,88.62v3.34h3.02v1.61h-3.02v6.26c0,1.44.41,2.26,1.58,2.26.55,0,.96-.07,1.22-.14l.1,1.58c-.41.17-1.06.29-1.87.29-.98,0-1.78-.31-2.28-.89-.6-.62-.82-1.66-.82-3.02v-6.34h-1.8v-1.61h1.8v-2.78l2.06-.55Z" fill="#231f20"/>
      <path d="M547.46,98.15c.05,2.86,1.87,4.03,3.98,4.03,1.51,0,2.42-.26,3.22-.6l.36,1.51c-.74.34-2.02.72-3.86.72-3.58,0-5.71-2.35-5.71-5.86s2.06-6.26,5.45-6.26c3.79,0,4.8,3.34,4.8,5.47,0,.43-.05.77-.07.98h-8.16ZM553.65,96.63c.02-1.34-.55-3.43-2.93-3.43-2.14,0-3.07,1.97-3.24,3.43h6.17Z" fill="#231f20"/>
      <path d="M566.59,103.14c-.55.29-1.78.67-3.34.67-3.5,0-5.79-2.38-5.79-5.93s2.45-6.17,6.24-6.17c1.25,0,2.35.31,2.93.6l-.48,1.63c-.5-.29-1.3-.55-2.45-.55-2.67,0-4.1,1.97-4.1,4.39,0,2.69,1.73,4.34,4.03,4.34,1.2,0,1.99-.31,2.59-.58l.36,1.58Z" fill="#231f20"/>
      <path d="M569.06,86.53h2.11v7.25h.05c.34-.6.86-1.13,1.51-1.49.62-.36,1.37-.6,2.16-.6,1.56,0,4.06.96,4.06,4.97v6.91h-2.11v-6.67c0-1.87-.7-3.46-2.69-3.46-1.37,0-2.45.96-2.83,2.11-.12.29-.14.6-.14,1.01v7.01h-2.11v-17.04Z" fill="#231f20"/>
      <path d="M491.04,132.37l-.17-1.46h-.07c-.65.91-1.9,1.73-3.55,1.73-2.35,0-3.55-1.66-3.55-3.34,0-2.81,2.5-4.34,6.98-4.32v-.24c0-.96-.26-2.69-2.64-2.69-1.08,0-2.21.34-3.02.86l-.48-1.39c.96-.62,2.35-1.03,3.82-1.03,3.55,0,4.42,2.42,4.42,4.75v4.34c0,1.01.05,1.99.19,2.78h-1.92ZM490.72,126.44c-2.3-.05-4.92.36-4.92,2.62,0,1.37.91,2.02,1.99,2.02,1.51,0,2.47-.96,2.81-1.94.07-.22.12-.46.12-.67v-2.02Z" fill="#231f20"/>
      <path d="M496.17,124.38c0-1.37-.02-2.54-.1-3.62h1.85l.07,2.28h.1c.53-1.56,1.8-2.54,3.22-2.54.24,0,.41.02.6.07v1.99c-.22-.05-.43-.07-.72-.07-1.49,0-2.54,1.13-2.83,2.71-.05.29-.1.62-.1.98v6.19h-2.09v-7.99Z" fill="#231f20"/>
      <path d="M504.11,123.9c0-1.2-.02-2.18-.1-3.14h1.85l.1,1.87h.07c.65-1.1,1.73-2.14,3.65-2.14,1.58,0,2.78.96,3.29,2.33h.05c.36-.65.82-1.15,1.3-1.51.7-.53,1.46-.82,2.57-.82,1.54,0,3.82,1.01,3.82,5.04v6.84h-2.06v-6.58c0-2.23-.82-3.58-2.52-3.58-1.2,0-2.14.89-2.5,1.92-.1.29-.17.67-.17,1.06v7.18h-2.06v-6.96c0-1.85-.82-3.19-2.42-3.19-1.32,0-2.28,1.06-2.62,2.11-.12.31-.17.67-.17,1.03v7.01h-2.06v-8.47Z" fill="#231f20"/>
      <path d="M523.84,130.21c.62.41,1.73.84,2.78.84,1.54,0,2.26-.77,2.26-1.73,0-1.01-.6-1.56-2.16-2.14-2.09-.74-3.07-1.9-3.07-3.29,0-1.87,1.51-3.41,4.01-3.41,1.18,0,2.21.34,2.86.72l-.53,1.54c-.46-.29-1.3-.67-2.38-.67-1.25,0-1.94.72-1.94,1.58,0,.96.7,1.39,2.21,1.97,2.02.77,3.05,1.78,3.05,3.5,0,2.04-1.58,3.48-4.34,3.48-1.27,0-2.45-.31-3.26-.79l.53-1.61Z" fill="#231f20"/>
      <path d="M538.72,124.38c0-1.37-.02-2.54-.1-3.62h1.85l.07,2.28h.1c.53-1.56,1.8-2.54,3.22-2.54.24,0,.41.02.6.07v1.99c-.22-.05-.43-.07-.72-.07-1.49,0-2.54,1.13-2.83,2.71-.05.29-.1.62-.1.98v6.19h-2.09v-7.99Z" fill="#231f20"/>
      <path d="M552.88,132.37l-.17-1.46h-.07c-.65.91-1.9,1.73-3.55,1.73-2.35,0-3.55-1.66-3.55-3.34,0-2.81,2.5-4.34,6.98-4.32v-.24c0-.96-.26-2.69-2.64-2.69-1.08,0-2.21.34-3.02.86l-.48-1.39c.96-.62,2.35-1.03,3.82-1.03,3.55,0,4.42,2.42,4.42,4.75v4.34c0,1.01.05,1.99.19,2.78h-1.92ZM552.57,126.44c-2.3-.05-4.92.36-4.92,2.62,0,1.37.91,2.02,1.99,2.02,1.51,0,2.47-.96,2.81-1.94.07-.22.12-.46.12-.67v-2.02Z" fill="#231f20"/>
      <path d="M566.3,131.94c-.55.29-1.78.67-3.34.67-3.5,0-5.79-2.38-5.79-5.93s2.45-6.17,6.24-6.17c1.25,0,2.35.31,2.93.6l-.48,1.63c-.5-.29-1.3-.55-2.45-.55-2.67,0-4.1,1.97-4.1,4.39,0,2.69,1.73,4.34,4.03,4.34,1.2,0,1.99-.31,2.59-.58l.36,1.58Z" fill="#231f20"/>
      <path d="M569.8,126.95c.05,2.86,1.87,4.03,3.98,4.03,1.51,0,2.42-.26,3.22-.6l.36,1.51c-.74.34-2.02.72-3.86.72-3.58,0-5.71-2.35-5.71-5.86s2.06-6.26,5.45-6.26c3.79,0,4.8,3.34,4.8,5.47,0,.43-.05.77-.07.98h-8.16ZM575.99,125.43c.02-1.34-.55-3.43-2.93-3.43-2.14,0-3.07,1.97-3.24,3.43h6.17Z" fill="#231f20"/>
    </g>
  </g>
  <rect x="669.46" y="58.78" width="277.16" height="213.53" fill="#fff" stroke="#231f20" stroke-miterlimit="10" stroke-width=".36"/>
  <g>
    <path d="M752.94,141.56v9.58c0,3.62,1.61,5.16,3.77,5.16,2.4,0,3.94-1.58,3.94-5.16v-9.58h2.11v9.43c0,4.97-2.62,7.01-6.12,7.01-3.31,0-5.81-1.9-5.81-6.91v-9.53h2.11Z" fill="#231f20"/>
    <path d="M766.31,149.26c0-1.2-.02-2.18-.1-3.14h1.87l.12,1.92h.05c.58-1.1,1.92-2.18,3.84-2.18,1.61,0,4.1.96,4.1,4.94v6.94h-2.11v-6.7c0-1.87-.7-3.43-2.69-3.43-1.39,0-2.47.98-2.83,2.16-.1.26-.14.62-.14.98v6.98h-2.11v-8.47Z" fill="#231f20"/>
    <path d="M781.98,142.86c.02.72-.5,1.3-1.34,1.3-.74,0-1.27-.58-1.27-1.3s.55-1.32,1.32-1.32,1.3.58,1.3,1.32ZM779.63,157.74v-11.62h2.11v11.62h-2.11Z" fill="#231f20"/>
    <path d="M786.06,146.12l2.28,6.53c.38,1.06.7,2.02.94,2.98h.07c.26-.96.6-1.92.98-2.98l2.26-6.53h2.21l-4.56,11.62h-2.02l-4.42-11.62h2.26Z" fill="#231f20"/>
    <path d="M797.72,152.31c.05,2.86,1.87,4.03,3.98,4.03,1.51,0,2.42-.26,3.22-.6l.36,1.51c-.74.34-2.02.72-3.86.72-3.58,0-5.71-2.35-5.71-5.86s2.06-6.26,5.45-6.26c3.79,0,4.8,3.34,4.8,5.47,0,.43-.05.77-.07.98h-8.16ZM803.92,150.8c.02-1.34-.55-3.43-2.93-3.43-2.14,0-3.07,1.97-3.24,3.43h6.17Z" fill="#231f20"/>
    <path d="M808.57,149.74c0-1.37-.02-2.54-.1-3.62h1.85l.07,2.28h.1c.53-1.56,1.8-2.54,3.22-2.54.24,0,.41.02.6.07v1.99c-.22-.05-.43-.07-.72-.07-1.49,0-2.54,1.13-2.83,2.71-.05.29-.1.62-.1.98v6.19h-2.09v-7.99Z" fill="#231f20"/>
    <path d="M816.13,155.58c.62.41,1.73.84,2.79.84,1.54,0,2.26-.77,2.26-1.73,0-1.01-.6-1.56-2.16-2.14-2.09-.74-3.07-1.9-3.07-3.29,0-1.87,1.51-3.41,4.01-3.41,1.18,0,2.21.34,2.86.72l-.53,1.54c-.46-.29-1.3-.67-2.38-.67-1.25,0-1.94.72-1.94,1.58,0,.96.7,1.39,2.21,1.97,2.02.77,3.05,1.78,3.05,3.5,0,2.04-1.58,3.48-4.34,3.48-1.27,0-2.45-.31-3.26-.79l.53-1.61Z" fill="#231f20"/>
    <path d="M828.27,142.86c.02.72-.5,1.3-1.34,1.3-.74,0-1.27-.58-1.27-1.3s.55-1.32,1.32-1.32,1.3.58,1.3,1.32ZM825.92,157.74v-11.62h2.11v11.62h-2.11Z" fill="#231f20"/>
    <path d="M834.08,142.78v3.34h3.02v1.61h-3.02v6.26c0,1.44.41,2.26,1.58,2.26.55,0,.96-.07,1.22-.14l.1,1.58c-.41.17-1.06.29-1.87.29-.98,0-1.78-.31-2.28-.89-.6-.62-.82-1.66-.82-3.02v-6.34h-1.8v-1.61h1.8v-2.78l2.06-.55Z" fill="#231f20"/>
    <path d="M840.47,146.12l2.54,6.86c.26.77.55,1.68.74,2.38h.05c.22-.7.46-1.58.74-2.42l2.3-6.82h2.23l-3.17,8.28c-1.51,3.98-2.54,6.02-3.98,7.27-1.03.91-2.06,1.27-2.59,1.37l-.53-1.78c.53-.17,1.22-.5,1.85-1.03.58-.46,1.3-1.27,1.78-2.35.1-.22.17-.38.17-.5s-.05-.29-.14-.55l-4.3-10.71h2.3Z" fill="#231f20"/>
    <path d="M855.8,150.46v1.56h-5.93v-1.56h5.93Z" fill="#231f20"/>
    <path d="M858.27,140.7h2.11v17.04h-2.11v-17.04Z" fill="#231f20"/>
    <path d="M865.11,152.31c.05,2.86,1.87,4.03,3.98,4.03,1.51,0,2.42-.26,3.22-.6l.36,1.51c-.74.34-2.02.72-3.86.72-3.58,0-5.71-2.35-5.71-5.86s2.06-6.26,5.45-6.26c3.79,0,4.8,3.34,4.8,5.47,0,.43-.05.77-.07.98h-8.16ZM871.31,150.8c.02-1.34-.55-3.43-2.93-3.43-2.14,0-3.07,1.97-3.24,3.43h6.17Z" fill="#231f20"/>
    <path d="M885.99,140.7v14.04c0,1.03.02,2.21.1,3h-1.9l-.1-2.02h-.05c-.65,1.3-2.06,2.28-3.96,2.28-2.81,0-4.97-2.38-4.97-5.9-.02-3.86,2.38-6.24,5.21-6.24,1.78,0,2.98.84,3.5,1.78h.05v-6.94h2.11ZM883.88,150.85c0-.26-.02-.62-.1-.89-.31-1.34-1.46-2.45-3.05-2.45-2.18,0-3.48,1.92-3.48,4.49,0,2.35,1.15,4.3,3.43,4.3,1.42,0,2.71-.94,3.1-2.52.07-.29.1-.58.1-.91v-2.02Z" fill="#231f20"/>
    <path d="M738.38,186.54v-10.01h-1.63v-1.61h1.63v-.55c0-1.63.36-3.12,1.34-4.06.79-.77,1.85-1.08,2.83-1.08.74,0,1.39.17,1.8.34l-.29,1.63c-.31-.14-.74-.26-1.34-.26-1.8,0-2.26,1.58-2.26,3.36v.62h2.81v1.61h-2.81v10.01h-2.09Z" fill="#231f20"/>
    <path d="M745.18,178.54c0-1.37-.02-2.54-.1-3.62h1.85l.07,2.28h.1c.53-1.56,1.8-2.54,3.22-2.54.24,0,.41.02.6.07v1.99c-.22-.05-.43-.07-.72-.07-1.49,0-2.54,1.13-2.83,2.71-.05.29-.1.62-.1.98v6.19h-2.09v-7.99Z" fill="#231f20"/>
    <path d="M763.3,180.63c0,4.3-2.98,6.17-5.79,6.17-3.14,0-5.57-2.3-5.57-5.98,0-3.89,2.54-6.17,5.76-6.17s5.59,2.42,5.59,5.98ZM754.08,180.75c0,2.54,1.46,4.46,3.53,4.46s3.53-1.9,3.53-4.51c0-1.97-.98-4.46-3.48-4.46s-3.58,2.3-3.58,4.51Z" fill="#231f20"/>
    <path d="M765.96,178.06c0-1.2-.02-2.18-.1-3.14h1.87l.12,1.92h.05c.58-1.1,1.92-2.18,3.84-2.18,1.61,0,4.11.96,4.11,4.94v6.94h-2.11v-6.7c0-1.87-.7-3.43-2.69-3.43-1.39,0-2.47.98-2.83,2.16-.1.26-.14.62-.14.98v6.98h-2.11v-8.47Z" fill="#231f20"/>
    <path d="M781.73,171.58v3.34h3.02v1.61h-3.02v6.26c0,1.44.41,2.26,1.58,2.26.55,0,.96-.07,1.22-.14l.1,1.58c-.41.17-1.06.29-1.87.29-.98,0-1.78-.31-2.28-.89-.6-.62-.82-1.66-.82-3.02v-6.34h-1.8v-1.61h1.8v-2.78l2.06-.55Z" fill="#231f20"/>
    <path d="M789.48,171.66c.02.72-.5,1.3-1.34,1.3-.74,0-1.27-.58-1.27-1.3s.55-1.32,1.32-1.32,1.3.58,1.3,1.32ZM787.13,186.54v-11.62h2.11v11.62h-2.11Z" fill="#231f20"/>
    <path d="M793.92,181.11c.05,2.86,1.87,4.03,3.98,4.03,1.51,0,2.42-.26,3.22-.6l.36,1.51c-.74.34-2.02.72-3.87.72-3.58,0-5.71-2.35-5.71-5.86s2.06-6.26,5.45-6.26c3.79,0,4.8,3.34,4.8,5.47,0,.43-.05.77-.07.98h-8.16ZM800.11,179.6c.03-1.34-.55-3.43-2.93-3.43-2.14,0-3.07,1.97-3.24,3.43h6.17Z" fill="#231f20"/>
    <path d="M804.77,178.54c0-1.37-.02-2.54-.1-3.62h1.85l.07,2.28h.1c.53-1.56,1.8-2.54,3.22-2.54.24,0,.41.02.6.07v1.99c-.22-.05-.43-.07-.72-.07-1.49,0-2.54,1.13-2.83,2.71-.05.29-.1.62-.1.98v6.19h-2.09v-7.99Z" fill="#231f20"/>
    <path d="M817.7,178.54c0-1.37-.02-2.54-.1-3.62h1.85l.07,2.28h.1c.53-1.56,1.8-2.54,3.22-2.54.24,0,.41.02.6.07v1.99c-.22-.05-.43-.07-.72-.07-1.49,0-2.54,1.13-2.83,2.71-.05.29-.1.62-.1.98v6.19h-2.09v-7.99Z" fill="#231f20"/>
    <path d="M826.49,181.11c.05,2.86,1.87,4.03,3.98,4.03,1.51,0,2.42-.26,3.22-.6l.36,1.51c-.74.34-2.02.72-3.86.72-3.58,0-5.71-2.35-5.71-5.86s2.06-6.26,5.45-6.26c3.79,0,4.8,3.34,4.8,5.47,0,.43-.05.77-.07.98h-8.16ZM832.68,179.6c.02-1.34-.55-3.43-2.93-3.43-2.14,0-3.07,1.97-3.24,3.43h6.17Z" fill="#231f20"/>
    <path d="M837.05,184.38c.62.41,1.73.84,2.78.84,1.54,0,2.26-.77,2.26-1.73,0-1.01-.6-1.56-2.16-2.14-2.09-.74-3.07-1.9-3.07-3.29,0-1.87,1.51-3.41,4.01-3.41,1.18,0,2.21.34,2.86.72l-.53,1.54c-.46-.29-1.3-.67-2.38-.67-1.25,0-1.94.72-1.94,1.58,0,.96.7,1.39,2.21,1.97,2.02.77,3.05,1.78,3.05,3.5,0,2.04-1.58,3.48-4.34,3.48-1.27,0-2.45-.31-3.26-.79l.53-1.61Z" fill="#231f20"/>
    <path d="M848.01,181.11c.05,2.86,1.87,4.03,3.98,4.03,1.51,0,2.42-.26,3.22-.6l.36,1.51c-.74.34-2.02.72-3.86.72-3.58,0-5.71-2.35-5.71-5.86s2.06-6.26,5.45-6.26c3.79,0,4.8,3.34,4.8,5.47,0,.43-.05.77-.07.98h-8.16ZM854.21,179.6c.02-1.34-.55-3.43-2.93-3.43-2.14,0-3.07,1.97-3.24,3.43h6.17Z" fill="#231f20"/>
    <path d="M865.29,186.54l-.17-1.46h-.07c-.65.91-1.9,1.73-3.55,1.73-2.35,0-3.55-1.66-3.55-3.34,0-2.81,2.5-4.34,6.99-4.32v-.24c0-.96-.26-2.69-2.64-2.69-1.08,0-2.21.34-3.02.86l-.48-1.39c.96-.62,2.35-1.03,3.82-1.03,3.55,0,4.42,2.42,4.42,4.75v4.34c0,1.01.05,1.99.19,2.78h-1.92ZM864.98,180.61c-2.3-.05-4.92.36-4.92,2.62,0,1.37.91,2.02,1.99,2.02,1.51,0,2.47-.96,2.81-1.94.07-.22.12-.46.12-.67v-2.02Z" fill="#231f20"/>
    <path d="M870.43,178.54c0-1.37-.02-2.54-.1-3.62h1.85l.07,2.28h.1c.53-1.56,1.8-2.54,3.22-2.54.24,0,.41.02.6.07v1.99c-.22-.05-.43-.07-.72-.07-1.49,0-2.54,1.13-2.83,2.71-.05.29-.1.62-.1.98v6.19h-2.09v-7.99Z" fill="#231f20"/>
    <path d="M886.32,186.1c-.55.29-1.78.67-3.34.67-3.5,0-5.78-2.38-5.78-5.93s2.45-6.17,6.24-6.17c1.25,0,2.35.31,2.93.6l-.48,1.63c-.5-.29-1.3-.55-2.45-.55-2.67,0-4.11,1.97-4.11,4.39,0,2.69,1.73,4.34,4.03,4.34,1.2,0,1.99-.31,2.59-.58l.36,1.58Z" fill="#231f20"/>
    <path d="M888.79,169.5h2.11v7.25h.05c.34-.6.86-1.13,1.51-1.49.62-.36,1.37-.6,2.16-.6,1.56,0,4.06.96,4.06,4.97v6.91h-2.11v-6.67c0-1.87-.7-3.46-2.69-3.46-1.37,0-2.45.96-2.83,2.11-.12.29-.14.6-.14,1.01v7.01h-2.11v-17.04Z" fill="#231f20"/>
  </g>
  <rect x="115.13" y="165.42" width="554.33" height="106.64" fill="#1c75bc" stroke="#231f20" stroke-miterlimit="10" stroke-width=".51"/>
  <g>
    <path d="M217.98,218.5h-9.43v8.75h10.51v2.63h-13.64v-24.26h13.1v2.63h-9.97v7.67h9.43v2.59Z" fill="#fff"/>
    <path d="M224.5,212.45l2.48,3.74c.65.97,1.19,1.87,1.76,2.84h.11c.58-1.04,1.15-1.94,1.73-2.88l2.45-3.71h3.42l-5.94,8.42,6.12,9h-3.6l-2.56-3.92c-.68-1.01-1.26-1.98-1.87-3.02h-.07c-.58,1.04-1.19,1.98-1.84,3.02l-2.52,3.92h-3.49l6.19-8.89-5.9-8.53h3.53Z" fill="#fff"/>
    <path d="M239.69,218.14c0-2.23-.07-4.03-.14-5.69h2.84l.14,2.99h.07c1.3-2.12,3.35-3.38,6.19-3.38,4.21,0,7.38,3.56,7.38,8.85,0,6.26-3.82,9.36-7.92,9.36-2.3,0-4.32-1.01-5.36-2.74h-.07v9.47h-3.13v-18.86ZM242.82,222.78c0,.47.07.9.14,1.3.58,2.2,2.48,3.71,4.75,3.71,3.35,0,5.29-2.74,5.29-6.73,0-3.49-1.84-6.48-5.18-6.48-2.16,0-4.18,1.55-4.79,3.92-.11.4-.22.86-.22,1.3v2.99Z" fill="#fff"/>
    <path d="M261.94,221.74c.07,4.28,2.81,6.05,5.98,6.05,2.27,0,3.64-.4,4.82-.9l.54,2.27c-1.12.5-3.02,1.08-5.8,1.08-5.36,0-8.57-3.53-8.57-8.78s3.1-9.4,8.17-9.4c5.69,0,7.2,5,7.2,8.21,0,.65-.07,1.15-.11,1.48h-12.24ZM271.22,219.47c.04-2.02-.83-5.15-4.39-5.15-3.2,0-4.61,2.95-4.86,5.15h9.25Z" fill="#fff"/>
    <path d="M293.26,204.31v21.06c0,1.55.04,3.31.14,4.5h-2.84l-.14-3.02h-.07c-.97,1.94-3.1,3.42-5.94,3.42-4.21,0-7.45-3.56-7.45-8.85-.04-5.8,3.56-9.36,7.81-9.36,2.66,0,4.46,1.26,5.26,2.66h.07v-10.4h3.17ZM290.09,219.54c0-.4-.04-.94-.14-1.33-.47-2.02-2.2-3.67-4.57-3.67-3.28,0-5.22,2.88-5.22,6.73,0,3.53,1.73,6.44,5.15,6.44,2.12,0,4.07-1.4,4.64-3.78.11-.43.14-.86.14-1.37v-3.02Z" fill="#fff"/>
    <path d="M302.04,207.55c.04,1.08-.76,1.94-2.02,1.94-1.12,0-1.91-.86-1.91-1.94s.83-1.98,1.98-1.98,1.94.86,1.94,1.98ZM298.51,229.87v-17.42h3.17v17.42h-3.17Z" fill="#fff"/>
    <path d="M310.75,207.45v5h4.54v2.41h-4.54v9.4c0,2.16.61,3.38,2.38,3.38.83,0,1.44-.11,1.84-.22l.14,2.38c-.61.25-1.58.43-2.81.43-1.48,0-2.66-.47-3.42-1.33-.9-.94-1.22-2.48-1.22-4.54v-9.5h-2.7v-2.41h2.7v-4.18l3.1-.83Z" fill="#fff"/>
    <path d="M322.38,207.55c.04,1.08-.76,1.94-2.02,1.94-1.12,0-1.91-.86-1.91-1.94s.83-1.98,1.98-1.98,1.94.86,1.94,1.98ZM318.85,229.87v-17.42h3.17v17.42h-3.17Z" fill="#fff"/>
    <path d="M343.04,221.02c0,6.44-4.46,9.25-8.67,9.25-4.72,0-8.35-3.46-8.35-8.96,0-5.83,3.82-9.25,8.64-9.25s8.39,3.64,8.39,8.96ZM329.22,221.2c0,3.82,2.2,6.69,5.29,6.69s5.29-2.84,5.29-6.77c0-2.95-1.48-6.69-5.22-6.69s-5.36,3.46-5.36,6.77Z" fill="#fff"/>
    <path d="M347.04,217.16c0-1.8-.04-3.28-.14-4.72h2.81l.18,2.88h.07c.86-1.66,2.88-3.28,5.76-3.28,2.41,0,6.16,1.44,6.16,7.42v10.4h-3.17v-10.04c0-2.81-1.04-5.15-4.03-5.15-2.09,0-3.71,1.48-4.25,3.24-.14.4-.22.94-.22,1.48v10.47h-3.17v-12.71Z" fill="#fff"/>
    <path d="M376.67,229.87l-.25-2.2h-.11c-.97,1.37-2.84,2.59-5.33,2.59-3.53,0-5.33-2.48-5.33-5,0-4.21,3.74-6.52,10.47-6.48v-.36c0-1.44-.4-4.03-3.96-4.03-1.62,0-3.31.5-4.54,1.3l-.72-2.09c1.44-.94,3.53-1.55,5.72-1.55,5.33,0,6.62,3.64,6.62,7.13v6.52c0,1.51.07,2.99.29,4.18h-2.88ZM376.2,220.98c-3.46-.07-7.38.54-7.38,3.92,0,2.05,1.37,3.02,2.99,3.02,2.27,0,3.71-1.44,4.21-2.92.11-.32.18-.68.18-1.01v-3.02Z" fill="#fff"/>
    <path d="M384.37,217.88c0-2.05-.04-3.82-.14-5.44h2.77l.11,3.42h.14c.79-2.34,2.7-3.82,4.82-3.82.36,0,.61.04.9.11v2.99c-.32-.07-.65-.11-1.08-.11-2.23,0-3.82,1.69-4.25,4.07-.07.43-.14.94-.14,1.48v9.29h-3.13v-11.99Z" fill="#fff"/>
    <path d="M398.19,212.45l3.82,10.29c.4,1.15.83,2.52,1.12,3.56h.07c.32-1.04.68-2.38,1.12-3.64l3.46-10.22h3.35l-4.75,12.42c-2.27,5.98-3.82,9.04-5.98,10.91-1.55,1.37-3.1,1.91-3.89,2.05l-.79-2.66c.79-.25,1.84-.76,2.77-1.55.86-.68,1.94-1.91,2.66-3.53.14-.32.25-.58.25-.76s-.07-.43-.22-.83l-6.44-16.05h3.46Z" fill="#fff"/>
    <path d="M424.87,205.61v24.26h-3.13v-24.26h3.13Z" fill="#fff"/>
    <path d="M430.59,217.16c0-1.8-.04-3.28-.14-4.72h2.81l.18,2.88h.07c.86-1.66,2.88-3.28,5.76-3.28,2.41,0,6.16,1.44,6.16,7.42v10.4h-3.17v-10.04c0-2.81-1.04-5.15-4.03-5.15-2.09,0-3.71,1.48-4.25,3.24-.14.4-.22.94-.22,1.48v10.47h-3.17v-12.71Z" fill="#fff"/>
    <path d="M450.57,217.16c0-1.8-.04-3.28-.14-4.72h2.81l.18,2.88h.07c.86-1.66,2.88-3.28,5.76-3.28,2.41,0,6.16,1.44,6.16,7.42v10.4h-3.17v-10.04c0-2.81-1.04-5.15-4.03-5.15-2.09,0-3.71,1.48-4.25,3.24-.14.4-.22.94-.22,1.48v10.47h-3.17v-12.71Z" fill="#fff"/>
    <path d="M486.32,221.02c0,6.44-4.46,9.25-8.67,9.25-4.72,0-8.35-3.46-8.35-8.96,0-5.83,3.82-9.25,8.64-9.25s8.39,3.64,8.39,8.96ZM472.5,221.2c0,3.82,2.2,6.69,5.29,6.69s5.29-2.84,5.29-6.77c0-2.95-1.48-6.69-5.22-6.69s-5.36,3.46-5.36,6.77Z" fill="#fff"/>
    <path d="M491.29,212.45l3.42,9.79c.58,1.58,1.04,3.02,1.4,4.46h.11c.4-1.44.9-2.88,1.48-4.46l3.38-9.79h3.31l-6.84,17.42h-3.02l-6.62-17.42h3.38Z" fill="#fff"/>
    <path d="M516.88,229.87l-.25-2.2h-.11c-.97,1.37-2.84,2.59-5.33,2.59-3.53,0-5.33-2.48-5.33-5,0-4.21,3.74-6.52,10.47-6.48v-.36c0-1.44-.4-4.03-3.96-4.03-1.62,0-3.31.5-4.54,1.3l-.72-2.09c1.44-.94,3.53-1.55,5.72-1.55,5.33,0,6.62,3.64,6.62,7.13v6.52c0,1.51.07,2.99.29,4.18h-2.88ZM516.42,220.98c-3.46-.07-7.38.54-7.38,3.92,0,2.05,1.37,3.02,2.99,3.02,2.27,0,3.71-1.44,4.21-2.92.11-.32.18-.68.18-1.01v-3.02Z" fill="#fff"/>
    <path d="M528.26,207.45v5h4.54v2.41h-4.54v9.4c0,2.16.61,3.38,2.38,3.38.83,0,1.44-.11,1.84-.22l.14,2.38c-.61.25-1.58.43-2.81.43-1.48,0-2.66-.47-3.42-1.33-.9-.94-1.22-2.48-1.22-4.54v-9.5h-2.7v-2.41h2.7v-4.18l3.1-.83Z" fill="#fff"/>
    <path d="M539.89,207.55c.04,1.08-.76,1.94-2.02,1.94-1.12,0-1.91-.86-1.91-1.94s.83-1.98,1.98-1.98,1.94.86,1.94,1.98ZM536.36,229.87v-17.42h3.17v17.42h-3.17Z" fill="#fff"/>
    <path d="M560.55,221.02c0,6.44-4.46,9.25-8.67,9.25-4.72,0-8.35-3.46-8.35-8.96,0-5.83,3.82-9.25,8.64-9.25s8.39,3.64,8.39,8.96ZM546.73,221.2c0,3.82,2.2,6.69,5.29,6.69s5.29-2.84,5.29-6.77c0-2.95-1.48-6.69-5.22-6.69s-5.36,3.46-5.36,6.77Z" fill="#fff"/>
    <path d="M564.55,217.16c0-1.8-.04-3.28-.14-4.72h2.81l.18,2.88h.07c.86-1.66,2.88-3.28,5.76-3.28,2.41,0,6.15,1.44,6.15,7.42v10.4h-3.17v-10.04c0-2.81-1.04-5.15-4.03-5.15-2.09,0-3.71,1.48-4.25,3.24-.14.4-.22.94-.22,1.48v10.47h-3.17v-12.71Z" fill="#fff"/>
  </g>
  <g>
    <path d="M38.39,74.77h2.09v7.8h.07c.43-.62.86-1.2,1.27-1.73l4.94-6.07h2.59l-5.86,6.86,6.31,9.31h-2.47l-5.33-7.94-1.54,1.78v6.17h-2.09v-16.18Z" fill="#231f20"/>
    <path d="M51.57,82.47c0-1.2-.02-2.18-.1-3.14h1.87l.12,1.92h.05c.58-1.1,1.92-2.18,3.84-2.18,1.61,0,4.1.96,4.1,4.94v6.94h-2.11v-6.7c0-1.87-.7-3.43-2.69-3.43-1.39,0-2.47.98-2.83,2.16-.1.26-.14.62-.14.98v6.98h-2.11v-8.47Z" fill="#231f20"/>
    <path d="M75.4,85.04c0,4.3-2.98,6.17-5.78,6.17-3.14,0-5.57-2.3-5.57-5.98,0-3.89,2.54-6.17,5.76-6.17s5.59,2.42,5.59,5.98ZM66.18,85.16c0,2.54,1.46,4.46,3.53,4.46s3.53-1.9,3.53-4.51c0-1.97-.98-4.46-3.48-4.46s-3.58,2.3-3.58,4.51Z" fill="#231f20"/>
    <path d="M78.74,79.33l1.54,5.9c.34,1.3.65,2.5.86,3.7h.07c.26-1.18.65-2.42,1.03-3.67l1.9-5.93h1.78l1.8,5.81c.43,1.39.77,2.62,1.03,3.79h.07c.19-1.18.5-2.4.89-3.77l1.66-5.83h2.09l-3.74,11.62h-1.92l-1.78-5.54c-.41-1.3-.74-2.45-1.03-3.82h-.05c-.29,1.39-.65,2.59-1.06,3.84l-1.87,5.52h-1.92l-3.5-11.62h2.16Z" fill="#231f20"/>
    <path d="M95.56,82.47c0-1.2-.02-2.18-.1-3.14h1.87l.12,1.92h.05c.58-1.1,1.92-2.18,3.84-2.18,1.61,0,4.1.96,4.1,4.94v6.94h-2.11v-6.7c0-1.87-.7-3.43-2.69-3.43-1.39,0-2.47.98-2.83,2.16-.1.26-.14.62-.14.98v6.98h-2.11v-8.47Z" fill="#231f20"/>
    <path d="M22.82,119.31c-.55.29-1.78.67-3.34.67-3.5,0-5.78-2.38-5.78-5.93s2.45-6.17,6.24-6.17c1.25,0,2.35.31,2.93.6l-.48,1.63c-.5-.29-1.3-.55-2.45-.55-2.66,0-4.1,1.97-4.1,4.39,0,2.69,1.73,4.34,4.03,4.34,1.2,0,1.99-.31,2.59-.58l.36,1.58Z" fill="#231f20"/>
    <path d="M35.01,116.58c0,1.2.02,2.26.1,3.17h-1.87l-.12-1.9h-.05c-.55.94-1.78,2.16-3.84,2.16-1.82,0-4.01-1.01-4.01-5.09v-6.79h2.11v6.43c0,2.21.67,3.7,2.59,3.7,1.42,0,2.4-.98,2.78-1.92.12-.31.19-.7.19-1.08v-7.13h2.11v8.45Z" fill="#231f20"/>
    <path d="M38.22,117.59c.62.41,1.73.84,2.78.84,1.54,0,2.26-.77,2.26-1.73,0-1.01-.6-1.56-2.16-2.14-2.09-.74-3.07-1.9-3.07-3.29,0-1.87,1.51-3.41,4.01-3.41,1.18,0,2.21.34,2.86.72l-.53,1.54c-.46-.29-1.3-.67-2.38-.67-1.25,0-1.94.72-1.94,1.58,0,.96.7,1.39,2.21,1.97,2.02.77,3.05,1.78,3.05,3.5,0,2.04-1.58,3.48-4.34,3.48-1.27,0-2.45-.31-3.26-.79l.53-1.61Z" fill="#231f20"/>
    <path d="M50.56,104.79v3.34h3.02v1.61h-3.02v6.26c0,1.44.41,2.26,1.58,2.26.55,0,.96-.07,1.22-.14l.1,1.58c-.41.17-1.06.29-1.87.29-.98,0-1.78-.31-2.28-.89-.6-.62-.82-1.66-.82-3.02v-6.34h-1.8v-1.61h1.8v-2.78l2.06-.55Z" fill="#231f20"/>
    <path d="M66.33,113.84c0,4.3-2.98,6.17-5.78,6.17-3.14,0-5.57-2.3-5.57-5.98,0-3.89,2.54-6.17,5.76-6.17s5.59,2.42,5.59,5.98ZM57.11,113.96c0,2.54,1.46,4.46,3.53,4.46s3.53-1.9,3.53-4.51c0-1.97-.98-4.46-3.48-4.46s-3.58,2.3-3.58,4.51Z" fill="#231f20"/>
    <path d="M68.99,111.27c0-1.2-.02-2.18-.1-3.14h1.85l.1,1.87h.07c.65-1.1,1.73-2.14,3.65-2.14,1.58,0,2.78.96,3.29,2.33h.05c.36-.65.82-1.15,1.3-1.51.7-.53,1.46-.82,2.57-.82,1.54,0,3.82,1.01,3.82,5.04v6.84h-2.06v-6.58c0-2.23-.82-3.58-2.52-3.58-1.2,0-2.14.89-2.5,1.92-.1.29-.17.67-.17,1.06v7.18h-2.06v-6.96c0-1.85-.82-3.19-2.42-3.19-1.32,0-2.28,1.06-2.62,2.11-.12.31-.17.67-.17,1.03v7.01h-2.06v-8.47Z" fill="#231f20"/>
    <path d="M90.18,114.32c.05,2.86,1.87,4.03,3.98,4.03,1.51,0,2.42-.26,3.22-.6l.36,1.51c-.74.34-2.02.72-3.86.72-3.58,0-5.71-2.35-5.71-5.86s2.06-6.26,5.45-6.26c3.79,0,4.8,3.34,4.8,5.47,0,.43-.05.77-.07.98h-8.16ZM96.38,112.81c.02-1.34-.55-3.43-2.93-3.43-2.14,0-3.07,1.97-3.24,3.43h6.17Z" fill="#231f20"/>
    <path d="M101.03,111.75c0-1.37-.02-2.54-.1-3.62h1.85l.07,2.28h.1c.53-1.56,1.8-2.54,3.22-2.54.24,0,.41.02.6.07v1.99c-.22-.05-.43-.07-.72-.07-1.49,0-2.54,1.13-2.83,2.71-.05.29-.1.62-.1.98v6.19h-2.09v-7.99Z" fill="#231f20"/>
    <path d="M57.98,140.07c0-1.2-.02-2.18-.1-3.14h1.87l.12,1.92h.05c.58-1.1,1.92-2.18,3.84-2.18,1.61,0,4.1.96,4.1,4.94v6.94h-2.11v-6.7c0-1.87-.7-3.43-2.69-3.43-1.39,0-2.47.98-2.83,2.16-.1.26-.14.62-.14.98v6.98h-2.11v-8.47Z" fill="#231f20"/>
    <path d="M72.47,143.12c.05,2.86,1.87,4.03,3.98,4.03,1.51,0,2.42-.26,3.22-.6l.36,1.51c-.74.34-2.02.72-3.86.72-3.58,0-5.71-2.35-5.71-5.86s2.06-6.26,5.45-6.26c3.79,0,4.8,3.34,4.8,5.47,0,.43-.05.77-.07.98h-8.16ZM78.67,141.61c.02-1.34-.55-3.43-2.93-3.43-2.14,0-3.07,1.97-3.24,3.43h6.17Z" fill="#231f20"/>
    <path d="M84.5,143.12c.05,2.86,1.87,4.03,3.98,4.03,1.51,0,2.42-.26,3.22-.6l.36,1.51c-.74.34-2.02.72-3.86.72-3.58,0-5.71-2.35-5.71-5.86s2.06-6.26,5.45-6.26c3.79,0,4.8,3.34,4.8,5.47,0,.43-.05.77-.07.98h-8.16ZM90.69,141.61c.02-1.34-.55-3.43-2.93-3.43-2.14,0-3.07,1.97-3.24,3.43h6.17Z" fill="#231f20"/>
    <path d="M105.38,131.51v14.04c0,1.03.02,2.21.1,3h-1.9l-.1-2.02h-.05c-.65,1.3-2.06,2.28-3.96,2.28-2.81,0-4.97-2.38-4.97-5.9-.02-3.86,2.38-6.24,5.21-6.24,1.78,0,2.98.84,3.5,1.78h.05v-6.94h2.11ZM103.27,141.66c0-.26-.02-.62-.1-.89-.31-1.34-1.46-2.45-3.05-2.45-2.18,0-3.48,1.92-3.48,4.49,0,2.35,1.15,4.3,3.43,4.3,1.42,0,2.71-.94,3.1-2.52.07-.29.1-.58.1-.91v-2.02Z" fill="#231f20"/>
  </g>
  <g>
    <path d="M13.22,183.56v9.58c0,3.62,1.61,5.16,3.77,5.16,2.4,0,3.94-1.58,3.94-5.16v-9.58h2.11v9.43c0,4.97-2.62,7.01-6.12,7.01-3.31,0-5.81-1.9-5.81-6.91v-9.53h2.11Z" fill="#231f20"/>
    <path d="M26.59,191.27c0-1.2-.02-2.18-.1-3.14h1.87l.12,1.92h.05c.58-1.1,1.92-2.18,3.84-2.18,1.61,0,4.1.96,4.1,4.94v6.94h-2.11v-6.7c0-1.87-.7-3.43-2.69-3.43-1.39,0-2.47.98-2.83,2.16-.1.26-.14.62-.14.98v6.98h-2.11v-8.47Z" fill="#231f20"/>
    <path d="M41.99,193.45h.05c.29-.41.7-.91,1.03-1.32l3.41-4.01h2.54l-4.49,4.78,5.11,6.84h-2.57l-4.01-5.57-1.08,1.2v4.37h-2.09v-17.04h2.09v10.75Z" fill="#231f20"/>
    <path d="M51.57,191.27c0-1.2-.02-2.18-.1-3.14h1.87l.12,1.92h.05c.58-1.1,1.92-2.18,3.84-2.18,1.61,0,4.1.96,4.1,4.94v6.94h-2.11v-6.7c0-1.87-.7-3.43-2.69-3.43-1.39,0-2.47.98-2.83,2.16-.1.26-.14.62-.14.98v6.98h-2.11v-8.47Z" fill="#231f20"/>
    <path d="M75.4,193.84c0,4.3-2.98,6.17-5.78,6.17-3.14,0-5.57-2.3-5.57-5.98,0-3.89,2.54-6.17,5.76-6.17s5.59,2.42,5.59,5.98ZM66.18,193.96c0,2.54,1.46,4.46,3.53,4.46s3.53-1.9,3.53-4.51c0-1.97-.98-4.46-3.48-4.46s-3.58,2.3-3.58,4.51Z" fill="#231f20"/>
    <path d="M78.74,188.12l1.54,5.9c.34,1.3.65,2.5.86,3.7h.07c.26-1.18.65-2.42,1.03-3.67l1.9-5.93h1.78l1.8,5.81c.43,1.39.77,2.62,1.03,3.79h.07c.19-1.18.5-2.4.89-3.77l1.66-5.83h2.09l-3.74,11.62h-1.92l-1.78-5.54c-.41-1.3-.74-2.45-1.03-3.82h-.05c-.29,1.39-.65,2.59-1.06,3.84l-1.87,5.52h-1.92l-3.5-11.62h2.16Z" fill="#231f20"/>
    <path d="M95.56,191.27c0-1.2-.02-2.18-.1-3.14h1.87l.12,1.92h.05c.58-1.1,1.92-2.18,3.84-2.18,1.61,0,4.1.96,4.1,4.94v6.94h-2.11v-6.7c0-1.87-.7-3.43-2.69-3.43-1.39,0-2.47.98-2.83,2.16-.1.26-.14.62-.14.98v6.98h-2.11v-8.47Z" fill="#231f20"/>
    <path d="M22.82,228.11c-.55.29-1.78.67-3.34.67-3.5,0-5.78-2.38-5.78-5.93s2.45-6.17,6.24-6.17c1.25,0,2.35.31,2.93.6l-.48,1.63c-.5-.29-1.3-.55-2.45-.55-2.66,0-4.1,1.97-4.1,4.39,0,2.69,1.73,4.34,4.03,4.34,1.2,0,1.99-.31,2.59-.58l.36,1.58Z" fill="#231f20"/>
    <path d="M35.01,225.37c0,1.2.02,2.26.1,3.17h-1.87l-.12-1.9h-.05c-.55.94-1.78,2.16-3.84,2.16-1.82,0-4.01-1.01-4.01-5.09v-6.79h2.11v6.43c0,2.21.67,3.7,2.59,3.7,1.42,0,2.4-.98,2.78-1.92.12-.31.19-.7.19-1.08v-7.13h2.11v8.45Z" fill="#231f20"/>
    <path d="M38.22,226.38c.62.41,1.73.84,2.78.84,1.54,0,2.26-.77,2.26-1.73,0-1.01-.6-1.56-2.16-2.14-2.09-.74-3.07-1.9-3.07-3.29,0-1.87,1.51-3.41,4.01-3.41,1.18,0,2.21.34,2.86.72l-.53,1.54c-.46-.29-1.3-.67-2.38-.67-1.25,0-1.94.72-1.94,1.58,0,.96.7,1.39,2.21,1.97,2.02.77,3.05,1.78,3.05,3.5,0,2.04-1.58,3.48-4.34,3.48-1.27,0-2.45-.31-3.26-.79l.53-1.61Z" fill="#231f20"/>
    <path d="M50.56,213.59v3.34h3.02v1.61h-3.02v6.26c0,1.44.41,2.26,1.58,2.26.55,0,.96-.07,1.22-.14l.1,1.58c-.41.17-1.06.29-1.87.29-.98,0-1.78-.31-2.28-.89-.6-.62-.82-1.66-.82-3.02v-6.34h-1.8v-1.61h1.8v-2.78l2.06-.55Z" fill="#231f20"/>
    <path d="M66.33,222.64c0,4.3-2.98,6.17-5.78,6.17-3.14,0-5.57-2.3-5.57-5.98,0-3.89,2.54-6.17,5.76-6.17s5.59,2.42,5.59,5.98ZM57.11,222.76c0,2.54,1.46,4.46,3.53,4.46s3.53-1.9,3.53-4.51c0-1.97-.98-4.46-3.48-4.46s-3.58,2.3-3.58,4.51Z" fill="#231f20"/>
    <path d="M68.99,220.07c0-1.2-.02-2.18-.1-3.14h1.85l.1,1.87h.07c.65-1.1,1.73-2.14,3.65-2.14,1.58,0,2.78.96,3.29,2.33h.05c.36-.65.82-1.15,1.3-1.51.7-.53,1.46-.82,2.57-.82,1.54,0,3.82,1.01,3.82,5.04v6.84h-2.06v-6.58c0-2.23-.82-3.58-2.52-3.58-1.2,0-2.14.89-2.5,1.92-.1.29-.17.67-.17,1.06v7.18h-2.06v-6.96c0-1.85-.82-3.19-2.42-3.19-1.32,0-2.28,1.06-2.62,2.11-.12.31-.17.67-.17,1.03v7.01h-2.06v-8.47Z" fill="#231f20"/>
    <path d="M90.18,223.12c.05,2.86,1.87,4.03,3.98,4.03,1.51,0,2.42-.26,3.22-.6l.36,1.51c-.74.34-2.02.72-3.86.72-3.58,0-5.71-2.35-5.71-5.86s2.06-6.26,5.45-6.26c3.79,0,4.8,3.34,4.8,5.47,0,.43-.05.77-.07.98h-8.16ZM96.38,221.6c.02-1.34-.55-3.43-2.93-3.43-2.14,0-3.07,1.97-3.24,3.43h6.17Z" fill="#231f20"/>
    <path d="M101.03,220.55c0-1.37-.02-2.54-.1-3.62h1.85l.07,2.28h.1c.53-1.56,1.8-2.54,3.22-2.54.24,0,.41.02.6.07v1.99c-.22-.05-.43-.07-.72-.07-1.49,0-2.54,1.13-2.83,2.71-.05.29-.1.62-.1.98v6.19h-2.09v-7.99Z" fill="#231f20"/>
    <path d="M57.98,248.87c0-1.2-.02-2.18-.1-3.14h1.87l.12,1.92h.05c.58-1.1,1.92-2.18,3.84-2.18,1.61,0,4.1.96,4.1,4.94v6.94h-2.11v-6.7c0-1.87-.7-3.43-2.69-3.43-1.39,0-2.47.98-2.83,2.16-.1.26-.14.62-.14.98v6.98h-2.11v-8.47Z" fill="#231f20"/>
    <path d="M72.47,251.92c.05,2.86,1.87,4.03,3.98,4.03,1.51,0,2.42-.26,3.22-.6l.36,1.51c-.74.34-2.02.72-3.86.72-3.58,0-5.71-2.35-5.71-5.86s2.06-6.26,5.45-6.26c3.79,0,4.8,3.34,4.8,5.47,0,.43-.05.77-.07.98h-8.16ZM78.67,250.4c.02-1.34-.55-3.43-2.93-3.43-2.14,0-3.07,1.97-3.24,3.43h6.17Z" fill="#231f20"/>
    <path d="M84.5,251.92c.05,2.86,1.87,4.03,3.98,4.03,1.51,0,2.42-.26,3.22-.6l.36,1.51c-.74.34-2.02.72-3.86.72-3.58,0-5.71-2.35-5.71-5.86s2.06-6.26,5.45-6.26c3.79,0,4.8,3.34,4.8,5.47,0,.43-.05.77-.07.98h-8.16ZM90.69,250.4c.02-1.34-.55-3.43-2.93-3.43-2.14,0-3.07,1.97-3.24,3.43h6.17Z" fill="#231f20"/>
    <path d="M105.38,240.3v14.04c0,1.03.02,2.21.1,3h-1.9l-.1-2.02h-.05c-.65,1.3-2.06,2.28-3.96,2.28-2.81,0-4.97-2.38-4.97-5.9-.02-3.86,2.38-6.24,5.21-6.24,1.78,0,2.98.84,3.5,1.78h.05v-6.94h2.11ZM103.27,250.45c0-.26-.02-.62-.1-.89-.31-1.34-1.46-2.45-3.05-2.45-2.18,0-3.48,1.92-3.48,4.49,0,2.35,1.15,4.3,3.43,4.3,1.42,0,2.71-.94,3.1-2.52.07-.29.1-.58.1-.91v-2.02Z" fill="#231f20"/>
  </g>
  <g>
    <path d="M177.8,32.96h2.09v7.8h.07c.43-.62.86-1.2,1.27-1.73l4.94-6.07h2.59l-5.86,6.86,6.31,9.31h-2.47l-5.33-7.94-1.54,1.78v6.17h-2.09v-16.18Z" fill="#231f20"/>
    <path d="M190.97,40.67c0-1.2-.02-2.18-.1-3.14h1.87l.12,1.92h.05c.58-1.1,1.92-2.18,3.84-2.18,1.61,0,4.1.96,4.1,4.94v6.94h-2.11v-6.7c0-1.87-.7-3.43-2.69-3.43-1.39,0-2.47.98-2.83,2.16-.1.26-.14.62-.14.98v6.98h-2.11v-8.47Z" fill="#231f20"/>
    <path d="M214.81,43.24c0,4.3-2.98,6.17-5.78,6.17-3.14,0-5.57-2.3-5.57-5.98,0-3.89,2.54-6.17,5.76-6.17s5.59,2.42,5.59,5.98ZM205.59,43.36c0,2.54,1.46,4.46,3.53,4.46s3.53-1.9,3.53-4.51c0-1.97-.98-4.46-3.48-4.46s-3.58,2.3-3.58,4.51Z" fill="#231f20"/>
    <path d="M218.14,37.52l1.54,5.9c.34,1.3.65,2.5.86,3.7h.07c.26-1.18.65-2.42,1.03-3.67l1.9-5.93h1.78l1.8,5.81c.43,1.39.77,2.62,1.03,3.79h.07c.19-1.18.5-2.4.89-3.77l1.66-5.83h2.09l-3.74,11.62h-1.92l-1.78-5.54c-.41-1.3-.74-2.45-1.03-3.82h-.05c-.29,1.39-.65,2.59-1.06,3.84l-1.87,5.52h-1.92l-3.5-11.62h2.16Z" fill="#231f20"/>
    <path d="M234.97,40.67c0-1.2-.02-2.18-.1-3.14h1.87l.12,1.92h.05c.58-1.1,1.92-2.18,3.84-2.18,1.61,0,4.1.96,4.1,4.94v6.94h-2.11v-6.7c0-1.87-.7-3.43-2.69-3.43-1.39,0-2.47.98-2.83,2.16-.1.26-.14.62-.14.98v6.98h-2.11v-8.47Z" fill="#231f20"/>
    <path d="M253.09,46.98c.62.41,1.73.84,2.78.84,1.54,0,2.26-.77,2.26-1.73,0-1.01-.6-1.56-2.16-2.14-2.09-.74-3.07-1.9-3.07-3.29,0-1.87,1.51-3.41,4.01-3.41,1.18,0,2.21.34,2.86.72l-.53,1.54c-.46-.29-1.3-.67-2.38-.67-1.25,0-1.94.72-1.94,1.58,0,.96.7,1.39,2.21,1.97,2.02.77,3.05,1.78,3.05,3.5,0,2.04-1.58,3.48-4.34,3.48-1.27,0-2.45-.31-3.26-.79l.53-1.61Z" fill="#231f20"/>
    <path d="M273.39,43.24c0,4.3-2.98,6.17-5.78,6.17-3.14,0-5.57-2.3-5.57-5.98,0-3.89,2.54-6.17,5.76-6.17s5.59,2.42,5.59,5.98ZM264.17,43.36c0,2.54,1.46,4.46,3.53,4.46s3.53-1.9,3.53-4.51c0-1.97-.98-4.46-3.48-4.46s-3.58,2.3-3.58,4.51Z" fill="#231f20"/>
    <path d="M276.05,32.1h2.11v17.04h-2.11v-17.04Z" fill="#231f20"/>
    <path d="M291.44,45.97c0,1.2.02,2.26.1,3.17h-1.87l-.12-1.9h-.05c-.55.94-1.78,2.16-3.84,2.16-1.82,0-4.01-1.01-4.01-5.09v-6.79h2.11v6.43c0,2.21.67,3.7,2.59,3.7,1.42,0,2.4-.98,2.78-1.92.12-.31.19-.7.19-1.08v-7.13h2.11v8.45Z" fill="#231f20"/>
    <path d="M297.49,34.19v3.34h3.02v1.61h-3.02v6.26c0,1.44.41,2.26,1.58,2.26.55,0,.96-.07,1.22-.14l.1,1.58c-.41.17-1.06.29-1.87.29-.98,0-1.78-.31-2.28-.89-.6-.62-.82-1.66-.82-3.02v-6.34h-1.8v-1.61h1.8v-2.78l2.06-.55Z" fill="#231f20"/>
    <path d="M305.24,34.26c.02.72-.5,1.3-1.34,1.3-.74,0-1.27-.58-1.27-1.3s.55-1.32,1.32-1.32,1.3.58,1.3,1.32ZM302.88,49.14v-11.62h2.11v11.62h-2.11Z" fill="#231f20"/>
    <path d="M319.01,43.24c0,4.3-2.98,6.17-5.78,6.17-3.14,0-5.57-2.3-5.57-5.98,0-3.89,2.54-6.17,5.76-6.17s5.59,2.42,5.59,5.98ZM309.8,43.36c0,2.54,1.46,4.46,3.53,4.46s3.53-1.9,3.53-4.51c0-1.97-.98-4.46-3.48-4.46s-3.58,2.3-3.58,4.51Z" fill="#231f20"/>
    <path d="M321.68,40.67c0-1.2-.02-2.18-.1-3.14h1.87l.12,1.92h.05c.58-1.1,1.92-2.18,3.84-2.18,1.61,0,4.1.96,4.1,4.94v6.94h-2.11v-6.7c0-1.87-.7-3.43-2.69-3.43-1.39,0-2.47.98-2.83,2.16-.1.26-.14.62-.14.98v6.98h-2.11v-8.47Z" fill="#231f20"/>
  </g>
  <g>
    <path d="M449.38,8.23v9.58c0,3.62,1.61,5.16,3.77,5.16,2.4,0,3.94-1.58,3.94-5.16v-9.58h2.11v9.43c0,4.97-2.62,7.01-6.12,7.01-3.31,0-5.81-1.9-5.81-6.91v-9.53h2.11Z" fill="#231f20"/>
    <path d="M462.75,15.94c0-1.2-.02-2.18-.1-3.14h1.87l.12,1.92h.05c.58-1.1,1.92-2.18,3.84-2.18,1.61,0,4.1.96,4.1,4.94v6.94h-2.11v-6.7c0-1.87-.7-3.43-2.69-3.43-1.39,0-2.47.98-2.83,2.16-.1.26-.14.62-.14.98v6.98h-2.11v-8.47Z" fill="#231f20"/>
    <path d="M478.16,18.12h.05c.29-.41.7-.91,1.03-1.32l3.41-4.01h2.54l-4.49,4.78,5.11,6.84h-2.57l-4.01-5.57-1.08,1.2v4.37h-2.09V7.37h2.09v10.75Z" fill="#231f20"/>
    <path d="M497.84,18.5c0,4.3-2.98,6.17-5.78,6.17-3.14,0-5.57-2.3-5.57-5.98,0-3.89,2.54-6.17,5.76-6.17s5.59,2.42,5.59,5.98ZM488.62,18.62c0,2.54,1.46,4.46,3.53,4.46s3.53-1.9,3.53-4.51c0-1.97-.98-4.46-3.48-4.46s-3.58,2.3-3.58,4.51Z" fill="#231f20"/>
    <path d="M501.18,12.79l1.54,5.9c.34,1.3.65,2.5.86,3.7h.07c.26-1.18.65-2.42,1.03-3.67l1.9-5.93h1.78l1.8,5.81c.43,1.39.77,2.62,1.03,3.79h.07c.19-1.18.5-2.4.89-3.77l1.66-5.83h2.09l-3.74,11.62h-1.92l-1.78-5.54c-.41-1.3-.74-2.45-1.03-3.82h-.05c-.29,1.39-.65,2.59-1.06,3.84l-1.87,5.52h-1.92l-3.5-11.62h2.16Z" fill="#231f20"/>
    <path d="M518,15.94c0-1.2-.02-2.18-.1-3.14h1.87l.12,1.92h.05c.58-1.1,1.92-2.18,3.84-2.18,1.61,0,4.11.96,4.11,4.94v6.94h-2.11v-6.7c0-1.87-.7-3.43-2.69-3.43-1.39,0-2.47.98-2.83,2.16-.1.26-.14.62-.14.98v6.98h-2.11v-8.47Z" fill="#231f20"/>
    <path d="M536.12,22.25c.62.41,1.73.84,2.78.84,1.54,0,2.26-.77,2.26-1.73,0-1.01-.6-1.56-2.16-2.14-2.09-.74-3.07-1.9-3.07-3.29,0-1.87,1.51-3.41,4.01-3.41,1.18,0,2.21.34,2.86.72l-.53,1.54c-.46-.29-1.3-.67-2.38-.67-1.25,0-1.94.72-1.94,1.58,0,.96.7,1.39,2.21,1.97,2.02.77,3.05,1.78,3.05,3.5,0,2.04-1.58,3.48-4.34,3.48-1.27,0-2.45-.31-3.26-.79l.53-1.61Z" fill="#231f20"/>
    <path d="M556.42,18.5c0,4.3-2.98,6.17-5.79,6.17-3.14,0-5.57-2.3-5.57-5.98,0-3.89,2.54-6.17,5.76-6.17s5.59,2.42,5.59,5.98ZM547.21,18.62c0,2.54,1.46,4.46,3.53,4.46s3.53-1.9,3.53-4.51c0-1.97-.98-4.46-3.48-4.46s-3.58,2.3-3.58,4.51Z" fill="#231f20"/>
    <path d="M559.09,7.37h2.11v17.04h-2.11V7.37Z" fill="#231f20"/>
    <path d="M574.47,21.24c0,1.2.02,2.26.1,3.17h-1.87l-.12-1.9h-.05c-.55.94-1.78,2.16-3.84,2.16-1.82,0-4.01-1.01-4.01-5.09v-6.79h2.11v6.43c0,2.21.67,3.7,2.59,3.7,1.42,0,2.4-.98,2.78-1.92.12-.31.19-.7.19-1.08v-7.13h2.11v8.45Z" fill="#231f20"/>
    <path d="M580.52,9.46v3.34h3.02v1.61h-3.02v6.26c0,1.44.41,2.26,1.58,2.26.55,0,.96-.07,1.22-.14l.1,1.58c-.41.17-1.06.29-1.87.29-.98,0-1.78-.31-2.28-.89-.6-.62-.82-1.66-.82-3.02v-6.34h-1.8v-1.61h1.8v-2.78l2.06-.55Z" fill="#231f20"/>
    <path d="M588.27,9.53c.02.72-.5,1.3-1.34,1.3-.74,0-1.27-.58-1.27-1.3s.55-1.32,1.32-1.32,1.3.58,1.3,1.32ZM585.92,24.41v-11.62h2.11v11.62h-2.11Z" fill="#231f20"/>
    <path d="M602.05,18.5c0,4.3-2.98,6.17-5.79,6.17-3.14,0-5.57-2.3-5.57-5.98,0-3.89,2.54-6.17,5.76-6.17s5.59,2.42,5.59,5.98ZM592.83,18.62c0,2.54,1.46,4.46,3.53,4.46s3.53-1.9,3.53-4.51c0-1.97-.98-4.46-3.48-4.46s-3.58,2.3-3.58,4.51Z" fill="#231f20"/>
    <path d="M604.71,15.94c0-1.2-.02-2.18-.1-3.14h1.87l.12,1.92h.05c.58-1.1,1.92-2.18,3.84-2.18,1.61,0,4.11.96,4.11,4.94v6.94h-2.11v-6.7c0-1.87-.7-3.43-2.69-3.43-1.39,0-2.47.98-2.83,2.16-.1.26-.14.62-.14.98v6.98h-2.11v-8.47Z" fill="#231f20"/>
    <path d="M476.27,35.04c-1.53,2.06-2.65,4.79-2.65,8.59s1.15,6.42,2.65,8.52h-1.45c-1.32-1.74-2.75-4.43-2.75-8.52.02-4.14,1.43-6.82,2.75-8.59h1.45Z" fill="#231f20"/>
    <path d="M478.96,39.45l1.34,5.17c.29,1.13.57,2.18.76,3.23h.06c.23-1.03.57-2.12.9-3.21l1.66-5.19h1.55l1.58,5.08c.38,1.22.67,2.29.9,3.32h.06c.17-1.03.44-2.1.78-3.3l1.45-5.1h1.83l-3.28,10.16h-1.68l-1.55-4.85c-.36-1.13-.65-2.14-.9-3.34h-.04c-.25,1.22-.57,2.27-.92,3.36l-1.64,4.83h-1.68l-3.07-10.16h1.89Z" fill="#231f20"/>
    <path d="M495.74,36.59c.02.63-.44,1.13-1.18,1.13-.65,0-1.11-.5-1.11-1.13s.48-1.15,1.15-1.15,1.13.5,1.13,1.15ZM493.68,49.61v-10.16h1.85v10.16h-1.85Z" fill="#231f20"/>
    <path d="M500.82,36.53v2.92h2.65v1.41h-2.65v5.48c0,1.26.36,1.97,1.39,1.97.48,0,.84-.06,1.07-.13l.08,1.39c-.36.15-.92.25-1.64.25-.86,0-1.55-.27-2-.78-.52-.55-.71-1.45-.71-2.65v-5.54h-1.57v-1.41h1.57v-2.44l1.81-.48Z" fill="#231f20"/>
    <path d="M505.55,34.7h1.85v6.34h.04c.29-.52.76-.99,1.32-1.3.54-.31,1.2-.52,1.89-.52,1.37,0,3.55.84,3.55,4.35v6.05h-1.85v-5.84c0-1.64-.61-3.02-2.35-3.02-1.2,0-2.14.84-2.48,1.85-.1.25-.13.52-.13.88v6.13h-1.85v-14.91Z" fill="#231f20"/>
    <path d="M519.26,36.59c.02.63-.44,1.13-1.18,1.13-.65,0-1.11-.5-1.11-1.13s.48-1.15,1.15-1.15,1.13.5,1.13,1.15ZM517.2,49.61v-10.16h1.85v10.16h-1.85Z" fill="#231f20"/>
    <path d="M522.12,42.2c0-1.05-.02-1.91-.08-2.75h1.64l.1,1.68h.04c.5-.97,1.68-1.91,3.36-1.91,1.41,0,3.59.84,3.59,4.33v6.07h-1.85v-5.86c0-1.64-.61-3-2.35-3-1.22,0-2.16.86-2.48,1.89-.08.23-.13.55-.13.86v6.11h-1.85v-7.41Z" fill="#231f20"/>
    <path d="M538.22,42.62c0-1.2-.02-2.23-.08-3.17h1.62l.06,1.99h.08c.46-1.36,1.57-2.23,2.81-2.23.21,0,.36.02.53.06v1.74c-.19-.04-.38-.06-.63-.06-1.3,0-2.23.99-2.48,2.37-.04.25-.08.55-.08.86v5.42h-1.83v-6.99Z" fill="#231f20"/>
    <path d="M545.91,44.86c.04,2.5,1.64,3.53,3.48,3.53,1.32,0,2.12-.23,2.81-.52l.31,1.32c-.65.29-1.76.63-3.38.63-3.13,0-5-2.06-5-5.12s1.8-5.48,4.77-5.48c3.32,0,4.2,2.92,4.2,4.79,0,.38-.04.67-.06.86h-7.14ZM551.33,43.54c.02-1.18-.48-3-2.56-3-1.87,0-2.69,1.72-2.83,3h5.4Z" fill="#231f20"/>
    <path d="M561.03,49.61l-.15-1.28h-.06c-.57.8-1.66,1.51-3.11,1.51-2.06,0-3.11-1.45-3.11-2.92,0-2.46,2.18-3.8,6.11-3.78v-.21c0-.84-.23-2.35-2.31-2.35-.95,0-1.93.29-2.65.76l-.42-1.22c.84-.55,2.06-.9,3.34-.9,3.11,0,3.86,2.12,3.86,4.16v3.8c0,.88.04,1.74.17,2.44h-1.68ZM560.76,44.42c-2.02-.04-4.3.31-4.3,2.29,0,1.2.8,1.76,1.74,1.76,1.32,0,2.16-.84,2.46-1.7.06-.19.11-.4.11-.59v-1.76Z" fill="#231f20"/>
    <path d="M572.77,49.23c-.48.25-1.55.59-2.92.59-3.07,0-5.06-2.08-5.06-5.19s2.14-5.4,5.46-5.4c1.09,0,2.06.27,2.56.52l-.42,1.43c-.44-.25-1.13-.48-2.14-.48-2.33,0-3.59,1.72-3.59,3.84,0,2.35,1.51,3.8,3.53,3.8,1.05,0,1.74-.27,2.27-.5l.31,1.39Z" fill="#231f20"/>
    <path d="M574.93,34.7h1.85v6.34h.04c.29-.52.76-.99,1.32-1.3.54-.31,1.2-.52,1.89-.52,1.37,0,3.55.84,3.55,4.35v6.05h-1.85v-5.84c0-1.64-.61-3.02-2.35-3.02-1.2,0-2.14.84-2.48,1.85-.1.25-.13.52-.13.88v6.13h-1.85v-14.91Z" fill="#231f20"/>
    <path d="M585.47,52.15c1.49-2.08,2.65-4.81,2.65-8.59s-1.13-6.45-2.65-8.52h1.43c1.34,1.72,2.75,4.41,2.75,8.55s-1.41,6.78-2.75,8.57h-1.43Z" fill="#231f20"/>
  </g>
  <g>
    <path d="M726.55,8.23v9.58c0,3.62,1.61,5.16,3.77,5.16,2.4,0,3.94-1.58,3.94-5.16v-9.58h2.11v9.43c0,4.97-2.62,7.01-6.12,7.01-3.31,0-5.81-1.9-5.81-6.91v-9.53h2.11Z" fill="#231f20"/>
    <path d="M739.91,15.94c0-1.2-.02-2.18-.1-3.14h1.87l.12,1.92h.05c.58-1.1,1.92-2.18,3.84-2.18,1.61,0,4.1.96,4.1,4.94v6.94h-2.11v-6.7c0-1.87-.7-3.43-2.69-3.43-1.39,0-2.47.98-2.83,2.16-.1.26-.14.62-.14.98v6.98h-2.11v-8.47Z" fill="#231f20"/>
    <path d="M755.32,18.12h.05c.29-.41.7-.91,1.03-1.32l3.41-4.01h2.54l-4.49,4.78,5.11,6.84h-2.57l-4.01-5.57-1.08,1.2v4.37h-2.09V7.37h2.09v10.75Z" fill="#231f20"/>
    <path d="M775,18.5c0,4.3-2.98,6.17-5.79,6.17-3.14,0-5.57-2.3-5.57-5.98,0-3.89,2.54-6.17,5.76-6.17s5.59,2.42,5.59,5.98ZM765.79,18.62c0,2.54,1.46,4.46,3.53,4.46s3.53-1.9,3.53-4.51c0-1.97-.98-4.46-3.48-4.46s-3.58,2.3-3.58,4.51Z" fill="#231f20"/>
    <path d="M778.34,12.79l1.54,5.9c.34,1.3.65,2.5.86,3.7h.07c.26-1.18.65-2.42,1.03-3.67l1.9-5.93h1.78l1.8,5.81c.43,1.39.77,2.62,1.03,3.79h.07c.19-1.18.5-2.4.89-3.77l1.66-5.83h2.09l-3.74,11.62h-1.92l-1.78-5.54c-.41-1.3-.74-2.45-1.03-3.82h-.05c-.29,1.39-.65,2.59-1.06,3.84l-1.87,5.52h-1.92l-3.5-11.62h2.16Z" fill="#231f20"/>
    <path d="M795.16,15.94c0-1.2-.02-2.18-.1-3.14h1.87l.12,1.92h.05c.58-1.1,1.92-2.18,3.84-2.18,1.61,0,4.1.96,4.1,4.94v6.94h-2.11v-6.7c0-1.87-.7-3.43-2.69-3.43-1.39,0-2.47.98-2.83,2.16-.1.26-.14.62-.14.98v6.98h-2.11v-8.47Z" fill="#231f20"/>
    <path d="M813.28,22.25c.62.41,1.73.84,2.78.84,1.54,0,2.26-.77,2.26-1.73,0-1.01-.6-1.56-2.16-2.14-2.09-.74-3.07-1.9-3.07-3.29,0-1.87,1.51-3.41,4.01-3.41,1.18,0,2.21.34,2.86.72l-.53,1.54c-.46-.29-1.3-.67-2.38-.67-1.25,0-1.94.72-1.94,1.58,0,.96.7,1.39,2.21,1.97,2.02.77,3.05,1.78,3.05,3.5,0,2.04-1.58,3.48-4.34,3.48-1.27,0-2.45-.31-3.26-.79l.53-1.61Z" fill="#231f20"/>
    <path d="M833.59,18.5c0,4.3-2.98,6.17-5.78,6.17-3.14,0-5.57-2.3-5.57-5.98,0-3.89,2.54-6.17,5.76-6.17s5.59,2.42,5.59,5.98ZM824.37,18.62c0,2.54,1.46,4.46,3.53,4.46s3.53-1.9,3.53-4.51c0-1.97-.98-4.46-3.48-4.46s-3.58,2.3-3.58,4.51Z" fill="#231f20"/>
    <path d="M836.25,7.37h2.11v17.04h-2.11V7.37Z" fill="#231f20"/>
    <path d="M851.63,21.24c0,1.2.02,2.26.1,3.17h-1.87l-.12-1.9h-.05c-.55.94-1.78,2.16-3.84,2.16-1.82,0-4.01-1.01-4.01-5.09v-6.79h2.11v6.43c0,2.21.67,3.7,2.59,3.7,1.42,0,2.4-.98,2.78-1.92.12-.31.19-.7.19-1.08v-7.13h2.11v8.45Z" fill="#231f20"/>
    <path d="M857.68,9.46v3.34h3.02v1.61h-3.02v6.26c0,1.44.41,2.26,1.58,2.26.55,0,.96-.07,1.22-.14l.1,1.58c-.41.17-1.06.29-1.87.29-.98,0-1.78-.31-2.28-.89-.6-.62-.82-1.66-.82-3.02v-6.34h-1.8v-1.61h1.8v-2.78l2.06-.55Z" fill="#231f20"/>
    <path d="M865.43,9.53c.02.72-.5,1.3-1.34,1.3-.74,0-1.27-.58-1.27-1.3s.55-1.32,1.32-1.32,1.3.58,1.3,1.32ZM863.08,24.41v-11.62h2.11v11.62h-2.11Z" fill="#231f20"/>
    <path d="M879.21,18.5c0,4.3-2.98,6.17-5.78,6.17-3.14,0-5.57-2.3-5.57-5.98,0-3.89,2.54-6.17,5.76-6.17s5.59,2.42,5.59,5.98ZM869.99,18.62c0,2.54,1.46,4.46,3.53,4.46s3.53-1.9,3.53-4.51c0-1.97-.98-4.46-3.48-4.46s-3.58,2.3-3.58,4.51Z" fill="#231f20"/>
    <path d="M881.87,15.94c0-1.2-.02-2.18-.1-3.14h1.87l.12,1.92h.05c.58-1.1,1.92-2.18,3.84-2.18,1.61,0,4.1.96,4.1,4.94v6.94h-2.11v-6.7c0-1.87-.7-3.43-2.69-3.43-1.39,0-2.47.98-2.83,2.16-.1.26-.14.62-.14.98v6.98h-2.11v-8.47Z" fill="#231f20"/>
    <path d="M747.62,35.04c-1.53,2.06-2.65,4.79-2.65,8.59s1.15,6.42,2.65,8.52h-1.45c-1.32-1.74-2.75-4.43-2.75-8.52.02-4.14,1.43-6.82,2.75-8.59h1.45Z" fill="#231f20"/>
    <path d="M749.49,49.61c.04-.69.08-1.72.08-2.62v-12.28h1.83v6.38h.04c.65-1.13,1.83-1.87,3.46-1.87,2.52,0,4.3,2.1,4.28,5.19,0,3.63-2.29,5.44-4.56,5.44-1.47,0-2.65-.57-3.4-1.91h-.06l-.08,1.68h-1.6ZM751.4,45.54c0,.23.04.46.08.67.36,1.28,1.43,2.16,2.77,2.16,1.93,0,3.09-1.57,3.09-3.91,0-2.04-1.05-3.78-3.02-3.78-1.26,0-2.44.86-2.81,2.27-.04.21-.1.46-.1.76v1.83Z" fill="#231f20"/>
    <path d="M762.55,44.86c.04,2.5,1.64,3.53,3.49,3.53,1.32,0,2.12-.23,2.81-.52l.32,1.32c-.65.29-1.76.63-3.38.63-3.13,0-5-2.06-5-5.12s1.81-5.48,4.77-5.48c3.32,0,4.2,2.92,4.2,4.79,0,.38-.04.67-.06.86h-7.14ZM767.97,43.54c.02-1.18-.48-3-2.56-3-1.87,0-2.69,1.72-2.83,3h5.4Z" fill="#231f20"/>
    <path d="M772.72,39.45l2.23,6c.23.67.48,1.47.65,2.08h.04c.19-.61.4-1.39.65-2.12l2.02-5.96h1.95l-2.77,7.24c-1.32,3.49-2.23,5.27-3.49,6.36-.9.8-1.81,1.11-2.27,1.2l-.46-1.55c.46-.15,1.07-.44,1.62-.9.5-.4,1.13-1.11,1.55-2.06.08-.19.15-.34.15-.44s-.04-.25-.13-.48l-3.76-9.36h2.02Z" fill="#231f20"/>
    <path d="M790.92,44.44c0,3.76-2.6,5.4-5.06,5.4-2.75,0-4.87-2.02-4.87-5.23,0-3.4,2.23-5.4,5.04-5.4s4.89,2.12,4.89,5.23ZM782.86,44.55c0,2.23,1.28,3.91,3.09,3.91s3.09-1.66,3.09-3.95c0-1.72-.86-3.91-3.04-3.91s-3.13,2.02-3.13,3.95Z" fill="#231f20"/>
    <path d="M793.25,42.2c0-1.05-.02-1.91-.08-2.75h1.64l.11,1.68h.04c.5-.97,1.68-1.91,3.36-1.91,1.41,0,3.59.84,3.59,4.33v6.07h-1.85v-5.86c0-1.64-.61-3-2.35-3-1.22,0-2.16.86-2.48,1.89-.08.23-.13.55-.13.86v6.11h-1.85v-7.41Z" fill="#231f20"/>
    <path d="M813.69,34.7v12.28c0,.9.02,1.93.08,2.62h-1.66l-.08-1.76h-.04c-.57,1.13-1.81,1.99-3.46,1.99-2.46,0-4.35-2.08-4.35-5.17-.02-3.38,2.08-5.46,4.56-5.46,1.55,0,2.6.73,3.07,1.55h.04v-6.07h1.85ZM811.84,43.58c0-.23-.02-.55-.08-.78-.27-1.18-1.28-2.14-2.67-2.14-1.91,0-3.04,1.68-3.04,3.93,0,2.06,1.01,3.76,3,3.76,1.24,0,2.37-.82,2.71-2.2.06-.25.08-.5.08-.8v-1.76Z" fill="#231f20"/>
    <path d="M821.2,42.62c0-1.2-.02-2.23-.08-3.17h1.62l.06,1.99h.08c.46-1.36,1.58-2.23,2.81-2.23.21,0,.36.02.53.06v1.74c-.19-.04-.38-.06-.63-.06-1.3,0-2.23.99-2.48,2.37-.04.25-.08.55-.08.86v5.42h-1.83v-6.99Z" fill="#231f20"/>
    <path d="M828.89,44.86c.04,2.5,1.64,3.53,3.49,3.53,1.32,0,2.12-.23,2.81-.52l.31,1.32c-.65.29-1.76.63-3.38.63-3.13,0-5-2.06-5-5.12s1.81-5.48,4.77-5.48c3.32,0,4.2,2.92,4.2,4.79,0,.38-.04.67-.06.86h-7.14ZM834.31,43.54c.02-1.18-.48-3-2.56-3-1.87,0-2.69,1.72-2.83,3h5.4Z" fill="#231f20"/>
    <path d="M844.01,49.61l-.15-1.28h-.06c-.57.8-1.66,1.51-3.11,1.51-2.06,0-3.11-1.45-3.11-2.92,0-2.46,2.18-3.8,6.11-3.78v-.21c0-.84-.23-2.35-2.31-2.35-.94,0-1.93.29-2.65.76l-.42-1.22c.84-.55,2.06-.9,3.34-.9,3.11,0,3.86,2.12,3.86,4.16v3.8c0,.88.04,1.74.17,2.44h-1.68ZM843.74,44.42c-2.02-.04-4.3.31-4.3,2.29,0,1.2.8,1.76,1.74,1.76,1.32,0,2.16-.84,2.46-1.7.06-.19.1-.4.1-.59v-1.76Z" fill="#231f20"/>
    <path d="M855.75,49.23c-.48.25-1.55.59-2.92.59-3.07,0-5.06-2.08-5.06-5.19s2.14-5.4,5.46-5.4c1.09,0,2.06.27,2.56.52l-.42,1.43c-.44-.25-1.13-.48-2.14-.48-2.33,0-3.59,1.72-3.59,3.84,0,2.35,1.51,3.8,3.53,3.8,1.05,0,1.74-.27,2.27-.5l.32,1.39Z" fill="#231f20"/>
    <path d="M857.91,34.7h1.85v6.34h.04c.29-.52.76-.99,1.32-1.3.55-.31,1.2-.52,1.89-.52,1.36,0,3.55.84,3.55,4.35v6.05h-1.85v-5.84c0-1.64-.61-3.02-2.35-3.02-1.2,0-2.14.84-2.48,1.85-.1.25-.13.52-.13.88v6.13h-1.85v-14.91Z" fill="#231f20"/>
    <path d="M868.45,52.15c1.49-2.08,2.65-4.81,2.65-8.59s-1.13-6.45-2.65-8.52h1.43c1.34,1.72,2.75,4.41,2.75,8.55s-1.41,6.78-2.75,8.57h-1.43Z" fill="#231f20"/>
  </g>
</svg>