<svg viewBox="0 0 1800 600" xmlns="http://www.w3.org/2000/svg" role="img" aria-label="Abstract topographic lines suggesting exploration">
  <defs>
    <linearGradient id="g1" x1="0" x2="1">
      <stop offset="0" stop-color="#3774B7"/>
      <stop offset="1" stop-color="#24548A"/>
    </linearGradient>
  </defs>
  <rect width="100%" height="100%" fill="#E8F0FA"/>
  <!-- layered contour-ish paths -->
  <path d="M-50,360 C200,280 400,500 700,420 C1000,340 1200,440 1600,360 C1900,280 1900,280 1900,280" fill="none" stroke="url(#g1)" stroke-width="3" stroke-opacity="0.7"/>
  <path d="M-50,420 C200,340 400,560 700,480 C1000,400 1200,500 1600,420 C1900,340 1900,340 1900,340" fill="none" stroke="url(#g1)" stroke-width="2" stroke-opacity="0.5"/>
  <path d="M-50,300 C200,220 400,440 700,360 C1000,280 1200,380 1600,300 C1900,220 1900,220 1900,220" fill="none" stroke="url(#g1)" stroke-width="2" stroke-opacity="0.35"/>
</svg>
