<?xml version="1.0" encoding="UTF-8"?>
<svg id="Layer_1" data-name="Layer 1" xmlns="http://www.w3.org/2000/svg" viewBox="0 0 194.44 388.87">
  <polygon points=".35 194.44 65.52 259.6 65.52 129.27 .35 194.44" fill="#6ab2d0" stroke="#231f20" stroke-miterlimit="10" stroke-width=".5"/>
  <polygon points="129.53 65.27 65.52 129.27 65.52 259.6 129.53 323.61 129.53 65.27" fill="#4e9abf" stroke="#231f20" stroke-miterlimit="10" stroke-width=".5"/>
  <polygon points="194.19 .6 129.53 65.27 129.53 323.61 194.19 388.27 194.19 .6" fill="#307da3" stroke="#231f20" stroke-miterlimit="10" stroke-width=".5"/>
  <g>
    <path d="M46.03,231.46v-2.95c0-.37.04-.71.13-1.03s.22-.59.39-.82c.17-.23.39-.41.66-.54.27-.13.58-.2.94-.2.49,0,.89.14,1.19.41.31.27.53.62.68,1.05h.02c.02-.26.08-.5.2-.72.12-.22.27-.42.46-.58.19-.16.41-.29.65-.39s.52-.14.8-.14c.38,0,.72.08,1.01.23s.54.37.74.64c.2.27.35.59.46.95.1.36.16.75.16,1.16v2.92h-8.5ZM49.55,230.3v-1.57c0-.22-.02-.42-.07-.61-.04-.19-.12-.36-.22-.5-.1-.14-.24-.26-.4-.34s-.36-.13-.59-.13c-.34,0-.63.11-.88.32-.25.22-.37.56-.37,1.02v1.81h2.52ZM53.51,230.3v-1.69c0-.18-.02-.37-.05-.58s-.11-.41-.22-.59-.25-.34-.44-.47c-.18-.13-.43-.19-.73-.19-.5,0-.88.16-1.13.49s-.38.77-.38,1.33v1.7h2.95Z" fill="#231f20"/>
    <path d="M48.83,224.17v-1.08h.88v-.02c-.15-.07-.29-.17-.41-.29s-.23-.25-.32-.4c-.09-.15-.16-.31-.21-.49-.05-.18-.08-.35-.08-.53s.02-.34.07-.48l1.16.05c-.02.09-.04.18-.06.26-.02.09-.02.18-.02.26,0,.53.15.93.44,1.21.3.28.76.42,1.38.42h2.86v1.08h-5.69Z" fill="#231f20"/>
    <path d="M49.53,219.71c-.28-.3-.49-.66-.63-1.06s-.21-.8-.21-1.2.05-.77.16-1.07c.1-.3.24-.54.42-.74.18-.19.38-.33.61-.43.23-.09.47-.14.71-.14h2.9c.2,0,.38,0,.55-.01s.33-.02.48-.04v.96c-.29.02-.58.04-.86.04v.02c.37.24.63.52.78.85.15.33.23.71.23,1.14,0,.26-.04.52-.11.76-.07.24-.18.45-.32.63-.14.18-.32.32-.53.43s-.46.16-.74.16c-.37,0-.68-.08-.92-.25s-.45-.39-.61-.67c-.16-.28-.27-.62-.34-1-.07-.38-.1-.79-.1-1.22v-.79h-.24c-.14,0-.29.03-.43.08-.14.06-.27.14-.39.25-.12.11-.21.25-.28.42s-.1.37-.1.6c0,.21.02.39.06.55.04.16.09.3.15.43.06.13.13.24.21.35.08.1.16.2.23.3l-.67.65ZM51.79,216.66c0,.26.01.52.04.79s.08.51.16.73c.08.22.19.4.34.54.14.14.33.21.55.21.33,0,.56-.11.71-.33.14-.22.22-.52.22-.89,0-.29-.05-.55-.15-.76s-.23-.38-.39-.5c-.16-.13-.34-.22-.53-.28-.2-.06-.39-.08-.58-.08h-.36v.58Z" fill="#231f20"/>
    <path d="M46.79,213.67c-.22,0-.4-.08-.56-.23s-.23-.34-.23-.56.08-.4.23-.56c.16-.16.34-.23.56-.23s.4.08.56.23c.16.16.23.34.23.56s-.08.4-.23.56c-.16.16-.34.23-.56.23ZM48.83,213.42v-1.08h5.69v1.08h-5.69Z" fill="#231f20"/>
    <path d="M48.83,210.62v-1.08h.88v-.02c-.3-.14-.55-.37-.74-.71-.19-.34-.28-.72-.28-1.16,0-.27.04-.53.13-.79s.21-.47.39-.66c.18-.19.4-.34.68-.45.28-.11.6-.17.98-.17h3.66v1.08h-3.36c-.26,0-.49.04-.68.11-.19.07-.34.17-.46.29s-.2.26-.25.41c-.05.16-.08.32-.08.49,0,.22.04.43.11.62.07.19.19.36.34.5.16.14.35.26.59.34s.52.12.85.12h2.93v1.08h-5.69Z" fill="#231f20"/>
    <path d="M50.26,200.93c-.16.13-.29.29-.4.47-.11.19-.16.42-.16.69,0,.26.05.48.16.67.11.19.27.28.47.28.17,0,.3-.05.41-.16.1-.11.19-.24.25-.38.06-.15.11-.31.14-.47.03-.17.06-.31.08-.43.06-.23.12-.45.2-.65.08-.2.18-.38.31-.53s.28-.26.47-.35c.18-.08.41-.13.67-.13.32,0,.59.07.82.2.23.14.41.31.56.53.14.22.25.46.31.74.06.28.1.55.1.83,0,.47-.07.89-.22,1.24-.14.36-.41.67-.79.95l-.67-.82c.18-.18.33-.37.47-.59.14-.22.2-.48.2-.79,0-.14-.01-.27-.04-.41-.03-.14-.07-.26-.13-.37-.06-.11-.14-.2-.23-.26-.09-.07-.2-.1-.32-.1-.16,0-.29.05-.4.15-.1.1-.19.22-.25.36-.06.14-.11.29-.14.44-.04.16-.07.29-.09.41-.06.23-.12.45-.19.66-.07.21-.17.39-.29.55s-.27.29-.46.38c-.18.1-.41.14-.68.14-.3,0-.55-.06-.77-.19-.22-.12-.4-.29-.55-.49-.14-.2-.25-.44-.32-.7-.07-.26-.11-.52-.11-.79,0-.38.07-.75.22-1.1s.38-.63.72-.84l.64.84Z" fill="#231f20"/>
    <path d="M49.77,195.58v1.55h2.58c.16,0,.32,0,.47-.01.16,0,.3-.04.42-.09.12-.05.22-.13.3-.24.08-.11.11-.27.11-.47,0-.13-.01-.26-.04-.4-.02-.14-.07-.26-.13-.37h.98c.07.13.12.29.15.5.03.2.04.36.04.47,0,.42-.06.74-.17.97s-.27.4-.45.5c-.18.11-.39.17-.62.19-.23.02-.46.03-.69.03h-2.96v1.25h-.94v-1.25h-1.6v-1.08h1.6v-1.55h.94Z" fill="#231f20"/>
    <path d="M51.68,194.46c-.42,0-.8-.08-1.16-.23-.36-.16-.68-.37-.95-.64-.27-.27-.49-.59-.64-.96-.16-.37-.23-.76-.23-1.19s.08-.82.23-1.19c.16-.37.37-.69.64-.96.27-.27.59-.49.95-.64.36-.16.75-.23,1.16-.23s.81.08,1.17.23c.36.16.68.37.95.64.27.27.48.59.64.96.16.37.23.76.23,1.19s-.08.82-.23,1.19c-.16.37-.37.69-.64.96-.27.27-.58.49-.95.64-.36.16-.75.23-1.17.23ZM51.68,193.31c.29,0,.55-.04.8-.13.24-.09.45-.21.62-.37s.31-.36.41-.59c.1-.23.15-.49.15-.78s-.05-.55-.15-.78c-.1-.23-.24-.43-.41-.59-.17-.16-.38-.28-.62-.37-.24-.09-.51-.13-.8-.13s-.55.04-.8.13c-.24.09-.45.21-.62.37-.17.16-.31.36-.41.59-.1.23-.15.49-.15.78s.05.55.15.78c.1.23.24.43.41.59.17.16.38.28.62.37.24.09.51.13.8.13Z" fill="#231f20"/>
    <path d="M48.83,187.06v-1.08h.88v-.02c-.15-.07-.29-.17-.41-.29s-.23-.25-.32-.4-.16-.31-.21-.49c-.05-.18-.08-.35-.08-.53s.02-.34.07-.48l1.16.05c-.02.09-.04.18-.06.26-.02.09-.02.18-.02.26,0,.53.15.93.44,1.21.3.28.76.42,1.38.42h2.86v1.08h-5.69Z" fill="#231f20"/>
    <path d="M48.83,182.62v-1.01h.89v-.02c-.08-.02-.18-.09-.3-.19-.12-.1-.23-.23-.34-.38-.11-.16-.2-.34-.28-.55-.08-.21-.11-.45-.11-.7,0-.42.09-.78.26-1.07.18-.29.44-.52.79-.71-.35-.18-.62-.44-.79-.78s-.26-.68-.26-1.02c0-.44.07-.8.22-1.08.14-.28.33-.5.57-.66.24-.16.5-.27.8-.33s.61-.09.93-.09h3.31v1.08h-3.17c-.22,0-.42.01-.62.04-.2.03-.38.09-.53.17-.15.09-.27.21-.37.37-.09.16-.14.37-.14.64,0,.52.16.89.48,1.12.32.22.73.34,1.24.34h3.11v1.08h-2.98c-.27,0-.52.01-.74.04-.22.03-.42.08-.58.17s-.29.2-.38.36c-.09.16-.14.37-.14.63,0,.19.04.38.11.56s.19.34.34.47c.15.14.35.24.58.32.24.08.51.12.83.12h2.95v1.08h-5.69Z" fill="#231f20"/>
    <path d="M46.79,172.56c-.22,0-.4-.08-.56-.23-.16-.16-.23-.34-.23-.56s.08-.4.23-.56c.16-.16.34-.23.56-.23s.4.08.56.23c.16.16.23.34.23.56s-.08.4-.23.56c-.16.16-.34.23-.56.23ZM48.83,172.31v-1.08h5.69v1.08h-5.69Z" fill="#231f20"/>
    <path d="M48.83,169.51v-1.08h.88v-.02c-.3-.14-.55-.37-.74-.71-.19-.34-.28-.72-.28-1.16,0-.27.04-.53.13-.79s.21-.47.39-.66.4-.34.68-.45c.28-.11.6-.17.98-.17h3.66v1.08h-3.36c-.26,0-.49.04-.68.11-.19.07-.34.17-.46.29s-.2.26-.25.41c-.05.16-.08.32-.08.49,0,.22.04.43.11.62.07.19.19.36.34.5s.35.26.59.34c.24.08.52.12.85.12h2.93v1.08h-5.69Z" fill="#231f20"/>
    <path d="M54.47,157.14c.43,0,.83.07,1.18.22.36.15.66.36.92.63s.46.6.61.98c.14.38.22.81.22,1.27,0,.54-.08,1.04-.23,1.49-.15.45-.42.88-.79,1.29l-.91-.73c.3-.28.53-.58.69-.91.16-.33.23-.7.23-1.12s-.06-.73-.17-1c-.12-.26-.27-.47-.45-.63-.18-.16-.39-.27-.63-.33-.24-.06-.47-.1-.71-.1h-.84v.04c.34.21.6.49.76.85.16.36.25.73.25,1.12,0,.42-.07.8-.22,1.16-.15.36-.35.66-.61.92-.26.26-.57.46-.92.6-.36.14-.74.22-1.16.22s-.81-.07-1.17-.2c-.36-.14-.68-.33-.95-.58-.27-.25-.48-.56-.64-.91-.15-.36-.23-.75-.23-1.19,0-.38.08-.76.25-1.12.17-.36.4-.65.71-.86v-.02h-.82v-1.08h5.64ZM49.7,160.09c0,.29.05.55.15.78.1.23.24.43.41.59.17.16.38.28.62.37.24.09.51.13.8.13.58,0,1.04-.17,1.39-.5.35-.34.52-.79.52-1.37s-.17-1.03-.52-1.37c-.35-.34-.81-.5-1.39-.5-.29,0-.55.04-.8.13-.24.09-.45.21-.62.37-.17.16-.31.36-.41.59-.1.23-.15.49-.15.78Z" fill="#231f20"/>
  </g>
  <g>
    <path d="M90.8,231.39v-3.44c0-.43.05-.83.15-1.2.1-.37.25-.69.46-.95.2-.27.46-.47.77-.63.31-.15.68-.23,1.1-.23.57,0,1.03.16,1.39.48.36.32.62.73.79,1.23h.03c.02-.3.1-.58.23-.84.14-.26.31-.49.53-.68.22-.19.47-.34.76-.46.29-.11.6-.17.94-.17.45,0,.84.09,1.18.27.34.18.63.43.86.75s.41.69.53,1.11.18.87.18,1.36v3.4h-9.91ZM94.91,230.05v-1.83c0-.25-.03-.49-.08-.71-.05-.22-.14-.42-.26-.59s-.28-.3-.46-.4-.42-.15-.69-.15c-.39,0-.73.12-1.02.38s-.43.65-.43,1.19v2.11h2.94ZM99.53,230.05v-1.97c0-.21-.02-.43-.06-.68s-.13-.48-.25-.69-.3-.4-.51-.55c-.21-.15-.5-.22-.85-.22-.59,0-1.03.19-1.32.57-.29.38-.44.9-.44,1.55v1.99h3.44Z" fill="#fff"/>
    <path d="M94.07,222.89v-1.26h1.02v-.03c-.18-.08-.34-.2-.48-.34s-.27-.3-.37-.47-.18-.36-.25-.57-.09-.41-.09-.62.03-.39.08-.56l1.36.06c-.03.1-.05.21-.07.31s-.03.21-.03.31c0,.62.17,1.09.52,1.41.34.33.88.49,1.61.49h3.33v1.26h-6.64Z" fill="#fff"/>
    <path d="M94.88,217.68c-.33-.35-.57-.76-.73-1.23s-.25-.93-.25-1.4.06-.9.18-1.25c.12-.35.29-.64.49-.86s.44-.39.71-.5.54-.16.83-.16h3.39c.23,0,.45,0,.64-.01s.38-.02.56-.04v1.12c-.34.03-.67.04-1.01.04v.03c.43.28.73.61.91.99.18.38.27.83.27,1.33,0,.31-.04.6-.13.88-.08.28-.21.52-.38.73s-.38.38-.62.5c-.25.12-.53.18-.86.18-.43,0-.79-.1-1.08-.29s-.53-.45-.71-.79c-.18-.33-.31-.72-.39-1.16-.08-.44-.12-.92-.12-1.42v-.92h-.28c-.17,0-.34.03-.5.1s-.32.16-.46.29c-.14.13-.24.29-.32.49-.08.2-.12.43-.12.7,0,.24.02.46.07.64s.1.35.17.5c.07.15.15.29.25.41.09.12.18.24.27.35l-.78.76ZM97.52,214.13c0,.3.02.6.05.92.03.31.1.6.19.85.09.26.22.47.39.63.17.16.38.25.64.25.38,0,.66-.13.83-.38s.25-.6.25-1.04c0-.34-.06-.64-.17-.88s-.27-.44-.46-.59c-.19-.15-.39-.26-.62-.32s-.46-.1-.68-.1h-.42v.67Z" fill="#fff"/>
    <path d="M91.69,210.64c-.25,0-.47-.09-.65-.27-.18-.18-.27-.4-.27-.65s.09-.47.27-.65.4-.27.65-.27.47.09.65.27c.18.18.27.4.27.65s-.09.47-.27.65-.4.27-.65.27ZM94.07,210.35v-1.26h6.64v1.26h-6.64Z" fill="#fff"/>
    <path d="M94.07,207.09v-1.26h1.02v-.03c-.36-.16-.64-.43-.86-.83-.22-.39-.33-.84-.33-1.36,0-.32.05-.62.15-.92.1-.29.25-.55.46-.77.21-.22.47-.39.79-.53.32-.13.7-.2,1.14-.2h4.27v1.26h-3.92c-.31,0-.57.04-.79.13-.22.08-.4.2-.53.34-.13.14-.23.3-.29.48-.06.18-.09.37-.09.57,0,.26.04.5.13.73s.22.42.4.59c.18.17.41.3.69.39.28.09.61.14.99.14h3.42v1.26h-6.64Z" fill="#fff"/>
    <path d="M94.07,200.1v-1.41l4.96-1.49v-.03l-4.96-1.59v-1.34l4.96-1.68v-.03l-4.96-1.41v-1.34l6.64,2.14v1.27l-4.96,1.76v.03l4.96,1.6v1.34l-6.64,2.18Z" fill="#fff"/>
    <path d="M94.07,188.68v-1.26h1.02v-.03c-.18-.08-.34-.2-.48-.34-.14-.14-.27-.3-.37-.47s-.18-.36-.25-.57c-.06-.21-.09-.41-.09-.62s.03-.39.08-.56l1.36.06c-.03.1-.05.21-.07.31s-.03.21-.03.31c0,.62.17,1.09.52,1.41.34.33.88.49,1.61.49h3.33v1.26h-6.64Z" fill="#fff"/>
    <path d="M91.69,183.69c-.25,0-.47-.09-.65-.27-.18-.18-.27-.4-.27-.65s.09-.47.27-.65c.18-.18.4-.27.65-.27s.47.09.65.27c.18.18.27.4.27.65s-.09.47-.27.65c-.18.18-.4.27-.65.27ZM94.07,183.4v-1.26h6.64v1.26h-6.64Z" fill="#fff"/>
    <path d="M95.16,176.58v1.81h3.01c.19,0,.37,0,.55-.01.18,0,.34-.04.49-.1.15-.06.26-.15.35-.28s.13-.31.13-.55c0-.15-.01-.3-.04-.46-.03-.16-.08-.3-.15-.43h1.15c.08.15.14.34.17.58.03.24.05.42.05.55,0,.49-.07.86-.2,1.13-.13.27-.31.46-.52.59s-.46.2-.72.22c-.27.02-.54.04-.81.04h-3.46v1.46h-1.09v-1.46h-1.86v-1.26h1.86v-1.81h1.09Z" fill="#fff"/>
    <path d="M91.69,175.15c-.25,0-.47-.09-.65-.27-.18-.18-.27-.4-.27-.65s.09-.47.27-.65c.18-.18.4-.27.65-.27s.47.09.65.27c.18.18.27.4.27.65s-.09.47-.27.65c-.18.18-.4.27-.65.27ZM94.07,174.86v-1.26h6.64v1.26h-6.64Z" fill="#fff"/>
    <path d="M94.07,171.6v-1.26h1.02v-.03c-.36-.16-.64-.43-.86-.83s-.33-.84-.33-1.36c0-.32.05-.62.15-.92.1-.29.25-.55.46-.77.21-.22.47-.39.79-.53.32-.13.7-.2,1.14-.2h4.27v1.26h-3.92c-.31,0-.57.04-.79.13-.22.08-.4.2-.53.34-.13.14-.23.3-.29.48-.06.18-.09.37-.09.57,0,.26.04.5.13.73s.22.42.4.59c.18.17.41.3.69.39.28.09.61.14.99.14h3.42v1.26h-6.64Z" fill="#fff"/>
    <path d="M100.65,157.16c.5,0,.96.09,1.38.26.42.17.77.42,1.08.73.3.32.54.7.71,1.15.17.45.25.94.25,1.48,0,.63-.09,1.22-.27,1.74-.18.53-.49,1.03-.92,1.5l-1.06-.85c.35-.33.62-.68.8-1.06s.27-.82.27-1.3-.07-.85-.2-1.16c-.14-.31-.31-.55-.53-.74-.21-.18-.46-.31-.73-.38-.28-.07-.55-.11-.83-.11h-.98v.04c.4.24.7.57.89.99.19.42.29.85.29,1.31,0,.49-.09.94-.26,1.35-.17.42-.41.77-.71,1.07-.3.3-.66.53-1.08.7s-.87.25-1.35.25-.94-.08-1.37-.24c-.42-.16-.8-.38-1.11-.68s-.56-.65-.74-1.06c-.18-.42-.27-.88-.27-1.39,0-.45.1-.88.29-1.31s.47-.76.83-1v-.03h-.95v-1.26h6.58ZM95.08,160.61c0,.34.06.64.17.91.12.27.28.5.48.69.2.19.44.33.73.43.29.1.6.15.93.15.67,0,1.21-.2,1.62-.59.41-.39.61-.92.61-1.6s-.2-1.2-.61-1.6c-.41-.39-.94-.59-1.62-.59-.34,0-.65.05-.93.15-.28.1-.53.25-.73.43-.2.19-.36.42-.48.69-.12.27-.17.57-.17.91Z" fill="#fff"/>
  </g>
  <g>
    <path d="M155.51,234.53v-3.49c0-.63.09-1.16.26-1.57.17-.41.39-.73.66-.97.27-.24.56-.4.9-.5.33-.09.65-.14.96-.14s.62.06.92.17c.29.11.56.27.8.48.24.21.44.47.6.77.16.3.26.64.3,1.02l4.52-2.81v1.68l-4.37,2.52v1.5h4.37v1.34h-9.91ZM159.88,233.18v-1.76c0-.26-.02-.52-.06-.78s-.12-.49-.23-.69c-.11-.2-.27-.36-.48-.48s-.48-.18-.82-.18-.61.06-.82.18-.37.28-.48.48c-.11.2-.19.43-.23.69s-.06.52-.06.78v1.76h3.19Z" fill="#fff"/>
    <path d="M162.57,225.34c.29,0,.55-.06.79-.19.24-.13.44-.29.61-.5.17-.21.3-.44.39-.71.09-.27.14-.55.14-.84,0-.39-.09-.73-.27-1.02-.18-.29-.42-.56-.72-.8l.73-.95c.91.7,1.36,1.68,1.36,2.94,0,.52-.09,1-.27,1.42-.18.43-.42.79-.73,1.08-.31.29-.68.52-1.11.68s-.88.24-1.38.24-.95-.09-1.38-.26c-.42-.17-.79-.41-1.11-.71-.31-.3-.56-.67-.73-1.08s-.27-.88-.27-1.37c0-.59.1-1.08.31-1.49s.47-.74.8-1c.33-.26.71-.45,1.12-.57s.84-.17,1.27-.17h.45v5.32ZM161.56,221.37c-.28,0-.54.05-.77.13-.23.08-.44.2-.61.36-.17.16-.31.36-.41.59-.1.24-.15.52-.15.83s.06.59.17.85c.12.26.27.47.46.65s.39.31.62.41c.23.1.46.15.68.15v-3.98Z" fill="#fff"/>
    <path d="M160.55,213.76c-.24.23-.43.48-.55.74s-.19.56-.19.92.06.65.19.9c.13.26.3.47.52.64.22.17.47.3.76.39.29.09.58.13.89.13s.6-.05.88-.15c.28-.1.52-.25.72-.43.21-.19.37-.41.48-.67.12-.26.18-.55.18-.88,0-.35-.06-.66-.19-.91s-.31-.49-.55-.7l.9-.9c.36.33.63.71.78,1.14.16.43.24.89.24,1.38,0,.51-.08.98-.25,1.41-.17.43-.4.79-.71,1.1-.3.31-.67.55-1.09.71s-.89.25-1.41.25-.98-.08-1.41-.25-.8-.4-1.11-.71c-.31-.3-.55-.67-.72-1.09-.17-.42-.26-.9-.26-1.42,0-.49.09-.95.26-1.39.17-.44.44-.83.79-1.16l.87.95Z" fill="#fff"/>
    <path d="M162.11,212.08c-.49,0-.94-.09-1.36-.27-.42-.18-.79-.43-1.11-.75-.32-.32-.57-.69-.75-1.12-.18-.43-.27-.89-.27-1.39s.09-.96.27-1.39.43-.8.75-1.12c.32-.32.69-.57,1.11-.75.42-.18.87-.27,1.36-.27s.94.09,1.37.27.79.43,1.11.75c.31.32.56.69.74,1.12.18.43.27.89.27,1.39s-.09.96-.27,1.39c-.18.43-.43.8-.74,1.12-.31.32-.68.57-1.11.75-.42.18-.88.27-1.37.27ZM162.11,210.74c.34,0,.65-.05.93-.15.29-.1.53-.25.73-.43.2-.19.36-.41.48-.69.12-.27.18-.57.18-.91s-.06-.64-.18-.91c-.12-.27-.27-.5-.48-.69-.2-.19-.44-.33-.73-.43-.28-.1-.59-.15-.93-.15s-.65.05-.93.15c-.29.1-.53.25-.73.43-.2.19-.36.42-.48.69-.12.27-.17.57-.17.91s.06.64.17.91c.12.27.28.5.48.69.2.19.44.33.73.43.28.1.59.15.93.15Z" fill="#fff"/>
    <path d="M158.79,203.45v-1.18h1.04v-.03c-.09-.03-.21-.1-.35-.22s-.27-.27-.4-.45c-.13-.18-.23-.4-.32-.64-.09-.25-.13-.52-.13-.82,0-.49.1-.91.31-1.25.21-.34.51-.61.92-.83-.41-.21-.72-.52-.92-.91s-.31-.79-.31-1.19c0-.51.08-.93.25-1.26.17-.33.39-.58.66-.77.28-.19.59-.31.94-.39.35-.07.71-.1,1.08-.1h3.86v1.26h-3.7c-.25,0-.49.02-.73.05s-.44.1-.62.2c-.18.1-.32.25-.43.43-.11.19-.16.43-.16.74,0,.61.19,1.04.56,1.3s.85.39,1.44.39h3.63v1.26h-3.47c-.32,0-.61.02-.87.05-.26.03-.49.1-.68.2-.19.1-.34.24-.45.42s-.16.43-.16.73c0,.22.04.44.13.65s.22.39.4.55c.18.16.4.28.68.38s.6.14.97.14h3.44v1.26h-6.64Z" fill="#fff"/>
    <path d="M154.84,191.52v-1.26h4.9v-.03c-.34-.22-.62-.55-.82-.97-.2-.42-.3-.87-.3-1.34,0-.51.09-.98.27-1.39.18-.42.42-.77.73-1.06.31-.29.68-.52,1.11-.68s.88-.24,1.38-.24.95.08,1.37.24.79.39,1.11.68.56.65.74,1.06c.18.42.27.88.27,1.39,0,.45-.1.88-.29,1.31-.2.42-.47.76-.83,1v.03h.95v1.26h-10.58ZM164.42,188.07c0-.34-.06-.64-.18-.91-.12-.27-.27-.5-.48-.69-.2-.19-.44-.33-.73-.43-.28-.1-.59-.15-.93-.15s-.65.05-.93.15c-.29.1-.53.25-.73.43-.2.19-.36.42-.48.69-.12.27-.17.57-.17.91s.06.64.17.91c.12.27.28.5.48.69.2.19.44.33.73.43.28.1.59.15.93.15s.65-.05.93-.15c.29-.1.53-.25.73-.43.2-.19.36-.42.48-.69.12-.27.18-.57.18-.91Z" fill="#fff"/>
    <path d="M156.41,183.16c-.25,0-.47-.09-.65-.27-.18-.18-.27-.4-.27-.65s.09-.47.27-.65c.18-.18.4-.27.65-.27s.47.09.65.27.27.4.27.65-.09.47-.27.65c-.18.18-.4.27-.65.27ZM158.79,182.87v-1.26h6.64v1.26h-6.64Z" fill="#fff"/>
    <path d="M158.79,179.6v-1.26h1.02v-.03c-.35-.16-.64-.43-.86-.83-.22-.39-.33-.84-.33-1.36,0-.32.05-.62.15-.92s.25-.55.46-.77.47-.39.79-.53c.32-.13.7-.2,1.14-.2h4.27v1.26h-3.92c-.31,0-.57.04-.79.13-.22.08-.4.2-.53.34-.14.14-.23.3-.29.48s-.09.37-.09.57c0,.26.04.5.13.73s.22.42.4.59c.18.17.41.3.69.39s.61.14.99.14h3.42v1.26h-6.64Z" fill="#fff"/>
    <path d="M156.41,172.02c-.25,0-.47-.09-.65-.27-.18-.18-.27-.4-.27-.65s.09-.47.27-.65c.18-.18.4-.27.65-.27s.47.09.65.27.27.4.27.65-.09.47-.27.65c-.18.18-.4.27-.65.27ZM158.79,171.72v-1.26h6.64v1.26h-6.64Z" fill="#fff"/>
    <path d="M158.79,168.46v-1.26h1.02v-.03c-.35-.16-.64-.43-.86-.83-.22-.39-.33-.84-.33-1.36,0-.32.05-.62.15-.92s.25-.55.46-.77.47-.39.79-.53c.32-.13.7-.2,1.14-.2h4.27v1.26h-3.92c-.31,0-.57.04-.79.13-.22.08-.4.2-.53.34-.14.14-.23.3-.29.48s-.09.37-.09.57c0,.26.04.5.13.73s.22.42.4.59c.18.17.41.3.69.39s.61.14.99.14h3.42v1.26h-6.64Z" fill="#fff"/>
    <path d="M165.37,154.03c.5,0,.96.09,1.38.26.42.17.77.42,1.08.73.3.32.54.7.71,1.15.17.45.25.94.25,1.48,0,.63-.09,1.22-.27,1.74-.18.53-.49,1.03-.92,1.5l-1.06-.85c.35-.33.62-.68.81-1.06.18-.38.27-.82.27-1.3s-.07-.85-.2-1.16c-.13-.31-.31-.55-.52-.74-.21-.18-.46-.31-.74-.38s-.55-.11-.83-.11h-.98v.04c.4.24.7.57.89.99.19.42.29.85.29,1.31,0,.49-.09.94-.26,1.35-.17.42-.41.77-.71,1.07-.3.3-.66.53-1.08.7-.42.17-.87.25-1.35.25s-.94-.08-1.37-.24c-.42-.16-.79-.38-1.11-.68s-.56-.65-.74-1.06c-.18-.42-.27-.88-.27-1.39,0-.45.1-.88.29-1.31.2-.42.47-.76.83-1v-.03h-.95v-1.26h6.58ZM159.8,157.47c0,.34.06.64.17.91.12.27.28.5.48.69.2.19.44.33.73.43.28.1.59.15.93.15.67,0,1.21-.2,1.62-.59s.61-.92.61-1.6-.2-1.2-.61-1.6-.95-.59-1.62-.59c-.34,0-.65.05-.93.15-.29.1-.53.25-.73.43-.2.19-.36.42-.48.69-.12.27-.17.57-.17.91Z" fill="#fff"/>
  </g>
</svg>